{
.appVersion = "3133";
.formatVersion = 3;
customParameters = (
{
name = vendorID;
value = CYRE;
},
{
name = panose;
value = (
0,
0,
0,
0,
0,
0,
0,
0,
0,
0
);
},
{
name = unicodeRanges;
value = (
0,
1,
2,
3,
4,
5,
6,
7,
29,
31,
32,
33,
35,
37,
38,
39,
40,
43,
44,
45,
46,
47,
69
);
},
{
name = codePageRanges;
value = (
"1252",
"1250",
"1254",
"1257",
"1258",
"bit 29",
"bit 30",
"865",
"863",
"861",
"860",
"857",
"852",
"775",
"850",
"437"
);
},
{
name = fsType;
value = (
);
},
{
name = blueScale;
value = 0.0625;
},
{
name = glyphOrder;
value = (
.notdef,
A,
Aacute,
Abreve,
uni1EAE,
uni1EB6,
uni1EB0,
uni1EB2,
uni1EB4,
Acircumflex,
uni1EA4,
uni1EAC,
uni1EA6,
uni1EA8,
uni1EAA,
uni0200,
Adieresis,
uni1EA0,
Agrave,
uni1EA2,
uni0202,
Amacron,
Aogonek,
Aring,
Aringacute,
Atilde,
AE,
AEacute,
B,
C,
Cacute,
Ccaron,
Ccedilla,
uni1E08,
Ccircumflex,
Cdotaccent,
D,
Eth,
Dcaron,
Dcroat,
uni1E0C,
uni1E0E,
E,
Eacute,
Ebreve,
Ecaron,
uni1E1C,
Ecircumflex,
uni1EBE,
uni1EC6,
uni1EC0,
uni1EC2,
uni1EC4,
uni0204,
Edieresis,
Edotaccent,
uni1EB8,
Egrave,
uni1EBA,
uni0206,
Emacron,
uni1E16,
uni1E14,
Eogonek,
uni1EBC,
uni01B8,
F,
G,
Gbreve,
Gcaron,
Gcircumflex,
uni0122,
Gdotaccent,
uni1E20,
H,
Hbar,
uni1E2A,
Hcircumflex,
uni1E24,
I,
Iacute,
Ibreve,
Icircumflex,
uni0208,
Idieresis,
uni1E2E,
Idotaccent,
uni1ECA,
Igrave,
uni1EC8,
uni020A,
Imacron,
Iogonek,
Itilde,
J,
Jcircumflex,
K,
uni0136,
uni0198,
L,
uni01C7,
Lacute,
Lcaron,
uni013B,
Ldot,
uni1E36,
uni01C8,
uni1E3A,
Lslash,
M,
uni1E42,
N,
Nacute,
Ncaron,
uni0145,
uni1E44,
uni1E46,
Eng,
uni1E48,
Ntilde,
O,
Oacute,
Obreve,
Ocircumflex,
uni1ED0,
uni1ED8,
uni1ED2,
uni1ED4,
uni1ED6,
uni020C,
Odieresis,
uni022A,
uni0230,
uni1ECC,
Ograve,
uni1ECE,
Ohorn,
uni1EDA,
uni1EE2,
uni1EDC,
uni1EDE,
uni1EE0,
Ohungarumlaut,
uni020E,
Omacron,
uni1E52,
uni1E50,
uni01EA,
Oslash,
Oslashacute,
Otilde,
uni1E4C,
uni1E4E,
uni022C,
OE,
P,
Thorn,
Q,
R,
Racute,
Rcaron,
uni0156,
uni0210,
uni1E5A,
uni0212,
uni1E5E,
S,
Sacute,
uni1E64,
Scaron,
uni1E66,
Scedilla,

glyphs = (
{
glyphname = A;
layers = (
{
layerId = m01;
shapes = (
{
closed = 1;
nodes = (
(412,0,l),
(484,0,l),
(254,634,l),
(246,634,l),
(16,0,l),
(85,0,l),
(148,182,l),
(349,182,l)
);
},
{
closed = 1;
nodes = (
(249,474,l),
(331,236,l),
(167,236,l)
);
}
);
width = 500;
}
);
note = A;
unicode = 65;
},
{
glyphname = Aacute;
layers = (
{
layerId = m01;
shapes = (
{
closed = 1;
nodes = (
(177,660,l),
(346,721,l),
(306,791,l),
(154,702,l)
);
},
{
closed = 1;
nodes = (
(412,0,l),
(484,0,l),
(254,634,l),
(246,634,l),
(16,0,l),
(85,0,l),
(148,182,l),
(349,182,l)
);
},
{
closed = 1;
nodes = (
(249,474,l),
(331,236,l),
(167,236,l)
);
}
);
width = 500;
}
);
note = Aacute;
unicode = 193;
},
{
glyphname = Abreve;
layers = (
{
layerId = m01;
shapes = (
{
closed = 1;
nodes = (
(340,787,l),
(318,740,o),
(290,719,o),
(250,719,cs),
(210,719,o),
(182,740,o),
(160,787,c),
(108,763,l),
(138,704,o),
(188,671,o),
(250,671,cs),
(312,671,o),
(362,704,o),
(392,763,c)
);
},
{
closed = 1;
nodes = (
(412,0,l),
(484,0,l),
(254,634,l),
(246,634,l),
(16,0,l),
(85,0,l),
(148,182,l),
(349,182,l)
);
},
{
closed = 1;
nodes = (
(249,474,l),
(331,236,l),
(167,236,l)
);
}
);
width = 500;
}
);
note = Abreve;
unicode = 258;
},
{
glyphname = uni1EAE;
layers = (
{
layerId = m01;
shapes = (
{
closed = 1;
nodes = (
(207,771,l),
(376,832,l),
(336,902,l),
(184,813,l)
);
},
{
closed = 1;
nodes = (
(340,787,l),
(318,740,o),
(290,719,o),
(250,719,cs),
(210,719,o),
(182,740,o),
(160,787,c),
(108,763,l),
(138,704,o),
(188,671,o),
(250,671,cs),
(312,671,o),
(362,704,o),
(392,763,c)
);
},
{
closed = 1;
nodes = (
(412,0,l),
(484,0,l),
(254,634,l),
(246,634,l),
(16,0,l),
(85,0,l),
(148,182,l),
(349,182,l)
);
},
{
closed = 1;
nodes = (
(249,474,l),
(331,236,l),
(167,236,l)
);
}
);
width = 500;
}
);
note = uni1EAE;
unicode = 7854;
},
{
glyphname = uni1EB6;
layers = (
{
layerId = m01;
shapes = (
{
closed = 1;
nodes = (
(340,787,l),
(318,740,o),
(290,719,o),
(250,719,cs),
(210,719,o),
(182,740,o),
(160,787,c),
(108,763,l),
(138,704,o),
(188,671,o),
(250,671,cs),
(312,671,o),
(362,704,o),
(392,763,c)
);
},
{
closed = 1;
nodes = (
(412,0,l),
(484,0,l),
(254,634,l),
(246,634,l),
(16,0,l),
(85,0,l),
(148,182,l),
(349,182,l)
);
},
{
closed = 1;
nodes = (
(249,474,l),
(331,236,l),
(167,236,l)
);
},
{
closed = 1;
nodes = (
(277,-147,o),
(301,-124,o),
(301,-96,cs),
(301,-68,o),
(277,-44,o),
(249,-44,cs),
(220,-44,o),
(198,-67,o),
(198,-96,cs),
(198,-124,o),
(221,-147,o),
(249,-147,cs)
);
}
);
width = 500;
}
);
note = uni1EB6;
unicode = 7862;
},
{
glyphname = uni1EB0;
layers = (
{
layerId = m01;
shapes = (
{
closed = 1;
nodes = (
(293,824,l),
(316,866,l),
(163,955,l),
(123,885,l)
);
},
{
closed = 1;
nodes = (
(340,787,l),
(318,740,o),
(290,719,o),
(250,719,cs),
(210,719,o),
(182,740,o),
(160,787,c),
(108,763,l),
(138,704,o),
(188,671,o),
(250,671,cs),
(312,671,o),
(362,704,o),
(392,763,c)
);
},
{
closed = 1;
nodes = (
(412,0,l),
(484,0,l),
(254,634,l),
(246,634,l),
(16,0,l),
(85,0,l),
(148,182,l),
(349,182,l)
);
},
{
closed = 1;
nodes = (
(249,474,l),
(331,236,l),
(167,236,l)
);
}
);
width = 500;
}
);
note = uni1EB0;
unicode = 7856;
},
{
glyphname = uni1EB2;
layers = (
{
layerId = m01;
shapes = (
{
closed = 1;
nodes = (
(325,923,o),
(288,951,o),
(244,951,cs),
(208,951,o),
(182,939,o),
(158,909,c),
(195,871,l),
(203,897,o),
(222,903,o),
(239,903,cs),
(256,903,o),
(270,893,o),
(270,875,cs),
(270,851,o),
(218,832,o),
(218,798,cs),
(218,770,l),
(269,770,l),
(269,777,ls),
(269,827,o),
(325,821,o),
(325,877,cs)
);
},
{
closed = 1;
nodes = (
(340,787,l),
(318,740,o),
(290,719,o),
(250,719,cs),
(210,719,o),
(182,740,o),
(160,787,c),
(108,763,l),
(138,704,o),
(188,671,o),
(250,671,cs),
(312,671,o),
(362,704,o),
(392,763,c)
);
},
{
closed = 1;
nodes = (
(412,0,l),
(484,0,l),
(254,634,l),
(246,634,l),
(16,0,l),
(85,0,l),
(148,182,l),
(349,182,l)
);
},
{
closed = 1;
nodes = (
(249,474,l),
(331,236,l),
(167,236,l)
);
}
);
width = 500;
}
);
note = uni1EB2;
unicode = 7858;
},
{
glyphname = uni1EB4;
layers = (
{
layerId = m01;
shapes = (
{
closed = 1;
nodes = (
(342,918,l),
(330,888,o),
(318,876,o),
(303,876,cs),
(274,876,o),
(236,930,o),
(187,930,cs),
(153,930,o),
(117,900,o),
(102,855,c),
(148,833,l),
(159,861,o),
(176,875,o),
(193,875,cs),
(225,875,o),
(254,821,o),
(303,821,cs),
(337,821,o),
(363,840,o),
(388,896,c)
);
},
{
closed = 1;
nodes = (
(340,787,l),
(318,740,o),
(290,719,o),
(250,719,cs),
(210,719,o),
(182,740,o),
(160,787,c),
(108,763,l),
(138,704,o),
(188,671,o),
(250,671,cs),
(312,671,o),
(362,704,o),
(392,763,c)
);
},
{
closed = 1;
nodes = (
(412,0,l),
(484,0,l),
(254,634,l),
(246,634,l),
(16,0,l),
(85,0,l),
(148,182,l),
(349,182,l)
);
},
{
closed = 1;
nodes = (
(249,474,l),
(331,236,l),
(167,236,l)
);
}
);
width = 500;
}
);
note = uni1EB4;
unicode = 7860;
},
{
glyphname = Acircumflex;
layers = (
{
layerId = m01;
shapes = (
{
closed = 1;
nodes = (
(125,655,l),
(248,726,l),
(378,656,l),
(408,692,l),
(257,791,l),
(235,791,l),
(92,693,l)
);
},
{
closed = 1;
nodes = (
(412,0,l),
(484,0,l),
(254,634,l),
(246,634,l),
(16,0,l),
(85,0,l),
(148,182,l),
(349,182,l)
);
},
{
closed = 1;
nodes = (
(249,474,l),
(331,236,l),
(167,236,l)
);
}
);
width = 500;
}
);
note = Acircumflex;
unicode = 194;
},
{
glyphname = uni1EA4;
layers = (
{
layerId = m01;
shapes = (
{
closed = 1;
nodes = (
(369,766,l),
(538,827,l),
(498,897,l),
(346,808,l)
);
},
{
closed = 1;
nodes = (
(124,655,l),
(247,726,l),
(377,656,l),
(407,692,l),
(256,791,l),
(234,791,l),
(91,693,l)
);
},
{
closed = 1;
nodes = (
(412,0,l),
(484,0,l),
(254,634,l),
(246,634,l),
(16,0,l),
(85,0,l),
(148,182,l),
(349,182,l)
);
},
{
closed = 1;
nodes = (
(249,474,l),
(331,236,l),
(167,236,l)
);
}
);
width = 500;
}
);
note = uni1EA4;
unicode = 7844;
},
{
glyphname = uni1EAC;
layers = (
{
layerId = m01;
shapes = (
{
closed = 1;
nodes = (
(125,655,l),
(248,726,l),
(378,656,l),
(408,692,l),
(257,791,l),
(235,791,l),
(92,693,l)
);
},
{
closed = 1;
nodes = (
(412,0,l),
(484,0,l),
(254,634,l),
(246,634,l),
(16,0,l),
(85,0,l),
(148,182,l),
(349,182,l)
);
},
{
closed = 1;
nodes = (
(249,474,l),
(331,236,l),
(167,236,l)
);
},
{
closed = 1;
nodes = (
(277,-147,o),
(301,-124,o),
(301,-96,cs),
(301,-68,o),
(277,-44,o),
(249,-44,cs),
(220,-44,o),
(198,-67,o),
(198,-96,cs),
(198,-124,o),
(221,-147,o),
(249,-147,cs)
);
}
);
width = 500;
}
);
note = uni1EAC;
unicode = 7852;
},
{
glyphname = uni1EA6;
layers = (
{
layerId = m01;
shapes = (
{
closed = 1;
nodes = (
(307,798,l),
(330,840,l),
(177,929,l),
(137,859,l)
);
},
{
closed = 1;
nodes = (
(125,655,l),
(248,726,l),
(378,656,l),
(408,692,l),
(257,791,l),
(235,791,l),
(92,693,l)
);
},
{
closed = 1;
nodes = (
(412,0,l),
(484,0,l),
(254,634,l),
(246,634,l),
(16,0,l),
(85,0,l),
(148,182,l),
(349,182,l)
);
},
{
closed = 1;
nodes = (
(249,474,l),
(331,236,l),
(167,236,l)
);
}
);
width = 500;
}
);
note = uni1EA6;
unicode = 7846;
},
{
glyphname = uni1EA8;
layers = (
{
layerId = m01;
shapes = (
{
closed = 1;
nodes = (
(450,902,o),
(413,930,o),
(369,930,cs),
(333,930,o),
(307,918,o),
(283,888,c),
(320,850,l),
(328,876,o),
(347,882,o),
(364,882,cs),
(381,882,o),
(395,872,o),
(395,854,cs),
(395,830,o),
(343,811,o),
(343,777,cs),
(343,749,l),
(394,749,l),
(394,756,ls),
(394,806,o),
(450,800,o),
(450,856,cs)
);
},
{
closed = 1;
nodes = (
(121,655,l),
(244,726,l),
(374,656,l),
(404,692,l),
(253,791,l),
(231,791,l),
(88,693,l)
);
},
{
closed = 1;
nodes = (
(412,0,l),
(484,0,l),
(254,634,l),
(246,634,l),
(16,0,l),
(85,0,l),
(148,182,l),
(349,182,l)
);
},
{
closed = 1;
nodes = (
(249,474,l),
(331,236,l),
(167,236,l)
);
}
);
width = 500;
}
);
note = uni1EA8;
unicode = 7848;
},
{
glyphname = uni1EAA;
layers = (
{
layerId = m01;
shapes = (
{
closed = 1;
nodes = (
(347,921,l),
(335,891,o),
(323,879,o),
(308,879,cs),
(279,879,o),
(241,933,o),
(192,933,cs),
(158,933,o),
(122,903,o),
(107,858,c),
(153,836,l),
(164,864,o),
(181,878,o),
(198,878,cs),
(230,878,o),
(259,824,o),
(308,824,cs),
(342,824,o),
(368,843,o),
(393,899,c)
);
},
{
closed = 1;
nodes = (
(125,655,l),
(248,726,l),
(378,656,l),
(408,692,l),
(257,791,l),
(235,791,l),
(92,693,l)
);
},
{
closed = 1;
nodes = (
(412,0,l),
(484,0,l),
(254,634,l),
(246,634,l),
(16,0,l),
(85,0,l),
(148,182,l),
(349,182,l)
);
},
{
closed = 1;
nodes = (
(249,474,l),
(331,236,l),
(167,236,l)
);
}
);
width = 500;
}
);
note = uni1EAA;
unicode = 7850;
},
{
glyphname = uni0200;
layers = (
{
layerId = m01;
shapes = (
{
closed = 1;
nodes = (
(175,673,l),
(213,699,l),
(129,848,l),
(74,808,l)
);
},
{
closed = 1;
nodes = (
(335,673,l),
(373,699,l),
(289,848,l),
(234,808,l)
);
},
{
closed = 1;
nodes = (
(412,0,l),
(484,0,l),
(254,634,l),
(246,634,l),
(16,0,l),
(85,0,l),
(148,182,l),
(349,182,l)
);
},
{
closed = 1;
nodes = (
(249,474,l),
(331,236,l),
(167,236,l)
);
}
);
width = 500;
}
);
note = uni0200;
unicode = 512;
},
{
glyphname = Adieresis;
layers = (
{
layerId = m01;
shapes = (
{
closed = 1;
nodes = (
(188,688,o),
(211,711,o),
(211,738,cs),
(211,766,o),
(188,789,o),
(160,789,cs),
(133,789,o),
(110,765,o),
(110,738,cs),
(110,711,o),
(133,688,o),
(160,688,cs)
);
},
{
closed = 1;
nodes = (
(366,688,o),
(389,711,o),
(389,738,cs),
(389,766,o),
(366,789,o),
(338,789,cs),
(311,789,o),
(289,766,o),
(289,738,cs),
(289,710,o),
(311,688,o),
(338,688,cs)
);
},
{
closed = 1;
nodes = (
(412,0,l),
(484,0,l),
(254,634,l),
(246,634,l),
(16,0,l),
(85,0,l),
(148,182,l),
(349,182,l)
);
},
{
closed = 1;
nodes = (
(249,474,l),
(331,236,l),
(167,236,l)
);
}
);
width = 500;
}
);
note = Adieresis;
unicode = 196;
},
{
glyphname = uni1EA0;
layers = (
{
layerId = m01;
shapes = (
{
closed = 1;
nodes = (
(412,0,l),
(484,0,l),
(254,634,l),
(246,634,l),
(16,0,l),
(85,0,l),
(148,182,l),
(349,182,l)
);
},
{
closed = 1;
nodes = (
(249,474,l),
(331,236,l),
(167,236,l)
);
},
{
closed = 1;
nodes = (
(277,-147,o),
(301,-124,o),
(301,-96,cs),
(301,-68,o),
(277,-44,o),
(249,-44,cs),
(220,-44,o),
(198,-67,o),
(198,-96,cs),
(198,-124,o),
(221,-147,o),
(249,-147,cs)
);
}
);
width = 500;
}
);
note = uni1EA0;
unicode = 7840;
},
{
glyphname = Agrave;
layers = (
{
layerId = m01;
shapes = (
{
closed = 1;
nodes = (
(293,660,l),
(316,702,l),
(163,791,l),
(123,721,l)
);
},
{
closed = 1;
nodes = (
(412,0,l),
(484,0,l),
(254,634,l),
(246,634,l),
(16,0,l),
(85,0,l),
(148,182,l),
(349,182,l)
);
},
{
closed = 1;
nodes = (
(249,474,l),
(331,236,l),
(167,236,l)
);
}
);
width = 500;
}
);
note = Agrave;
unicode = 192;
},
{
glyphname = uni1EA2;
layers = (
{
layerId = m01;
shapes = (
{
closed = 1;
nodes = (
(335,842,o),
(298,870,o),
(254,870,cs),
(218,870,o),
(192,858,o),
(168,828,c),
(205,790,l),
(213,816,o),
(232,822,o),
(249,822,cs),
(266,822,o),
(280,812,o),
(280,794,cs),
(280,770,o),
(228,751,o),
(228,717,cs),
(228,689,l),
(279,689,l),
(279,696,ls),
(279,746,o),
(335,740,o),
(335,796,cs)
);
},
{
closed = 1;
nodes = (
(412,0,l),
(484,0,l),
(254,634,l),
(246,634,l),
(16,0,l),
(85,0,l),
(148,182,l),
(349,182,l)
);
},
{
closed = 1;
nodes = (
(249,474,l),
(331,236,l),
(167,236,l)
);
}
);
width = 500;
}
);
note = uni1EA2;
unicode = 7842;
},
{
glyphname = uni0202;
layers = (
{
layerId = m01;
shapes = (
{
closed = 1;
nodes = (
(159,694,l),
(181,741,o),
(209,762,o),
(249,762,cs),
(289,762,o),
(317,741,o),
(339,694,c),
(391,718,l),
(361,777,o),
(311,810,o),
(249,810,cs),
(187,810,o),
(137,777,o),
(107,718,c)
);
},
{
closed = 1;
nodes = (
(412,0,l),
(484,0,l),
(254,634,l),
(246,634,l),
(16,0,l),
(85,0,l),
(148,182,l),
(349,182,l)
);
},
{
closed = 1;
nodes = (
(249,474,l),
(331,236,l),
(167,236,l)
);
}
);
width = 500;
}
);
note = uni0202;
unicode = 514;
},
{
glyphname = Amacron;
layers = (
{
layerId = m01;
shapes = (
{
closed = 1;
nodes = (
(123,731,l),
(377,731,l),
(377,787,l),
(123,787,l)
);
},
{
closed = 1;
nodes = (
(412,0,l),
(484,0,l),
(254,634,l),
(246,634,l),
(16,0,l),
(85,0,l),
(148,182,l),
(349,182,l)
);
},
{
closed = 1;
nodes = (
(249,474,l),
(331,236,l),
(167,236,l)
);
}
);
width = 500;
}
);
note = Amacron;
unicode = 256;
},
{
glyphname = Aogonek;
layers = (
{
layerId = m01;
shapes = (
{
closed = 1;
nodes = (
(444,-179,l),
(401,-173,o),
(382,-151,o),
(382,-123,cs),
(382,-87,o),
(413,-40,o),
(464,0,c),
(484,0,l),
(254,634,l),
(246,634,l),
(16,0,l),
(85,0,l),
(148,182,l),
(349,182,l),
(412,1,l),
(350,-42,o),
(316,-90,o),
(316,-137,cs),
(316,-188,o),
(362,-218,o),
(428,-227,c)
);
},
{
closed = 1;
nodes = (
(249,474,l),
(331,236,l),
(167,236,l)
);
}
);
width = 500;
}
);
note = Aogonek;
unicode = 260;
},
{
glyphname = Aring;
layers = (
{
layerId = m01;
shapes = (
{
closed = 1;
nodes = (
(412,0,l),
(484,0,l),
(259,619,l),
(306,624,o),
(341,662,o),
(341,706,cs),
(341,756,o),
(299,795,o),
(250,795,cs),
(201,795,o),
(158,755,o),
(158,707,cs),
(158,662,o),
(195,624,o),
(241,619,c),
(16,0,l),
(85,0,l),
(148,182,l),
(349,182,l)
);
},
{
closed = 1;
nodes = (
(228,662,o),
(209,682,o),
(209,707,cs),
(209,734,o),
(228,753,o),
(251,753,cs),
(274,753,o),
(292,734,o),
(292,707,cs),
(292,682,o),
(274,662,o),
(251,662,cs)
);
},
{
closed = 1;
nodes = (
(249,474,l),
(331,236,l),
(167,236,l)
);
}
);
width = 500;
}
);
note = Aring;
unicode = 197;
},
{
glyphname = Aringacute;
layers = (
{
layerId = m01;
shapes = (
{
closed = 1;
nodes = (
(177,832,l),
(346,893,l),
(306,963,l),
(154,874,l)
);
},
{
closed = 1;
nodes = (
(412,0,l),
(484,0,l),
(259,619,l),
(306,624,o),
(341,662,o),
(341,706,cs),
(341,756,o),
(299,795,o),
(250,795,cs),
(201,795,o),
(158,755,o),
(158,707,cs),
(158,662,o),
(195,624,o),
(241,619,c),
(16,0,l),
(85,0,l),
(148,182,l),
(349,182,l)
);
},
{
closed = 1;
nodes = (
(228,662,o),
(209,682,o),
(209,707,cs),
(209,734,o),
(228,753,o),
(251,753,cs),
(274,753,o),
(292,734,o),
(292,707,cs),
(292,682,o),
(274,662,o),
(251,662,cs)
);
},
{
closed = 1;
nodes = (
(249,474,l),
(331,236,l),
(167,236,l)
);
}
);
width = 500;
}
);
note = Aringacute;
unicode = 506;
},
{
glyphname = Atilde;
layers = (
{
layerId = m01;
shapes = (
{
closed = 1;
nodes = (
(379,791,l),
(360,754,o),
(349,743,o),
(328,743,cs),
(280,743,o),
(257,797,o),
(198,797,cs),
(146,797,o),
(113,762,o),
(95,717,c),
(144,695,l),
(160,731,o),
(177,742,o),
(200,742,cs),
(245,742,o),
(272,688,o),
(332,688,cs),
(372,688,o),
(396,707,o),
(425,763,c)
);
},
{
closed = 1;
nodes = (
(412,0,l),
(484,0,l),
(254,634,l),
(246,634,l),
(16,0,l),
(85,0,l),
(148,182,l),
(349,182,l)
);
},
{
closed = 1;
nodes = (
(249,474,l),
(331,236,l),
(167,236,l)
);
}
);
width = 500;
}
);
note = Atilde;
unicode = 195;
},
{
glyphname = AE;
layers = (
{
layerId = m01;
shapes = (
{
closed = 1;
nodes = (
(15,0,l),
(79,0,l),
(133,169,l),
(263,169,l),
(263,0,l),
(493,0,l),
(493,62,l),
(324,62,l),
(324,293,l),
(469,293,l),
(469,357,l),
(324,357,l),
(324,562,l),
(495,562,l),
(495,624,l),
(211,624,l)
);
},
{
closed = 1;
nodes = (
(147,227,l),
(252,562,l),
(263,562,l),
(263,227,l)
);
}
);
width = 500;
}
);
note = AE;
unicode = 198;
},
{
glyphname = AEacute;
layers = (
{
layerId = m01;
shapes = (
{
closed = 1;
nodes = (
(196,660,l),
(365,721,l),
(325,791,l),
(173,702,l)
);
},
{
closed = 1;
nodes = (
(15,0,l),
(79,0,l),
(133,169,l),
(263,169,l),
(263,0,l),
(493,0,l),
(493,62,l),
(324,62,l),
(324,293,l),
(469,293,l),
(469,357,l),
(324,357,l),
(324,562,l),
(495,562,l),
(495,624,l),
(211,624,l)
);
},
{
closed = 1;
nodes = (
(147,227,l),
(252,562,l),
(263,562,l),
(263,227,l)
);
}
);
width = 500;
}
);
note = AEacute;
unicode = 508;
},
{
glyphname = B;
layers = (
{
layerId = m01;
shapes = (
{
closed = 1;
nodes = (
(48,0,l),
(224,0,ls),
(385,0,o),
(457,70,o),
(457,175,cs),
(457,244,o),
(410,310,o),
(340,334,c),
(399,355,o),
(432,413,o),
(432,472,cs),
(432,561,o),
(369,623,o),
(225,623,cs),
(48,623,l)
);
},
{
closed = 1;
nodes = (
(117,365,l),
(117,564,l),
(226,564,ls),
(324,564,o),
(362,519,o),
(362,464,cs),
(362,407,o),
(325,365,o),
(215,365,cs)
);
},
{
closed = 1;
nodes = (
(117,61,l),
(117,306,l),
(219,306,ls),
(340,306,o),
(383,253,o),
(383,179,cs),
(383,92,o),
(323,61,o),
(236,61,cs)
);
}
);
width = 500;
}
);
note = B;
unicode = 66;
},
{
glyphname = C;
layers = (
{
layerId = m01;
shapes = (
{
closed = 1;
nodes = (
(366,-10,o),
(420,25,o),
(460,92,c),
(408,126,l),
(380,79,o),
(332,50,o),
(282,50,cs),
(186,50,o),
(109,156,o),
(109,313,cs),
(109,476,o),
(174,572,o),
(279,572,cs),
(326,572,o),
(371,553,o),
(408,477,c),
(469,505,l),
(437,579,o),
(371,628,o),
(281,628,cs),
(169,628,o),
(41,553,o),
(41,308,cs),
(42,87,o),
(150,-10,o),
(285,-10,cs)
);
}
);
width = 500;
}
);
note = C;
unicode = 67;
},
{
glyphname = Cacute;
layers = (
{
layerId = m01;
shapes = (
{
closed = 1;
nodes = (
(197,660,l),
(366,721,l),
(326,791,l),
(174,702,l)
);
},
{
closed = 1;
nodes = (
(366,-10,o),
(420,25,o),
(460,92,c),
(408,126,l),
(380,79,o),
(332,50,o),
(282,50,cs),
(186,50,o),
(109,156,o),
(109,313,cs),
(109,476,o),
(174,572,o),
(279,572,cs),
(326,572,o),
(371,553,o),
(408,477,c),
(469,505,l),
(437,579,o),
(371,628,o),
(281,628,cs),
(169,628,o),
(41,553,o),
(41,308,cs),
(42,87,o),
(150,-10,o),
(285,-10,cs)
);
}
);
width = 500;
}
);
note = Cacute;
unicode = 262;
},
{
glyphname = Ccaron;
layers = (
{
layerId = m01;
shapes = (
{
closed = 1;
nodes = (
(391,793,l),
(268,722,l),
(138,792,l),
(108,756,l),
(259,657,l),
(281,657,l),
(424,755,l)
);
},
{
closed = 1;
nodes = (
(366,-10,o),
(420,25,o),
(460,92,c),
(408,126,l),
(380,79,o),
(332,50,o),
(282,50,cs),
(186,50,o),
(109,156,o),
(109,313,cs),
(109,476,o),
(174,572,o),
(279,572,cs),
(326,572,o),
(371,553,o),
(408,477,c),
(469,505,l),
(437,579,o),
(371,628,o),
(281,628,cs),
(169,628,o),
(41,553,o),
(41,308,cs),
(42,87,o),
(150,-10,o),
(285,-10,cs)
);
}
);
width = 500;
}
);
note = Ccaron;
unicode = 268;
},
{
glyphname = Ccedilla;
layers = (
{
layerId = m01;
shapes = (
{
closed = 1;
nodes = (
(356,-197,o),
(393,-157,o),
(393,-112,cs),
(393,-82,o),
(367,-52,o),
(308,-47,c),
(313,-8,l),
(379,-1,o),
(425,33,o),
(460,92,c),
(408,126,l),
(380,79,o),
(332,50,o),
(282,50,cs),
(186,50,o),
(109,156,o),
(109,313,cs),
(109,476,o),
(174,572,o),
(279,572,cs),
(326,572,o),
(371,553,o),
(408,477,c),
(469,505,l),
(437,579,o),
(371,628,o),
(281,628,cs),
(169,628,o),
(41,553,o),
(41,308,cs),
(42,96,o),
(141,-2,o),
(269,-10,c),
(259,-85,l),
(289,-85,ls),
(320,-85,o),
(340,-97,o),
(340,-118,cs),
(340,-141,o),
(325,-154,o),
(290,-154,cs),
(257,-154,o),
(228,-144,o),
(203,-124,c),
(178,-166,l),
(209,-187,o),
(242,-197,o),
(277,-197,cs)
);
}
);
width = 500;
}
);
note = Ccedilla;
unicode = 199;
},
{
glyphname = uni1E08;
layers = (
{
layerId = m01;
shapes = (
{
closed = 1;
nodes = (
(197,660,l),
(366,721,l),
(326,791,l),
(174,702,l)
);
},
{
closed = 1;
nodes = (
(356,-197,o),
(393,-157,o),
(393,-112,cs),
(393,-82,o),
(367,-52,o),
(308,-47,c),
(313,-8,l),
(379,-1,o),
(425,33,o),
(460,92,c),
(408,126,l),
(380,79,o),
(332,50,o),
(282,50,cs),
(186,50,o),
(109,156,o),
(109,313,cs),
(109,476,o),
(174,572,o),
(279,572,cs),
(326,572,o),
(371,553,o),
(408,477,c),
(469,505,l),
(437,579,o),
(371,628,o),
(281,628,cs),
(169,628,o),
(41,553,o),
(41,308,cs),
(42,96,o),
(141,-2,o),
(269,-10,c),
(259,-85,l),
(289,-85,ls),
(320,-85,o),
(340,-97,o),
(340,-118,cs),
(340,-141,o),
(325,-154,o),
(290,-154,cs),
(257,-154,o),
(228,-144,o),
(203,-124,c),
(178,-166,l),
(209,-187,o),
(242,-197,o),
(277,-197,cs)
);
}
);
width = 500;
}
);
note = uni1E08;
unicode = 7688;
},
{
glyphname = Ccircumflex;
layers = (
{
layerId = m01;
shapes = (
{
closed = 1;
nodes = (
(145,655,l),
(268,726,l),
(398,656,l),
(428,692,l),
(277,791,l),
(255,791,l),
(112,693,l)
);
},
{
closed = 1;
nodes = (
(366,-10,o),
(420,25,o),
(460,92,c),
(408,126,l),
(380,79,o),
(332,50,o),
(282,50,cs),
(186,50,o),
(109,156,o),
(109,313,cs),
(109,476,o),
(174,572,o),
(279,572,cs),
(326,572,o),
(371,553,o),
(408,477,c),
(469,505,l),
(437,579,o),
(371,628,o),
(281,628,cs),
(169,628,o),
(41,553,o),
(41,308,cs),
(42,87,o),
(150,-10,o),
(285,-10,cs)
);
}
);
width = 500;
}
);
note = Ccircumflex;
unicode = 264;
},
{
glyphname = Cdotaccent;
layers = (
{
layerId = m01;
shapes = (
{
closed = 1;
nodes = (
(296,693,o),
(320,716,o),
(320,744,cs),
(320,772,o),
(296,796,o),
(268,796,cs),
(239,796,o),
(217,773,o),
(217,744,cs),
(217,716,o),
(240,693,o),
(268,693,cs)
);
},
{
closed = 1;
nodes = (
(366,-10,o),
(420,25,o),
(460,92,c),
(408,126,l),
(380,79,o),
(332,50,o),
(282,50,cs),
(186,50,o),
(109,156,o),
(109,313,cs),
(109,476,o),
(174,572,o),
(279,572,cs),
(326,572,o),
(371,553,o),
(408,477,c),
(469,505,l),
(437,579,o),
(371,628,o),
(281,628,cs),
(169,628,o),
(41,553,o),
(41,308,cs),
(42,87,o),
(150,-10,o),
(285,-10,cs)
);
}
);
width = 500;
}
);
note = Cdotaccent;
unicode = 266;
},
{
glyphname = D;
layers = (
{
layerId = m01;
shapes = (
{
closed = 1;
nodes = (
(54,-1,l),
(187,-1,ls),
(381,-1,o),
(452,117,o),
(460,308,c),
(460,405,o),
(440,483,o),
(399,538,cs),
(358,593,o),
(306,623,o),
(199,623,cs),
(54,623,l)
);
},
{
closed = 1;
nodes = (
(120,54,l),
(120,564,l),
(195,564,ls),
(335,564,o),
(389,467,o),
(390,304,cs),
(391,143,o),
(327,54,o),
(184,54,cs)
);
}
);
width = 500;
}
);
note = D;
unicode = 68;
},
{
glyphname = Eth;
layers = (
{
layerId = m01;
shapes = (
{
closed = 1;
nodes = (
(79,-1,l),
(205,-1,ls),
(370,-1,o),
(466,113,o),
(466,309,cs),
(466,409,o),
(445,474,o),
(427,506,cs),
(395,564,o),
(342,623,o),
(218,623,cs),
(79,623,l),
(79,359,l),
(30,359,l),
(30,301,l),
(79,301,l)
);
},
{
closed = 1;
nodes = (
(143,57,l),
(143,301,l),
(248,301,l),
(248,359,l),
(143,359,l),
(143,564,l),
(214,564,ls),
(342,564,o),
(399,466,o),
(399,306,cs),
(399,149,o),
(331,57,o),
(203,57,cs)
);
}
);
width = 500;
}
);
note = Eth;
unicode = 208;
},
{
glyphname = Dcaron;
layers = (
{
layerId = m01;
shapes = (
{
closed = 1;
nodes = (
(341,793,l),
(218,722,l),
(88,792,l),
(58,756,l),
(209,657,l),
(231,657,l),
(374,755,l)
);
},
{
closed = 1;
nodes = (
(54,-1,l),
(187,-1,ls),
(381,-1,o),
(452,117,o),
(460,308,c),
(460,405,o),
(440,483,o),
(399,538,cs),
(358,593,o),
(306,623,o),
(199,623,cs),
(54,623,l)
);
},
{
closed = 1;
nodes = (
(120,54,l),
(120,564,l),
(195,564,ls),
(335,564,o),
(389,467,o),
(390,304,cs),
(391,143,o),
(327,54,o),
(184,54,cs)
);
}
);
width = 500;
}
);
note = Dcaron;
unicode = 270;
},
{
glyphname = Dcroat;
layers = (
{
layerId = m01;
shapes = (
{
closed = 1;
nodes = (
(79,-1,l),
(205,-1,ls),
(370,-1,o),
(466,113,o),
(466,309,cs),
(466,409,o),
(445,474,o),
(427,506,cs),
(395,564,o),
(342,623,o),
(218,623,cs),
(79,623,l),
(79,359,l),
(30,359,l),
(30,301,l),
(79,301,l)
);
},
{
closed = 1;
nodes = (
(143,57,l),
(143,301,l),
(248,301,l),
(248,359,l),
(143,359,l),
(143,564,l),
(214,564,ls),
(342,564,o),
(399,466,o),
(399,306,cs),
(399,149,o),
(331,57,o),
(203,57,cs)
);
}
);
width = 500;
}
);
note = Dcroat;
unicode = 272;
},
{
glyphname = uni1E0C;
layers = (
{
layerId = m01;
shapes = (
{
closed = 1;
nodes = (
(54,-1,l),
(187,-1,ls),
(381,-1,o),
(452,117,o),
(460,308,c),
(460,405,o),
(440,483,o),
(399,538,cs),
(358,593,o),
(306,623,o),
(199,623,cs),
(54,623,l)
);
},
{
closed = 1;
nodes = (
(120,54,l),
(120,564,l),
(195,564,ls),
(335,564,o),
(389,467,o),
(390,304,cs),
(391,143,o),
(327,54,o),
(184,54,cs)
);
},
{
closed = 1;
nodes = (
(277,-147,o),
(301,-124,o),
(301,-96,cs),
(301,-68,o),
(277,-44,o),
(249,-44,cs),
(220,-44,o),
(198,-67,o),
(198,-96,cs),
(198,-124,o),
(221,-147,o),
(249,-147,cs)
);
}
);
width = 500;
}
);
note = uni1E0C;
unicode = 7692;
},
{
glyphname = uni1E0E;
layers = (
{
layerId = m01;
shapes = (
{
closed = 1;
nodes = (
(54,-1,l),
(187,-1,ls),
(381,-1,o),
(452,117,o),
(460,308,c),
(460,405,o),
(440,483,o),
(399,538,cs),
(358,593,o),
(306,623,o),
(199,623,cs),
(54,623,l)
);
},
{
closed = 1;
nodes = (
(120,54,l),
(120,564,l),
(195,564,ls),
(335,564,o),
(389,467,o),
(390,304,cs),
(391,143,o),
(327,54,o),
(184,54,cs)
);
},
{
closed = 1;
nodes = (
(125,-155,l),
(379,-155,l),
(379,-99,l),
(125,-99,l)
);
}
);
width = 500;
}
);
note = uni1E0E;
unicode = 7694;
},
{
glyphname = E;
layers = (
{
layerId = m01;
shapes = (
{
closed = 1;
nodes = (
(59,0,l),
(438,0,l),
(438,62,l),
(125,62,l),
(125,293,l),
(386,293,l),
(386,357,l),
(125,357,l),
(125,562,l),
(441,562,l),
(441,624,l),
(59,624,l)
);
}
);
width = 500;
}
);
note = E;
unicode = 69;
},
{
glyphname = Eacute;
layers = (
{
layerId = m01;
shapes = (
{
closed = 1;
nodes = (
(186,660,l),
(355,721,l),
(315,791,l),
(163,702,l)
);
},
{
closed = 1;
nodes = (
(59,0,l),
(438,0,l),
(438,62,l),
(125,62,l),
(125,293,l),
(386,293,l),
(386,357,l),
(125,357,l),
(125,562,l),
(441,562,l),
(441,624,l),
(59,624,l)
);
}
);
width = 500;
}
);
note = Eacute;
unicode = 201;
},
{
glyphname = Ebreve;
layers = (
{
layerId = m01;
shapes = (
{
closed = 1;
nodes = (
(349,787,l),
(327,740,o),
(299,719,o),
(259,719,cs),
(219,719,o),
(191,740,o),
(169,787,c),
(117,763,l),
(147,704,o),
(197,671,o),
(259,671,cs),
(321,671,o),
(371,704,o),
(401,763,c)
);
},
{
closed = 1;
nodes = (
(59,0,l),
(438,0,l),
(438,62,l),
(125,62,l),
(125,293,l),
(386,293,l),
(386,357,l),
(125,357,l),
(125,562,l),
(441,562,l),
(441,624,l),
(59,624,l)
);
}
);
width = 500;
}
);
note = Ebreve;
unicode = 276;
},
{
glyphname = Ecaron;
layers = (
{
layerId = m01;
shapes = (
{
closed = 1;
nodes = (
(380,793,l),
(257,722,l),
(127,792,l),
(97,756,l),
(248,657,l),
(270,657,l),
(413,755,l)
);
},
{
closed = 1;
nodes = (
(59,0,l),
(438,0,l),
(438,62,l),
(125,62,l),
(125,293,l),
(386,293,l),
(386,357,l),
(125,357,l),
(125,562,l),
(441,562,l),
(441,624,l),
(59,624,l)
);
}
);
width = 500;
}
);
note = Ecaron;
unicode = 282;
},
{
glyphname = uni1E1C;
layers = (
{
layerId = m01;
shapes = (
{
closed = 1;
nodes = (
(349,787,l),
(327,740,o),
(299,719,o),
(259,719,cs),
(219,719,o),
(191,740,o),
(169,787,c),
(117,763,l),
(147,704,o),
(197,671,o),
(259,671,cs),
(321,671,o),
(371,704,o),
(401,763,c)
);
},
{
closed = 1;
nodes = (
(59,0,l),
(240,0,l),
(229,-85,l),
(259,-85,ls),
(290,-85,o),
(310,-97,o),
(310,-118,cs),
(310,-141,o),
(295,-154,o),
(260,-154,cs),
(227,-154,o),
(198,-144,o),
(173,-124,c),
(148,-166,l),
(179,-187,o),
(212,-197,o),
(247,-197,cs),
(326,-197,o),
(363,-157,o),
(363,-112,cs),
(363,-82,o),
(337,-52,o),
(278,-47,c),
(284,0,l),
(438,0,l),
(438,62,l),
(125,62,l),
(125,293,l),
(386,293,l),
(386,357,l),
(125,357,l),
(125,562,l),
(441,562,l),
(441,624,l),
(59,624,l)
);
}
);
width = 500;
}
);
note = uni1E1C;
unicode = 7708;
},
{
glyphname = Ecircumflex;
layers = (
{
layerId = m01;
shapes = (
{
closed = 1;
nodes = (
(134,655,l),
(257,726,l),
(387,656,l),
(417,692,l),
(266,791,l),
(244,791,l),
(101,693,l)
);
},
{
closed = 1;
nodes = (
(59,0,l),
(438,0,l),
(438,62,l),
(125,62,l),
(125,293,l),
(386,293,l),
(386,357,l),
(125,357,l),
(125,562,l),
(441,562,l),
(441,624,l),
(59,624,l)
);
}
);
width = 500;
}
);
note = Ecircumflex;
unicode = 202;
},
{
glyphname = uni1EBE;
layers = (
{
layerId = m01;
shapes = (
{
closed = 1;
nodes = (
(378,766,l),
(547,827,l),
(507,897,l),
(355,808,l)
);
},
{
closed = 1;
nodes = (
(133,655,l),
(256,726,l),
(386,656,l),
(416,692,l),
(265,791,l),
(243,791,l),
(100,693,l)
);
},
{
closed = 1;
nodes = (
(59,0,l),
(438,0,l),
(438,62,l),
(125,62,l),
(125,293,l),
(386,293,l),
(386,357,l),
(125,357,l),
(125,562,l),
(441,562,l),
(441,624,l),
(59,624,l)
);
}
);
width = 500;
}
);
note = uni1EBE;
unicode = 7870;
},
{
glyphname = uni1EC6;
layers = (
{
layerId = m01;
shapes = (
{
closed = 1;
nodes = (
(134,655,l),
(257,726,l),
(387,656,l),
(417,692,l),
(266,791,l),
(244,791,l),
(101,693,l)
);
},
{
closed = 1;
nodes = (
(59,0,l),
(438,0,l),
(438,62,l),
(125,62,l),
(125,293,l),
(386,293,l),
(386,357,l),
(125,357,l),
(125,562,l),
(441,562,l),
(441,624,l),
(59,624,l)
);
},
{
closed = 1;
nodes = (
(277,-147,o),
(301,-124,o),
(301,-96,cs),
(301,-68,o),
(277,-44,o),
(249,-44,cs),
(220,-44,o),
(198,-67,o),
(198,-96,cs),
(198,-124,o),
(221,-147,o),
(249,-147,cs)
);
}
);
width = 500;
}
);
note = uni1EC6;
unicode = 7878;
},
{
glyphname = uni1EC0;
layers = (
{
layerId = m01;
shapes = (
{
closed = 1;
nodes = (
(316,798,l),
(339,840,l),
(186,929,l),
(146,859,l)
);
},
{
closed = 1;
nodes = (
(134,655,l),
(257,726,l),
(387,656,l),
(417,692,l),
(266,791,l),
(244,791,l),
(101,693,l)
);
},
{
closed = 1;
nodes = (
(59,0,l),
(438,0,l),
(438,62,l),
(125,62,l),
(125,293,l),
(386,293,l),
(386,357,l),
(125,357,l),
(125,562,l),
(441,562,l),
(441,624,l),
(59,624,l)
);
}
);
width = 500;
}
);
note = uni1EC0;
unicode = 7872;
},
{
glyphname = uni1EC2;
layers = (
{
layerId = m01;
shapes = (
{
closed = 1;
nodes = (
(459,902,o),
(422,930,o),
(378,930,cs),
(342,930,o),
(316,918,o),
(292,888,c),
(329,850,l),
(337,876,o),
(356,882,o),
(373,882,cs),
(390,882,o),
(404,872,o),
(404,854,cs),
(404,830,o),
(352,811,o),
(352,777,cs),
(352,749,l),
(403,749,l),
(403,756,ls),
(403,806,o),
(459,800,o),
(459,856,cs)
);
},
{
closed = 1;
nodes = (
(130,655,l),
(253,726,l),
(383,656,l),
(413,692,l),
(262,791,l),
(240,791,l),
(97,693,l)
);
},
{
closed = 1;
nodes = (
(59,0,l),
(438,0,l),
(438,62,l),
(125,62,l),
(125,293,l),
(386,293,l),
(386,357,l),
(125,357,l),
(125,562,l),
(441,562,l),
(441,624,l),
(59,624,l)
);
}
);
width = 500;
}
);
note = uni1EC2;
unicode = 7874;
},
{
glyphname = uni1EC4;
layers = (
{
layerId = m01;
shapes = (
{
closed = 1;
nodes = (
(356,921,l),
(344,891,o),
(332,879,o),
(317,879,cs),
(288,879,o),
(250,933,o),
(201,933,cs),
(167,933,o),
(131,903,o),
(116,858,c),
(162,836,l),
(173,864,o),
(190,878,o),
(207,878,cs),
(239,878,o),
(268,824,o),
(317,824,cs),
(351,824,o),
(377,843,o),
(402,899,c)
);
},
{
closed = 1;
nodes = (
(134,655,l),
(257,726,l),
(387,656,l),
(417,692,l),
(266,791,l),
(244,791,l),
(101,693,l)
);
},
{
closed = 1;
nodes = (
(59,0,l),
(438,0,l),
(438,62,l),
(125,62,l),
(125,293,l),
(386,293,l),
(386,357,l),
(125,357,l),
(125,562,l),
(441,562,l),
(441,624,l),
(59,624,l)
);
}
);
width = 500;
}
);
note = uni1EC4;
unicode = 7876;
},
{
glyphname = uni0204;
layers = (
{
layerId = m01;
shapes = (
{
closed = 1;
nodes = (
(184,673,l),
(222,699,l),
(138,848,l),
(83,808,l)
);
},
{
closed = 1;
nodes = (
(344,673,l),
(382,699,l),
(298,848,l),
(243,808,l)
);
},
{
closed = 1;
nodes = (
(59,0,l),
(438,0,l),
(438,62,l),
(125,62,l),
(125,293,l),
(386,293,l),
(386,357,l),
(125,357,l),
(125,562,l),
(441,562,l),
(441,624,l),
(59,624,l)
);
}
);
width = 500;
}
);
note = uni0204;
unicode = 516;
},
{
glyphname = Edieresis;
layers = (
{
layerId = m01;
shapes = (
{
closed = 1;
nodes = (
(197,688,o),
(220,711,o),
(220,738,cs),
(220,766,o),
(197,789,o),
(169,789,cs),
(142,789,o),
(119,765,o),
(119,738,cs),
(119,711,o),
(142,688,o),
(169,688,cs)
);
},
{
closed = 1;
nodes = (
(375,688,o),
(398,711,o),
(398,738,cs),
(398,766,o),
(375,789,o),
(347,789,cs),
(320,789,o),
(298,766,o),
(298,738,cs),
(298,710,o),
(320,688,o),
(347,688,cs)
);
},
{
closed = 1;
nodes = (
(59,0,l),
(438,0,l),
(438,62,l),
(125,62,l),
(125,293,l),
(386,293,l),
(386,357,l),
(125,357,l),
(125,562,l),
(441,562,l),
(441,624,l),
(59,624,l)
);
}
);
width = 500;
}
);
note = Edieresis;
unicode = 203;
},
{
glyphname = Edotaccent;
layers = (
{
layerId = m01;
shapes = (
{
closed = 1;
nodes = (
(285,693,o),
(309,716,o),
(309,744,cs),
(309,772,o),
(285,796,o),
(257,796,cs),
(228,796,o),
(206,773,o),
(206,744,cs),
(206,716,o),
(229,693,o),
(257,693,cs)
);
},
{
closed = 1;
nodes = (
(59,0,l),
(438,0,l),
(438,62,l),
(125,62,l),
(125,293,l),
(386,293,l),
(386,357,l),
(125,357,l),
(125,562,l),
(441,562,l),
(441,624,l),
(59,624,l)
);
}
);
width = 500;
}
);
note = Edotaccent;
unicode = 278;
},
{
glyphname = uni1EB8;
layers = (
{
layerId = m01;
shapes = (
{
closed = 1;
nodes = (
(59,0,l),
(438,0,l),
(438,62,l),
(125,62,l),
(125,293,l),
(386,293,l),
(386,357,l),
(125,357,l),
(125,562,l),
(441,562,l),
(441,624,l),
(59,624,l)
);
},
{
closed = 1;
nodes = (
(277,-147,o),
(301,-124,o),
(301,-96,cs),
(301,-68,o),
(277,-44,o),
(249,-44,cs),
(220,-44,o),
(198,-67,o),
(198,-96,cs),
(198,-124,o),
(221,-147,o),
(249,-147,cs)
);
}
);
width = 500;
}
);
note = uni1EB8;
unicode = 7864;
},
{
glyphname = Egrave;
layers = (
{
layerId = m01;
shapes = (
{
closed = 1;
nodes = (
(302,660,l),
(325,702,l),
(172,791,l),
(132,721,l)
);
},
{
closed = 1;
nodes = (
(59,0,l),
(438,0,l),
(438,62,l),
(125,62,l),
(125,293,l),
(386,293,l),
(386,357,l),
(125,357,l),
(125,562,l),
(441,562,l),
(441,624,l),
(59,624,l)
);
}
);
width = 500;
}
);
note = Egrave;
unicode = 200;
},
{
glyphname = uni1EBA;
layers = (
{
layerId = m01;
shapes = (
{
closed = 1;
nodes = (
(344,842,o),
(307,870,o),
(263,870,cs),
(227,870,o),
(201,858,o),
(177,828,c),
(214,790,l),
(222,816,o),
(241,822,o),
(258,822,cs),
(275,822,o),
(289,812,o),
(289,794,cs),
(289,770,o),
(237,751,o),
(237,717,cs),
(237,689,l),
(288,689,l),
(288,696,ls),
(288,746,o),
(344,740,o),
(344,796,cs)
);
},
{
closed = 1;
nodes = (
(59,0,l),
(438,0,l),
(438,62,l),
(125,62,l),
(125,293,l),
(386,293,l),
(386,357,l),
(125,357,l),
(125,562,l),
(441,562,l),
(441,624,l),
(59,624,l)
);
}
);
width = 500;
}
);
note = uni1EBA;
unicode = 7866;
},
{
glyphname = uni0206;
layers = (
{
layerId = m01;
shapes = (
{
closed = 1;
nodes = (
(168,694,l),
(190,741,o),
(218,762,o),
(258,762,cs),
(298,762,o),
(326,741,o),
(348,694,c),
(400,718,l),
(370,777,o),
(320,810,o),
(258,810,cs),
(196,810,o),
(146,777,o),
(116,718,c)
);
},
{
closed = 1;
nodes = (
(59,0,l),
(438,0,l),
(438,62,l),
(125,62,l),
(125,293,l),
(386,293,l),
(386,357,l),
(125,357,l),
(125,562,l),
(441,562,l),
(441,624,l),
(59,624,l)
);
}
);
width = 500;
}
);
note = uni0206;
unicode = 518;
},
{
glyphname = Emacron;
layers = (
{
layerId = m01;
shapes = (
{
closed = 1;
nodes = (
(132,731,l),
(386,731,l),
(386,787,l),
(132,787,l)
);
},
{
closed = 1;
nodes = (
(59,0,l),
(438,0,l),
(438,62,l),
(125,62,l),
(125,293,l),
(386,293,l),
(386,357,l),
(125,357,l),
(125,562,l),
(441,562,l),
(441,624,l),
(59,624,l)
);
}
);
width = 500;
}
);
note = Emacron;
unicode = 274;
},
{
glyphname = uni1E16;
layers = (
{
layerId = m01;
shapes = (
{
closed = 1;
nodes = (
(186,814,l),
(355,875,l),
(315,945,l),
(163,856,l)
);
},
{
closed = 1;
nodes = (
(132,731,l),
(386,731,l),
(386,787,l),
(132,787,l)
);
},
{
closed = 1;
nodes = (
(59,0,l),
(438,0,l),
(438,62,l),
(125,62,l),
(125,293,l),
(386,293,l),
(386,357,l),
(125,357,l),
(125,562,l),
(441,562,l),
(441,624,l),
(59,624,l)
);
}
);
width = 500;
}
);
note = uni1E16;
unicode = 7702;
},
{
glyphname = uni1E14;
layers = (
{
layerId = m01;
shapes = (
{
closed = 1;
nodes = (
(302,814,l),
(325,856,l),
(172,945,l),
(132,875,l)
);
},
{
closed = 1;
nodes = (
(132,731,l),
(386,731,l),
(386,787,l),
(132,787,l)
);
},
{
closed = 1;
nodes = (
(59,0,l),
(438,0,l),
(438,62,l),
(125,62,l),
(125,293,l),
(386,293,l),
(386,357,l),
(125,357,l),
(125,562,l),
(441,562,l),
(441,624,l),
(59,624,l)
);
}
);
width = 500;
}
);
note = uni1E14;
unicode = 7700;
},
{
glyphname = Eogonek;
layers = (
{
layerId = m01;
shapes = (
{
closed = 1;
nodes = (
(59,0,l),
(345,0,l),
(284,-42,o),
(251,-90,o),
(251,-137,cs),
(251,-188,o),
(297,-218,o),
(363,-227,c),
(379,-179,l),
(336,-173,o),
(317,-151,o),
(317,-123,cs),
(317,-87,o),
(348,-40,o),
(399,0,c),
(438,0,l),
(438,62,l),
(125,62,l),
(125,293,l),
(386,293,l),
(386,357,l),
(125,357,l),
(125,562,l),
(441,562,l),
(441,624,l),
(59,624,l)
);
}
);
width = 500;
}
);
note = Eogonek;
unicode = 280;
},
{
glyphname = uni1EBC;
layers = (
{
layerId = m01;
shapes = (
{
closed = 1;
nodes = (
(388,791,l),
(369,754,o),
(358,743,o),
(337,743,cs),
(289,743,o),
(266,797,o),
(207,797,cs),
(155,797,o),
(122,762,o),
(104,717,c),
(153,695,l),
(169,731,o),
(186,742,o),
(209,742,cs),
(254,742,o),
(281,688,o),
(341,688,cs),
(381,688,o),
(405,707,o),
(434,763,c)
);
},
{
closed = 1;
nodes = (
(59,0,l),
(438,0,l),
(438,62,l),
(125,62,l),
(125,293,l),
(386,293,l),
(386,357,l),
(125,357,l),
(125,562,l),
(441,562,l),
(441,624,l),
(59,624,l)
);
}
);
width = 500;
}
);
note = uni1EBC;
unicode = 7868;
},
{
glyphname = uni01B8;
layers = (
{
layerId = m01;
shapes = (
{
closed = 1;
nodes = (
(331,-11,o),
(386,13,o),
(429,60,c),
(387,114,l),
(353,73,o),
(332,49,o),
(275,49,cs),
(191,49,o),
(143,101,o),
(143,177,cs),
(143,284,o),
(220,326,o),
(338,320,c),
(338,372,l),
(166,560,l),
(393,560,l),
(393,623,l),
(88,623,l),
(88,560,l),
(264,372,l),
(149,367,o),
(71,278,o),
(71,172,cs),
(71,75,o),
(137,-11,o),
(268,-11,cs)
);
}
);
width = 500;
}
);
note = uni01B8;
unicode = 440;
},
{
glyphname = F;
layers = (
{
layerId = m01;
shapes = (
{
closed = 1;
nodes = (
(78,0,l),
(148,0,l),
(148,306,l),
(381,306,l),
(381,367,l),
(148,367,l),
(148,563,l),
(437,563,l),
(437,624,l),
(78,624,l)
);
}
);
width = 500;
}
);
note = F;
unicode = 70;
},
{
glyphname = G;
layers = (
{
layerId = m01;
shapes = (
{
closed = 1;
nodes = (
(340,-10,o),
(401,12,o),
(460,55,c),
(460,299,l),
(282,299,l),
(282,238,l),
(395,238,l),
(395,90,l),
(363,63,o),
(313,52,o),
(277,52,cs),
(171,52,o),
(105,146,o),
(105,319,cs),
(105,510,o),
(183,568,o),
(273,568,cs),
(333,568,o),
(365,542,o),
(408,485,c),
(458,525,l),
(423,588,o),
(348,629,o),
(274,630,cs),
(183,631,o),
(33,573,o),
(36,304,cs),
(36,115,o),
(128,-10,o),
(277,-10,cs)
);
}
);
width = 500;
}
);
note = G;
unicode = 71;
},
{
glyphname = Gbreve;
layers = (
{
layerId = m01;
shapes = (
{
closed = 1;
nodes = (
(364,787,l),
(342,740,o),
(314,719,o),
(274,719,cs),
(234,719,o),
(206,740,o),
(184,787,c),
(132,763,l),
(162,704,o),
(212,671,o),
(274,671,cs),
(336,671,o),
(386,704,o),
(416,763,c)
);
},
{
closed = 1;
nodes = (
(340,-10,o),
(401,12,o),
(460,55,c),
(460,299,l),
(282,299,l),
(282,238,l),
(395,238,l),
(395,90,l),
(363,63,o),
(313,52,o),
(277,52,cs),
(171,52,o),
(105,146,o),
(105,319,cs),
(105,510,o),
(183,568,o),
(273,568,cs),
(333,568,o),
(365,542,o),
(408,485,c),
(458,525,l),
(423,588,o),
(348,629,o),
(274,630,cs),
(183,631,o),
(33,573,o),
(36,304,cs),
(36,115,o),
(128,-10,o),
(277,-10,cs)
);
}
);
width = 500;
}
);
note = Gbreve;
unicode = 286;
},
{
glyphname = Gcaron;
layers = (
{
layerId = m01;
shapes = (
{
closed = 1;
nodes = (
(395,793,l),
(272,722,l),
(142,792,l),
(112,756,l),
(263,657,l),
(285,657,l),
(428,755,l)
);
},
{
closed = 1;
nodes = (
(340,-10,o),
(401,12,o),
(460,55,c),
(460,299,l),
(282,299,l),
(282,238,l),
(395,238,l),
(395,90,l),
(363,63,o),
(313,52,o),
(277,52,cs),
(171,52,o),
(105,146,o),
(105,319,cs),
(105,510,o),
(183,568,o),
(273,568,cs),
(333,568,o),
(365,542,o),
(408,485,c),
(458,525,l),
(423,588,o),
(348,629,o),
(274,630,cs),
(183,631,o),
(33,573,o),
(36,304,cs),
(36,115,o),
(128,-10,o),
(277,-10,cs)
);
}
);
width = 500;
}
);
note = Gcaron;
unicode = 486;
},
{
glyphname = Gcircumflex;
layers = (
{
layerId = m01;
shapes = (
{
closed = 1;
nodes = (
(149,655,l),
(272,726,l),
(402,656,l),
(432,692,l),
(281,791,l),
(259,791,l),
(116,693,l)
);
},
{
closed = 1;
nodes = (
(340,-10,o),
(401,12,o),
(460,55,c),
(460,299,l),
(282,299,l),
(282,238,l),
(395,238,l),
(395,90,l),
(363,63,o),
(313,52,o),
(277,52,cs),
(171,52,o),
(105,146,o),
(105,319,cs),
(105,510,o),
(183,568,o),
(273,568,cs),
(333,568,o),
(365,542,o),
(408,485,c),
(458,525,l),
(423,588,o),
(348,629,o),
(274,630,cs),
(183,631,o),
(33,573,o),
(36,304,cs),
(36,115,o),
(128,-10,o),
(277,-10,cs)
);
}
);
width = 500;
}
);
note = Gcircumflex;
unicode = 284;
},
{
glyphname = uni0122;
layers = (
{
layerId = m01;
shapes = (
{
closed = 1;
nodes = (
(340,-10,o),
(401,12,o),
(460,55,c),
(460,299,l),
(282,299,l),
(282,238,l),
(395,238,l),
(395,90,l),
(363,63,o),
(313,52,o),
(277,52,cs),
(171,52,o),
(105,146,o),
(105,319,cs),
(105,510,o),
(183,568,o),
(273,568,cs),
(333,568,o),
(365,542,o),
(408,485,c),
(458,525,l),
(423,588,o),
(348,629,o),
(274,630,cs),
(183,631,o),
(33,573,o),
(36,304,cs),
(36,115,o),
(128,-10,o),
(277,-10,cs)
);
},
{
closed = 1;
nodes = (
(237,-275,l),
(301,-209,o),
(333,-154,o),
(333,-106,cs),
(333,-62,o),
(304,-31,o),
(272,-31,cs),
(241,-31,o),
(219,-55,o),
(219,-84,cs),
(219,-117,o),
(265,-129,o),
(265,-154,cs),
(265,-176,o),
(240,-217,o),
(207,-248,c)
);
}
);
width = 500;
}
);
note = uni0122;
unicode = 290;
},
{
glyphname = Gdotaccent;
layers = (
{
layerId = m01;
shapes = (
{
closed = 1;
nodes = (
(300,693,o),
(324,716,o),
(324,744,cs),
(324,772,o),
(300,796,o),
(272,796,cs),
(243,796,o),
(221,773,o),
(221,744,cs),
(221,716,o),
(244,693,o),
(272,693,cs)
);
},
{
closed = 1;
nodes = (
(340,-10,o),
(401,12,o),
(460,55,c),
(460,299,l),
(282,299,l),
(282,238,l),
(395,238,l),
(395,90,l),
(363,63,o),
(313,52,o),
(277,52,cs),
(171,52,o),
(105,146,o),
(105,319,cs),
(105,510,o),
(183,568,o),
(273,568,cs),
(333,568,o),
(365,542,o),
(408,485,c),
(458,525,l),
(423,588,o),
(348,629,o),
(274,630,cs),
(183,631,o),
(33,573,o),
(36,304,cs),
(36,115,o),
(128,-10,o),
(277,-10,cs)
);
}
);
width = 500;
}
);
note = Gdotaccent;
unicode = 288;
},
{
glyphname = uni1E20;
layers = (
{
layerId = m01;
shapes = (
{
closed = 1;
nodes = (
(147,731,l),
(401,731,l),
(401,787,l),
(147,787,l)
);
},
{
closed = 1;
nodes = (
(340,-10,o),
(401,12,o),
(460,55,c),
(460,299,l),
(282,299,l),
(282,238,l),
(395,238,l),
(395,90,l),
(363,63,o),
(313,52,o),
(277,52,cs),
(171,52,o),
(105,146,o),
(105,319,cs),
(105,510,o),
(183,568,o),
(273,568,cs),
(333,568,o),
(365,542,o),
(408,485,c),
(458,525,l),
(423,588,o),
(348,629,o),
(274,630,cs),
(183,631,o),
(33,573,o),
(36,304,cs),
(36,115,o),
(128,-10,o),
(277,-10,cs)
);
}
);
width = 500;
}
);
note = uni1E20;
unicode = 7712;
},
{
glyphname = H;
layers = (
{
layerId = m01;
shapes = (
{
closed = 1;
nodes = (
(50,0,l),
(123,0,l),
(123,297,l),
(366,297,l),
(366,0,l),
(440,0,l),
(440,623,l),
(367,623,l),
(367,357,l),
(123,357,l),
(123,623,l),
(50,623,l)
);
}
);
width = 500;
}
);
note = H;
unicode = 72;
},
{
glyphname = Hbar;
layers = (
{
layerId = m01;
shapes = (
{
closed = 1;
nodes = (
(50,0,l),
(123,0,l),
(123,297,l),
(366,297,l),
(366,0,l),
(440,0,l),
(440,498,l),
(487,498,l),
(487,553,l),
(440,553,l),
(440,623,l),
(367,623,l),
(367,553,l),
(123,553,l),
(123,623,l),
(50,623,l),
(50,553,l),
(7,553,l),
(7,498,l),
(50,498,l)
);
},
{
closed = 1;
nodes = (
(123,357,l),
(123,498,l),
(367,498,l),
(367,357,l)
);
}
);
width = 500;
}
);
note = Hbar;
unicode = 294;
},
{
glyphname = uni1E2A;
layers = (
{
layerId = m01;
shapes = (
{
closed = 1;
nodes = (
(50,0,l),
(123,0,l),
(123,297,l),
(366,297,l),
(366,0,l),
(440,0,l),
(440,623,l),
(367,623,l),
(367,357,l),
(123,357,l),
(123,623,l),
(50,623,l)
);
},
{
closed = 1;
nodes = (
(350,-59,l),
(328,-106,o),
(300,-127,o),
(260,-127,cs),
(220,-127,o),
(192,-106,o),
(170,-59,c),
(118,-83,l),
(148,-142,o),
(198,-175,o),
(260,-175,cs),
(322,-175,o),
(372,-142,o),
(402,-83,c)
);
}
);
width = 500;
}
);
note = uni1E2A;
unicode = 7722;
},
{
glyphname = Hcircumflex;
layers = (
{
layerId = m01;
shapes = (
{
closed = 1;
nodes = (
(125,655,l),
(248,726,l),
(378,656,l),
(408,692,l),
(257,791,l),
(235,791,l),
(92,693,l)
);
},
{
closed = 1;
nodes = (
(50,0,l),
(123,0,l),
(123,297,l),
(366,297,l),
(366,0,l),
(440,0,l),
(440,623,l),
(367,623,l),
(367,357,l),
(123,357,l),
(123,623,l),
(50,623,l)
);
}
);
width = 500;
}
);
note = Hcircumflex;
unicode = 292;
},
{
glyphname = uni1E24;
layers = (
{
layerId = m01;
shapes = (
{
closed = 1;
nodes = (
(50,0,l),
(123,0,l),
(123,297,l),
(366,297,l),
(366,0,l),
(440,0,l),
(440,623,l),
(367,623,l),
(367,357,l),
(123,357,l),
(123,623,l),
(50,623,l)
);
},
{
closed = 1;
nodes = (
(277,-147,o),
(301,-124,o),
(301,-96,cs),
(301,-68,o),
(277,-44,o),
(249,-44,cs),
(220,-44,o),
(198,-67,o),
(198,-96,cs),
(198,-124,o),
(221,-147,o),
(249,-147,cs)
);
}
);
width = 500;
}
);
note = uni1E24;
unicode = 7716;
},
{
glyphname = I;
layers = (
{
layerId = m01;
shapes = (
{
closed = 1;
nodes = (
(81,0,l),
(403,0,l),
(403,58,l),
(274,58,l),
(274,564,l),
(397,564,l),
(397,623,l),
(88,623,l),
(88,564,l),
(204,564,l),
(204,59,l),
(81,59,l)
);
}
);
width = 500;
}
);
note = I;
unicode = 73;
},
{
glyphname = Iacute;
layers = (
{
layerId = m01;
shapes = (
{
closed = 1;
nodes = (
(166,660,l),
(335,721,l),
(295,791,l),
(143,702,l)
);
},
{
closed = 1;
nodes = (
(81,0,l),
(403,0,l),
(403,58,l),
(274,58,l),
(274,564,l),
(397,564,l),
(397,623,l),
(88,623,l),
(88,564,l),
(204,564,l),
(204,59,l),
(81,59,l)
);
}
);
width = 500;
}
);
note = Iacute;
unicode = 205;
},
{
glyphname = Ibreve;
layers = (
{
layerId = m01;
shapes = (
{
closed = 1;
nodes = (
(329,787,l),
(307,740,o),
(279,719,o),
(239,719,cs),
(199,719,o),
(171,740,o),
(149,787,c),
(97,763,l),
(127,704,o),
(177,671,o),
(239,671,cs),
(301,671,o),
(351,704,o),
(381,763,c)
);
},
{
closed = 1;
nodes = (
(81,0,l),
(403,0,l),
(403,58,l),
(274,58,l),
(274,564,l),
(397,564,l),
(397,623,l),
(88,623,l),
(88,564,l),
(204,564,l),
(204,59,l),
(81,59,l)
);
}
);
width = 500;
}
);
note = Ibreve;
unicode = 300;
},
{
glyphname = Icircumflex;
layers = (
{
layerId = m01;
shapes = (
{
closed = 1;
nodes = (
(114,655,l),
(237,726,l),
(367,656,l),
(397,692,l),
(246,791,l),
(224,791,l),
(81,693,l)
);
},
{
closed = 1;
nodes = (
(81,0,l),
(403,0,l),
(403,58,l),
(274,58,l),
(274,564,l),
(397,564,l),
(397,623,l),
(88,623,l),
(88,564,l),
(204,564,l),
(204,59,l),
(81,59,l)
);
}
);
width = 500;
}
);
note = Icircumflex;
unicode = 206;
},
{
glyphname = uni0208;
layers = (
{
layerId = m01;
shapes = (
{
closed = 1;
nodes = (
(164,673,l),
(202,699,l),
(118,848,l),
(63,808,l)
);
},
{
closed = 1;
nodes = (
(324,673,l),
(362,699,l),
(278,848,l),
(223,808,l)
);
},
{
closed = 1;
nodes = (
(81,0,l),
(403,0,l),
(403,58,l),
(274,58,l),
(274,564,l),
(397,564,l),
(397,623,l),
(88,623,l),
(88,564,l),
(204,564,l),
(204,59,l),
(81,59,l)
);
}
);
width = 500;
}
);
note = uni0208;
unicode = 520;
},
{
glyphname = Idieresis;
layers = (
{
layerId = m01;
shapes = (
{
closed = 1;
nodes = (
(177,688,o),
(200,711,o),
(200,738,cs),
(200,766,o),
(177,789,o),
(149,789,cs),
(122,789,o),
(99,765,o),
(99,738,cs),
(99,711,o),
(122,688,o),
(149,688,cs)
);
},
{
closed = 1;
nodes = (
(355,688,o),
(378,711,o),
(378,738,cs),
(378,766,o),
(355,789,o),
(327,789,cs),
(300,789,o),
(278,766,o),
(278,738,cs),
(278,710,o),
(300,688,o),
(327,688,cs)
);
},
{
closed = 1;
nodes = (
(81,0,l),
(403,0,l),
(403,58,l),
(274,58,l),
(274,564,l),
(397,564,l),
(397,623,l),
(88,623,l),
(88,564,l),
(204,564,l),
(204,59,l),
(81,59,l)
);
}
);
width = 500;
}
);
note = Idieresis;
unicode = 207;
},
{
glyphname = uni1E2E;
layers = (
{
layerId = m01;
shapes = (
{
closed = 1;
nodes = (
(164,802,l),
(333,863,l),
(293,933,l),
(141,844,l)
);
},
{
closed = 1;
nodes = (
(177,688,o),
(200,711,o),
(200,738,cs),
(200,766,o),
(177,789,o),
(149,789,cs),
(122,789,o),
(99,765,o),
(99,738,cs),
(99,711,o),
(122,688,o),
(149,688,cs)
);
},
{
closed = 1;
nodes = (
(355,688,o),
(378,711,o),
(378,738,cs),
(378,766,o),
(355,789,o),
(327,789,cs),
(300,789,o),
(278,766,o),
(278,738,cs),
(278,710,o),
(300,688,o),
(327,688,cs)
);
},
{
closed = 1;
nodes = (
(81,0,l),
(403,0,l),
(403,58,l),
(274,58,l),
(274,564,l),
(397,564,l),
(397,623,l),
(88,623,l),
(88,564,l),
(204,564,l),
(204,59,l),
(81,59,l)
);
}
);
width = 500;
}
);
note = uni1E2E;
unicode = 7726;
},
{
glyphname = Idotaccent;
layers = (
{
layerId = m01;
shapes = (
{
closed = 1;
nodes = (
(265,693,o),
(289,716,o),
(289,744,cs),
(289,772,o),
(265,796,o),
(237,796,cs),
(208,796,o),
(186,773,o),
(186,744,cs),
(186,716,o),
(209,693,o),
(237,693,cs)
);
},
{
closed = 1;
nodes = (
(81,0,l),
(403,0,l),
(403,58,l),
(274,58,l),
(274,564,l),
(397,564,l),
(397,623,l),
(88,623,l),
(88,564,l),
(204,564,l),
(204,59,l),
(81,59,l)
);
}
);
width = 500;
}
);
note = Idotaccent;
unicode = 304;
},
{
glyphname = uni1ECA;
layers = (
{
layerId = m01;
shapes = (
{
closed = 1;
nodes = (
(81,0,l),
(403,0,l),
(403,58,l),
(274,58,l),
(274,564,l),
(397,564,l),
(397,623,l),
(88,623,l),
(88,564,l),
(204,564,l),
(204,59,l),
(81,59,l)
);
},
{
closed = 1;
nodes = (
(277,-147,o),
(301,-124,o),
(301,-96,cs),
(301,-68,o),
(277,-44,o),
(249,-44,cs),
(220,-44,o),
(198,-67,o),
(198,-96,cs),
(198,-124,o),
(221,-147,o),
(249,-147,cs)
);
}
);
width = 500;
}
);
note = uni1ECA;
unicode = 7882;
},
{
glyphname = Igrave;
layers = (
{
layerId = m01;
shapes = (
{
closed = 1;
nodes = (
(282,660,l),
(305,702,l),
(152,791,l),
(112,721,l)
);
},
{
closed = 1;
nodes = (
(81,0,l),
(403,0,l),
(403,58,l),
(274,58,l),
(274,564,l),
(397,564,l),
(397,623,l),
(88,623,l),
(88,564,l),
(204,564,l),
(204,59,l),
(81,59,l)
);
}
);
width = 500;
}
);
note = Igrave;
unicode = 204;
},
{
glyphname = uni1EC8;
layers = (
{
layerId = m01;
shapes = (
{
closed = 1;
nodes = (
(324,842,o),
(287,870,o),
(243,870,cs),
(207,870,o),
(181,858,o),
(157,828,c),
(194,790,l),
(202,816,o),
(221,822,o),
(238,822,cs),
(255,822,o),
(269,812,o),
(269,794,cs),
(269,770,o),
(217,751,o),
(217,717,cs),
(217,689,l),
(268,689,l),
(268,696,ls),
(268,746,o),
(324,740,o),
(324,796,cs)
);
},
{
closed = 1;
nodes = (
(81,0,l),
(403,0,l),
(403,58,l),
(274,58,l),
(274,564,l),
(397,564,l),
(397,623,l),
(88,623,l),
(88,564,l),
(204,564,l),
(204,59,l),
(81,59,l)
);
}
);
width = 500;
}
);
note = uni1EC8;
unicode = 7880;
},
{
glyphname = uni020A;
layers = (
{
layerId = m01;
shapes = (
{
closed = 1;
nodes = (
(148,694,l),
(170,741,o),
(198,762,o),
(238,762,cs),
(278,762,o),
(306,741,o),
(328,694,c),
(380,718,l),
(350,777,o),
(300,810,o),
(238,810,cs),
(176,810,o),
(126,777,o),
(96,718,c)
);
},
{
closed = 1;
nodes = (
(81,0,l),
(403,0,l),
(403,58,l),
(274,58,l),
(274,564,l),
(397,564,l),
(397,623,l),
(88,623,l),
(88,564,l),
(204,564,l),
(204,59,l),
(81,59,l)
);
}
);
width = 500;
}
);
note = uni020A;
unicode = 522;
},
{
glyphname = Imacron;
layers = (
{
layerId = m01;
shapes = (
{
closed = 1;
nodes = (
(112,731,l),
(366,731,l),
(366,787,l),
(112,787,l)
);
},
{
closed = 1;
nodes = (
(81,0,l),
(403,0,l),
(403,58,l),
(274,58,l),
(274,564,l),
(397,564,l),
(397,623,l),
(88,623,l),
(88,564,l),
(204,564,l),
(204,59,l),
(81,59,l)
);
}
);
width = 500;
}
);
note = Imacron;
unicode = 298;
},
{
glyphname = Iogonek;
layers = (
{
layerId = m01;
shapes = (
{
closed = 1;
nodes = (
(81,0,l),
(349,0,l),
(288,-42,o),
(255,-90,o),
(255,-137,cs),
(255,-188,o),
(301,-218,o),
(367,-227,c),
(383,-179,l),
(340,-173,o),
(321,-151,o),
(321,-123,cs),
(321,-87,o),
(352,-40,o),
(403,0,c),
(403,58,l),
(274,58,l),
(274,564,l),
(397,564,l),
(397,623,l),
(88,623,l),
(88,564,l),
(204,564,l),
(204,59,l),
(81,59,l)
);
}
);
width = 500;
}
);
note = Iogonek;
unicode = 302;
},
{
glyphname = Itilde;
layers = (
{
layerId = m01;
shapes = (
{
closed = 1;
nodes = (
(364,843,l),
(345,806,o),
(334,795,o),
(313,795,cs),
(265,795,o),
(242,849,o),
(183,849,cs),
(131,849,o),
(98,814,o),
(80,769,c),
(129,747,l),
(145,783,o),
(162,794,o),
(185,794,cs),
(230,794,o),
(257,740,o),
(317,740,cs),
(357,740,o),
(381,759,o),
(410,815,c)
);
},
{
closed = 1;
nodes = (
(81,0,l),
(403,0,l),
(403,58,l),
(274,58,l),
(274,564,l),
(397,564,l),
(397,623,l),
(88,623,l),
(88,564,l),
(204,564,l),
(204,59,l),
(81,59,l)
);
}
);
width = 500;
}
);
note = Itilde;
unicode = 296;
},
{
glyphname = J;
layers = (
{
layerId = m01;
shapes = (
{
closed = 1;
nodes = (
(283,-12,o),
(366,49,o),
(361,209,c),
(361,564,l),
(457,564,l),
(457,623,l),
(172,623,l),
(172,564,l),
(292,564,l),
(292,208,ls),
(292,92,o),
(263,51,o),
(196,51,cs),
(154,51,o),
(125,70,o),
(90,109,c),
(49,58,l),
(88,12,o),
(137,-11,o),
(196,-11,cs)
);
}
);
width = 500;
}
);
note = J;
unicode = 74;
},
{
glyphname = Jcircumflex;
layers = (
{
layerId = m01;
shapes = (
{
closed = 1;
nodes = (
(205,655,l),
(328,726,l),
(458,656,l),
(488,692,l),
(337,791,l),
(315,791,l),
(172,693,l)
);
},
{
closed = 1;
nodes = (
(283,-12,o),
(366,49,o),
(361,209,c),
(361,564,l),
(457,564,l),
(457,623,l),
(172,623,l),
(172,564,l),
(292,564,l),
(292,208,ls),
(292,92,o),
(263,51,o),
(196,51,cs),
(154,51,o),
(125,70,o),
(90,109,c),
(49,58,l),
(88,12,o),
(137,-11,o),
(196,-11,cs)
);
}
);
width = 500;
}
);
note = Jcircumflex;
unicode = 308;
},
{
glyphname = K;
layers = (
{
layerId = m01;
shapes = (
{
closed = 1;
nodes = (
(381,-4,l),
(471,0,l),
(219,354,l),
(455,623,l),
(429,623,ls),
(409,623,o),
(392,625,o),
(377,628,c),
(117,336,l),
(117,623,l),
(42,623,l),
(42,0,l),
(117,0,l),
(117,258,l),
(166,312,l)
);
}
);
width = 500;
}
);
note = K;
unicode = 75;
},
{
glyphname = uni0136;
layers = (
{
layerId = m01;
shapes = (
{
closed = 1;
nodes = (
(381,-4,l),
(471,0,l),
(219,354,l),
(455,623,l),
(429,623,ls),
(409,623,o),
(392,625,o),
(377,628,c),
(117,336,l),
(117,623,l),
(42,623,l),
(42,0,l),
(117,0,l),
(117,258,l),
(166,312,l)
);
},
{
closed = 1;
nodes = (
(207,-275,l),
(271,-209,o),
(303,-154,o),
(303,-106,cs),
(303,-62,o),
(274,-31,o),
(242,-31,cs),
(211,-31,o),
(189,-55,o),
(189,-84,cs),
(189,-117,o),
(235,-129,o),
(235,-154,cs),
(235,-176,o),
(210,-217,o),
(177,-248,c)
);
}
);
width = 500;
}
);
note = uni0136;
unicode = 310;
},
{
glyphname = uni0198;
lastChange = "2022-09-06 02:10:59 +0000";
layers = (
{
layerId = m01;
shapes = (
{
closed = 1;
nodes = (
(42,0,l),
(117,0,l),
(117,238,l),
(134,264,o),
(151,289,o),
(166,311,c),
(381,-4,l),
(471,0,l),
(208,370,l),
(336,542,o),
(389,556,o),
(418,556,cs),
(443,556,o),
(449,554,o),
(465,550,c),
(466,623,l),
(455,626,o),
(443,627,o),
(431,627,cs),
(346,627,o),
(246,551,o),
(117,326,c),
(117,623,l),
(42,623,l)
);
}
);
width = 500;
}
);
note = uni0198;
unicode = (408,409);
},
{
glyphname = L;
layers = (
{
layerId = m01;
shapes = (
{
closed = 1;
nodes = (
(66,0,l),
(439,0,l),
(439,60,l),
(139,60,l),
(139,623,l),
(66,623,l)
);
}
);
width = 500;
}
);
note = L;
unicode = 76;
},
{
glyphname = uni01C7;
layers = (
{
layerId = m01;
shapes = (
{
closed = 1;
nodes = (
(373,-151,o),
(456,-91,o),
(451,69,c),
(451,623,l),
(252,623,l),
(252,564,l),
(382,564,l),
(382,68,ls),
(382,-48,o),
(348,-89,o),
(285,-89,cs),
(245,-89,o),
(215,-70,o),
(205,-57,cs),
(193,-44,o),
(198,-34,o),
(186,-25,c),
(139,-82,l),
(178,-128,o),
(227,-151,o),
(286,-151,cs)
);
},
{
closed = 1;
nodes = (
(66,0,l),
(309,0,l),
(309,61,l),
(139,61,l),
(139,589,ls),
(139,620,o),
(148,609,o),
(148,623,c),
(66,623,l)
);
}
);
width = 500;
}
);
note = uni01C7;
unicode = 455;
},
{
glyphname = Lacute;
layers = (
{
layerId = m01;
shapes = (
{
closed = 1;
nodes = (
(127,660,l),
(296,721,l),
(256,791,l),
(104,702,l)
);
},
{
closed = 1;
nodes = (
(66,0,l),
(439,0,l),
(439,60,l),
(139,60,l),
(139,623,l),
(66,623,l)
);
}
);
width = 500;
}
);
note = Lacute;
unicode = 313;
},
{
glyphname = Lcaron;
layers = (
{
layerId = m01;
shapes = (
{
closed = 1;
nodes = (
(339,411,l),
(396,468,o),
(424,518,o),
(424,562,cs),
(424,601,o),
(398,628,o),
(370,628,cs),
(342,628,o),
(322,608,o),
(322,581,cs),
(322,554,o),
(363,541,o),
(363,519,cs),
(363,500,o),
(342,463,o),
(311,435,c)
);
},
{
closed = 1;
nodes = (
(66,0,l),
(439,0,l),
(439,60,l),
(139,60,l),
(139,623,l),
(66,623,l)
);
}
);
width = 500;
}
);
note = Lcaron;
unicode = 317;
},
{
glyphname = uni013B;
layers = (
{
layerId = m01;
shapes = (
{
closed = 1;
nodes = (
(66,0,l),
(439,0,l),
(439,60,l),
(139,60,l),
(139,623,l),
(66,623,l)
);
},
{
closed = 1;
nodes = (
(221,-275,l),
(285,-209,o),
(317,-154,o),
(317,-106,cs),
(317,-62,o),
(288,-31,o),
(256,-31,cs),
(225,-31,o),
(203,-55,o),
(203,-84,cs),
(203,-117,o),
(249,-129,o),
(249,-154,cs),
(249,-176,o),
(224,-217,o),
(191,-248,c)
);
}
);
width = 500;
}
);
note = uni013B;
unicode = 315;
},
{
glyphname = Ldot;
layers = (
{
layerId = m01;
shapes = (
{
closed = 1;
nodes = (
(66,0,l),
(439,0,l),
(439,60,l),
(139,60,l),
(139,623,l),
(66,623,l)
);
},
{
closed = 1;
nodes = (
(331,274,o),
(358,300,o),
(358,331,cs),
(358,363,o),
(328,388,o),
(298,388,cs),
(267,388,o),
(239,363,o),
(239,331,cs),
(239,299,o),
(265,274,o),
(298,274,cs)
);
}
);
width = 500;
}
);
note = Ldot;
unicode = 319;
},
{
glyphname = uni1E36;
layers = (
{
layerId = m01;
shapes = (
{
closed = 1;
nodes = (
(66,0,l),
(439,0,l),
(439,60,l),
(139,60,l),
(139,623,l),
(66,623,l)
);
},
{
closed = 1;
nodes = (
(277,-147,o),
(301,-124,o),
(301,-96,cs),
(301,-68,o),
(277,-44,o),
(249,-44,cs),
(220,-44,o),
(198,-67,o),
(198,-96,cs),
(198,-124,o),
(221,-147,o),
(249,-147,cs)
);
}
);
width = 500;
}
);
note = uni1E36;
unicode = 7734;
},
{
glyphname = uni01C8;
layers = (
{
layerId = m01;
shapes = (
{
closed = 1;
nodes = (
(411,552,o),
(435,575,o),
(435,603,cs),
(435,631,o),
(411,655,o),
(383,655,cs),
(354,655,o),
(332,632,o),
(332,603,cs),
(332,575,o),
(355,552,o),
(383,552,cs)
);
},
{
closed = 1;
nodes = (
(66,0,l),
(299,0,l),
(299,61,l),
(139,61,l),
(139,589,ls),
(139,601,o),
(148,609,o),
(148,623,c),
(66,623,l)
);
},
{
closed = 1;
nodes = (
(349,-169,o),
(429,-117,o),
(429,22,cs),
(429,457,l),
(216,457,l),
(216,398,l),
(356,398,l),
(356,18,ls),
(356,-74,o),
(313,-112,o),
(253,-112,cs),
(236,-112,o),
(221,-108,o),
(206,-101,cs),
(156,-78,o),
(169,-62,o),
(155,-48,c),
(108,-110,l),
(143,-153,o),
(189,-174,o),
(248,-174,cs)
);
}
);
width = 500;
}
);
note = uni01C8;
unicode = 456;
},
{
glyphname = uni1E3A;
layers = (
{
layerId = m01;
shapes = (
{
closed = 1;
nodes = (
(66,0,l),
(439,0,l),
(439,60,l),
(139,60,l),
(139,623,l),
(66,623,l)
);
},
{
closed = 1;
nodes = (
(125,-155,l),
(379,-155,l),
(379,-99,l),
(125,-99,l)
);
}
);
width = 500;
}
);
note = uni1E3A;
unicode = 7738;
},
{
glyphname = Lslash;
layers = (
{
layerId = m01;
shapes = (
{
closed = 1;
nodes = (
(73,0,l),
(446,0,l),
(446,60,l),
(146,60,l),
(146,267,l),
(337,328,l),
(337,392,l),
(332,389,o),
(323,386,o),
(312,382,cs),
(146,328,l),
(146,589,l),
(149,614,o),
(156,616,o),
(156,621,cs),
(156,622,o),
(155,623,o),
(154,623,cs),
(73,623,l),
(73,305,l),
(20,287,l),
(20,226,l),
(73,243,l)
);
}
);
width = 500;
}
);
note = Lslash;
unicode = 321;
},
{
glyphname = M;
layers = (
{
layerId = m01;
shapes = (
{
closed = 1;
nodes = (
(41,0,l),
(106,0,l),
(106,467,l),
(232,219,l),
(259,219,l),
(394,470,l),
(394,0,l),
(460,0,l),
(460,624,l),
(407,624,l),
(250,318,l),
(96,623,l),
(41,623,l)
);
}
);
width = 500;
}
);
note = M;
unicode = 77;
},
{
glyphname = uni1E42;
layers = (
{
layerId = m01;
shapes = (
{
closed = 1;
nodes = (
(41,0,l),
(106,0,l),
(106,467,l),
(232,219,l),
(259,219,l),
(394,470,l),
(394,0,l),
(460,0,l),
(460,624,l),
(407,624,l),
(250,318,l),
(96,623,l),
(41,623,l)
);
},
{
closed = 1;
nodes = (
(277,-147,o),
(301,-124,o),
(301,-96,cs),
(301,-68,o),
(277,-44,o),
(249,-44,cs),
(220,-44,o),
(198,-67,o),
(198,-96,cs),
(198,-124,o),
(221,-147,o),
(249,-147,cs)
);
}
);
width = 500;
}
);
note = uni1E42;
unicode = 7746;
},
{
glyphname = N;
layers = (
{
layerId = m01;
shapes = (
{
closed = 1;
nodes = (
(50,0,l),
(117,0,l),
(117,490,l),
(392,0,l),
(447,0,l),
(447,623,l),
(380,623,l),
(380,161,l),
(118,623,l),
(50,623,l)
);
}
);
width = 500;
}
);
note = N;
unicode = 78;
},
{
glyphname = Nacute;
layers = (
{
layerId = m01;
shapes = (
{
closed = 1;
nodes = (
(177,660,l),
(346,721,l),
(306,791,l),
(154,702,l)
);
},
{
closed = 1;
nodes = (
(50,0,l),
(117,0,l),
(117,490,l),
(392,0,l),
(447,0,l),
(447,623,l),
(380,623,l),
(380,161,l),
(118,623,l),
(50,623,l)
);
}
);
width = 500;
}
);
note = Nacute;
unicode = 323;
},
{
glyphname = Ncaron;
layers = (
{
layerId = m01;
shapes = (
{
closed = 1;
nodes = (
(371,793,l),
(248,722,l),
(118,792,l),
(88,756,l),
(239,657,l),
(261,657,l),
(404,755,l)
);
},
{
closed = 1;
nodes = (
(50,0,l),
(117,0,l),
(117,490,l),
(392,0,l),
(447,0,l),
(447,623,l),
(380,623,l),
(380,161,l),
(118,623,l),
(50,623,l)
);
}
);
width = 500;
}
);
note = Ncaron;
unicode = 327;
},
{
glyphname = uni0145;
layers = (
{
layerId = m01;
shapes = (
{
closed = 1;
nodes = (
(50,0,l),
(117,0,l),
(117,490,l),
(392,0,l),
(447,0,l),
(447,623,l),
(380,623,l),
(380,161,l),
(118,623,l),
(50,623,l)
);
},
{
closed = 1;
nodes = (
(221,-275,l),
(285,-209,o),
(317,-154,o),
(317,-106,cs),
(317,-62,o),
(288,-31,o),
(256,-31,cs),
(225,-31,o),
(203,-55,o),
(203,-84,cs),
(203,-117,o),
(249,-129,o),
(249,-154,cs),
(249,-176,o),
(224,-217,o),
(191,-248,c)
);
}
);
width = 500;
}
);
note = uni0145;
unicode = 325;
},
{
glyphname = uni1E44;
layers = (
{
layerId = m01;
shapes = (
{
closed = 1;
nodes = (
(276,693,o),
(300,716,o),
(300,744,cs),
(300,772,o),
(276,796,o),
(248,796,cs),
(219,796,o),
(197,773,o),
(197,744,cs),
(197,716,o),
(220,693,o),
(248,693,cs)
);
},
{
closed = 1;
nodes = (
(50,0,l),
(117,0,l),
(117,490,l),
(392,0,l),
(447,0,l),
(447,623,l),
(380,623,l),
(380,161,l),
(118,623,l),
(50,623,l)
);
}
);
width = 500;
}
);
note = uni1E44;
unicode = 7748;
},
{
glyphname = uni1E46;
layers = (
{
layerId = m01;
shapes = (
{
closed = 1;
nodes = (
(50,0,l),
(117,0,l),
(117,490,l),
(392,0,l),
(447,0,l),
(447,623,l),
(380,623,l),
(380,161,l),
(118,623,l),
(50,623,l)
);
},
{
closed = 1;
nodes = (
(277,-147,o),
(301,-124,o),
(301,-96,cs),
(301,-68,o),
(277,-44,o),
(249,-44,cs),
(220,-44,o),
(198,-67,o),
(198,-96,cs),
(198,-124,o),
(221,-147,o),
(249,-147,cs)
);
}
);
width = 500;
}
);
note = uni1E46;
unicode = 7750;
},
{
glyphname = Eng;
layers = (
{
layerId = m01;
shapes = (
{
closed = 1;
nodes = (
(380,623,l),
(380,161,l),
(118,623,l),
(50,623,l),
(50,0,l),
(117,0,l),
(117,490,l),
(380,22,l),
(378,-77,o),
(360,-122,o),
(298,-122,cs),
(255,-122,o),
(261,-104,o),
(243,-98,c),
(208,-160,l),
(235,-177,o),
(264,-185,o),
(295,-185,cs),
(388,-185,o),
(447,-124,o),
(447,0,cs),
(447,596,ls),
(447,610,o),
(454,615,o),
(454,623,c)
);
}
);
width = 500;
}
);
note = Eng;
unicode = 330;
},
{
glyphname = uni1E48;
layers = (
{
layerId = m01;
shapes = (
{
closed = 1;
nodes = (
(50,0,l),
(117,0,l),
(117,490,l),
(392,0,l),
(447,0,l),
(447,623,l),
(380,623,l),
(380,161,l),
(118,623,l),
(50,623,l)
);
},
{
closed = 1;
nodes = (
(125,-155,l),
(379,-155,l),
(379,-99,l),
(125,-99,l)
);
}
);
width = 500;
}
);
note = uni1E48;
unicode = 7752;
},
{
glyphname = Ntilde;
layers = (
{
layerId = m01;
shapes = (
{
closed = 1;
nodes = (
(379,791,l),
(360,754,o),
(349,743,o),
(328,743,cs),
(280,743,o),
(257,797,o),
(198,797,cs),
(146,797,o),
(113,762,o),
(95,717,c),
(144,695,l),
(160,731,o),
(177,742,o),
(200,742,cs),
(245,742,o),
(272,688,o),
(332,688,cs),
(372,688,o),
(396,707,o),
(425,763,c)
);
},
{
closed = 1;
nodes = (
(50,0,l),
(117,0,l),
(117,490,l),
(392,0,l),
(447,0,l),
(447,623,l),
(380,623,l),
(380,161,l),
(118,623,l),
(50,623,l)
);
}
);
width = 500;
}
);
note = Ntilde;
unicode = 209;
},
{
glyphname = O;
layers = (
{
layerId = m01;
shapes = (
{
closed = 1;
nodes = (
(393,-11,o),
(473,104,o),
(473,308,cs),
(473,505,o),
(393,627,o),
(250,627,cs),
(107,627,o),
(27,505,o),
(27,308,cs),
(27,104,o),
(107,-11,o),
(250,-11,cs)
);
},
{
closed = 1;
nodes = (
(155,50,o),
(99,142,o),
(99,308,cs),
(99,465,o),
(155,566,o),
(250,566,cs),
(345,566,o),
(401,465,o),
(401,308,cs),
(401,142,o),
(345,50,o),
(250,50,cs)
);
}
);
width = 500;
}
);
note = O;
unicode = 79;
},
{
glyphname = Oacute;
layers = (
{
layerId = m01;
shapes = (
{
closed = 1;
nodes = (
(177,660,l),
(346,721,l),
(306,791,l),
(154,702,l)
);
},
{
closed = 1;
nodes = (
(393,-11,o),
(473,104,o),
(473,308,cs),
(473,505,o),
(393,627,o),
(250,627,cs),
(107,627,o),
(27,505,o),
(27,308,cs),
(27,104,o),
(107,-11,o),
(250,-11,cs)
);
},
{
closed = 1;
nodes = (
(155,50,o),
(99,142,o),
(99,308,cs),
(99,465,o),
(155,566,o),
(250,566,cs),
(345,566,o),
(401,465,o),
(401,308,cs),
(401,142,o),
(345,50,o),
(250,50,cs)
);
}
);
width = 500;
}
);
note = Oacute;
unicode = 211;
},
{
glyphname = Obreve;
layers = (
{
layerId = m01;
shapes = (
{
closed = 1;
nodes = (
(340,787,l),
(318,740,o),
(290,719,o),
(250,719,cs),
(210,719,o),
(182,740,o),
(160,787,c),
(108,763,l),
(138,704,o),
(188,671,o),
(250,671,cs),
(312,671,o),
(362,704,o),
(392,763,c)
);
},
{
closed = 1;
nodes = (
(393,-11,o),
(473,104,o),
(473,308,cs),
(473,505,o),
(393,627,o),
(250,627,cs),
(107,627,o),
(27,505,o),
(27,308,cs),
(27,104,o),
(107,-11,o),
(250,-11,cs)
);
},
{
closed = 1;
nodes = (
(155,50,o),
(99,142,o),
(99,308,cs),
(99,465,o),
(155,566,o),
(250,566,cs),
(345,566,o),
(401,465,o),
(401,308,cs),
(401,142,o),
(345,50,o),
(250,50,cs)
);
}
);
width = 500;
}
);
note = Obreve;
unicode = 334;
},
{
glyphname = Ocircumflex;
layers = (
{
layerId = m01;
shapes = (
{
closed = 1;
nodes = (
(125,655,l),
(248,726,l),
(378,656,l),
(408,692,l),
(257,791,l),
(235,791,l),
(92,693,l)
);
},
{
closed = 1;
nodes = (
(393,-11,o),
(473,104,o),
(473,308,cs),
(473,505,o),
(393,627,o),
(250,627,cs),
(107,627,o),
(27,505,o),
(27,308,cs),
(27,104,o),
(107,-11,o),
(250,-11,cs)
);
},
{
closed = 1;
nodes = (
(155,50,o),
(99,142,o),
(99,308,cs),
(99,465,o),
(155,566,o),
(250,566,cs),
(345,566,o),
(401,465,o),
(401,308,cs),
(401,142,o),
(345,50,o),
(250,50,cs)
);
}
);
width = 500;
}
);
note = Ocircumflex;
unicode = 212;
},
{
glyphname = uni1ED0;
layers = (
{
layerId = m01;
shapes = (
{
closed = 1;
nodes = (
(369,766,l),
(538,827,l),
(498,897,l),
(346,808,l)
);
},
{
closed = 1;
nodes = (
(124,655,l),
(247,726,l),
(377,656,l),
(407,692,l),
(256,791,l),
(234,791,l),
(91,693,l)
);
},
{
closed = 1;
nodes = (
(393,-11,o),
(473,104,o),
(473,308,cs),
(473,505,o),
(393,627,o),
(250,627,cs),
(107,627,o),
(27,505,o),
(27,308,cs),
(27,104,o),
(107,-11,o),
(250,-11,cs)
);
},
{
closed = 1;
nodes = (
(155,50,o),
(99,142,o),
(99,308,cs),
(99,465,o),
(155,566,o),
(250,566,cs),
(345,566,o),
(401,465,o),
(401,308,cs),
(401,142,o),
(345,50,o),
(250,50,cs)
);
}
);
width = 500;
}
);
note = uni1ED0;
unicode = 7888;
},
{
glyphname = uni1ED8;
layers = (
{
layerId = m01;
shapes = (
{
closed = 1;
nodes = (
(125,655,l),
(248,726,l),
(378,656,l),
(408,692,l),
(257,791,l),
(235,791,l),
(92,693,l)
);
},
{
closed = 1;
nodes = (
(393,-11,o),
(473,104,o),
(473,308,cs),
(473,505,o),
(393,627,o),
(250,627,cs),
(107,627,o),
(27,505,o),
(27,308,cs),
(27,104,o),
(107,-11,o),
(250,-11,cs)
);
},
{
closed = 1;
nodes = (
(155,50,o),
(99,142,o),
(99,308,cs),
(99,465,o),
(155,566,o),
(250,566,cs),
(345,566,o),
(401,465,o),
(401,308,cs),
(401,142,o),
(345,50,o),
(250,50,cs)
);
},
{
closed = 1;
nodes = (
(277,-147,o),
(301,-124,o),
(301,-96,cs),
(301,-68,o),
(277,-44,o),
(249,-44,cs),
(220,-44,o),
(198,-67,o),
(198,-96,cs),
(198,-124,o),
(221,-147,o),
(249,-147,cs)
);
}
);
width = 500;
}
);
note = uni1ED8;
unicode = 7896;
},
{
glyphname = uni1ED2;
layers = (
{
layerId = m01;
shapes = (
{
closed = 1;
nodes = (
(307,798,l),
(330,840,l),
(177,929,l),
(137,859,l)
);
},
{
closed = 1;
nodes = (
(125,655,l),
(248,726,l),
(378,656,l),
(408,692,l),
(257,791,l),
(235,791,l),
(92,693,l)
);
},
{
closed = 1;
nodes = (
(393,-11,o),
(473,104,o),
(473,308,cs),
(473,505,o),
(393,627,o),
(250,627,cs),
(107,627,o),
(27,505,o),
(27,308,cs),
(27,104,o),
(107,-11,o),
(250,-11,cs)
);
},
{
closed = 1;
nodes = (
(155,50,o),
(99,142,o),
(99,308,cs),
(99,465,o),
(155,566,o),
(250,566,cs),
(345,566,o),
(401,465,o),
(401,308,cs),
(401,142,o),
(345,50,o),
(250,50,cs)
);
}
);
width = 500;
}
);
note = uni1ED2;
unicode = 7890;
},
{
glyphname = uni1ED4;
layers = (
{
layerId = m01;
shapes = (
{
closed = 1;
nodes = (
(450,902,o),
(413,930,o),
(369,930,cs),
(333,930,o),
(307,918,o),
(283,888,c),
(320,850,l),
(328,876,o),
(347,882,o),
(364,882,cs),
(381,882,o),
(395,872,o),
(395,854,cs),
(395,830,o),
(343,811,o),
(343,777,cs),
(343,749,l),
(394,749,l),
(394,756,ls),
(394,806,o),
(450,800,o),
(450,856,cs)
);
},
{
closed = 1;
nodes = (
(121,655,l),
(244,726,l),
(374,656,l),
(404,692,l),
(253,791,l),
(231,791,l),
(88,693,l)
);
},
{
closed = 1;
nodes = (
(393,-11,o),
(473,104,o),
(473,308,cs),
(473,505,o),
(393,627,o),
(250,627,cs),
(107,627,o),
(27,505,o),
(27,308,cs),
(27,104,o),
(107,-11,o),
(250,-11,cs)
);
},
{
closed = 1;
nodes = (
(155,50,o),
(99,142,o),
(99,308,cs),
(99,465,o),
(155,566,o),
(250,566,cs),
(345,566,o),
(401,465,o),
(401,308,cs),
(401,142,o),
(345,50,o),
(250,50,cs)
);
}
);
width = 500;
}
);
note = uni1ED4;
unicode = 7892;
},
{
glyphname = uni1ED6;
layers = (
{
layerId = m01;
shapes = (
{
closed = 1;
nodes = (
(347,921,l),
(335,891,o),
(323,879,o),
(308,879,cs),
(279,879,o),
(241,933,o),
(192,933,cs),
(158,933,o),
(122,903,o),
(107,858,c),
(153,836,l),
(164,864,o),
(181,878,o),
(198,878,cs),
(230,878,o),
(259,824,o),
(308,824,cs),
(342,824,o),
(368,843,o),
(393,899,c)
);
},
{
closed = 1;
nodes = (
(125,655,l),
(248,726,l),
(378,656,l),
(408,692,l),
(257,791,l),
(235,791,l),
(92,693,l)
);
},
{
closed = 1;
nodes = (
(393,-11,o),
(473,104,o),
(473,308,cs),
(473,505,o),
(393,627,o),
(250,627,cs),
(107,627,o),
(27,505,o),
(27,308,cs),
(27,104,o),
(107,-11,o),
(250,-11,cs)
);
},
{
closed = 1;
nodes = (
(155,50,o),
(99,142,o),
(99,308,cs),
(99,465,o),
(155,566,o),
(250,566,cs),
(345,566,o),
(401,465,o),
(401,308,cs),
(401,142,o),
(345,50,o),
(250,50,cs)
);
}
);
width = 500;
}
);
note = uni1ED6;
unicode = 7894;
},
{
glyphname = uni020C;
layers = (
{
layerId = m01;
shapes = (
{
closed = 1;
nodes = (
(175,673,l),
(213,699,l),
(129,848,l),
(74,808,l)
);
},
{
closed = 1;
nodes = (
(335,673,l),
(373,699,l),
(289,848,l),
(234,808,l)
);
},
{
closed = 1;
nodes = (
(393,-11,o),
(473,104,o),
(473,308,cs),
(473,505,o),
(393,627,o),
(250,627,cs),
(107,627,o),
(27,505,o),
(27,308,cs),
(27,104,o),
(107,-11,o),
(250,-11,cs)
);
},
{
closed = 1;
nodes = (
(155,50,o),
(99,142,o),
(99,308,cs),
(99,465,o),
(155,566,o),
(250,566,cs),
(345,566,o),
(401,465,o),
(401,308,cs),
(401,142,o),
(345,50,o),
(250,50,cs)
);
}
);
width = 500;
}
);
note = uni020C;
unicode = 524;
},
{
glyphname = Odieresis;
layers = (
{
layerId = m01;
shapes = (
{
closed = 1;
nodes = (
(188,688,o),
(211,711,o),
(211,738,cs),
(211,766,o),
(188,789,o),
(160,789,cs),
(133,789,o),
(110,765,o),
(110,738,cs),
(110,711,o),
(133,688,o),
(160,688,cs)
);
},
{
closed = 1;
nodes = (
(366,688,o),
(389,711,o),
(389,738,cs),
(389,766,o),
(366,789,o),
(338,789,cs),
(311,789,o),
(289,766,o),
(289,738,cs),
(289,710,o),
(311,688,o),
(338,688,cs)
);
},
{
closed = 1;
nodes = (
(393,-11,o),
(473,104,o),
(473,308,cs),
(473,505,o),
(393,627,o),
(250,627,cs),
(107,627,o),
(27,505,o),
(27,308,cs),
(27,104,o),
(107,-11,o),
(250,-11,cs)
);
},
{
closed = 1;
nodes = (
(155,50,o),
(99,142,o),
(99,308,cs),
(99,465,o),
(155,566,o),
(250,566,cs),
(345,566,o),
(401,465,o),
(401,308,cs),
(401,142,o),
(345,50,o),
(250,50,cs)
);
}
);
width = 500;
}
);
note = Odieresis;
unicode = 214;
},
{
glyphname = uni022A;
layers = (
{
layerId = m01;
shapes = (
{
closed = 1;
nodes = (
(121,873,l),
(375,873,l),
(375,929,l),
(121,929,l)
);
},
{
closed = 1;
nodes = (
(188,688,o),
(211,711,o),
(211,738,cs),
(211,766,o),
(188,789,o),
(160,789,cs),
(133,789,o),
(110,765,o),
(110,738,cs),
(110,711,o),
(133,688,o),
(160,688,cs)
);
},
{
closed = 1;
nodes = (
(366,688,o),
(389,711,o),
(389,738,cs),
(389,766,o),
(366,789,o),
(338,789,cs),
(311,789,o),
(289,766,o),
(289,738,cs),
(289,710,o),
(311,688,o),
(338,688,cs)
);
},
{
closed = 1;
nodes = (
(393,-11,o),
(473,104,o),
(473,308,cs),
(473,505,o),
(393,627,o),
(250,627,cs),
(107,627,o),
(27,505,o),
(27,308,cs),
(27,104,o),
(107,-11,o),
(250,-11,cs)
);
},
{
closed = 1;
nodes = (
(155,50,o),
(99,142,o),
(99,308,cs),
(99,465,o),
(155,566,o),
(250,566,cs),
(345,566,o),
(401,465,o),
(401,308,cs),
(401,142,o),
(345,50,o),
(250,50,cs)
);
}
);
width = 500;
}
);
note = uni022A;
unicode = 554;
},
{
glyphname = uni0230;
layers = (
{
layerId = m01;
shapes = (
{
closed = 1;
nodes = (
(121,843,l),
(375,843,l),
(375,899,l),
(121,899,l)
);
},
{
closed = 1;
nodes = (
(276,693,o),
(300,716,o),
(300,744,cs),
(300,772,o),
(276,796,o),
(248,796,cs),
(219,796,o),
(197,773,o),
(197,744,cs),
(197,716,o),
(220,693,o),
(248,693,cs)
);
},
{
closed = 1;
nodes = (
(393,-11,o),
(473,104,o),
(473,308,cs),
(473,505,o),
(393,627,o),
(250,627,cs),
(107,627,o),
(27,505,o),
(27,308,cs),
(27,104,o),
(107,-11,o),
(250,-11,cs)
);
},
{
closed = 1;
nodes = (
(155,50,o),
(99,142,o),
(99,308,cs),
(99,465,o),
(155,566,o),
(250,566,cs),
(345,566,o),
(401,465,o),
(401,308,cs),
(401,142,o),
(345,50,o),
(250,50,cs)
);
}
);
width = 500;
}
);
note = uni0230;
unicode = 560;
},
{
glyphname = uni1ECC;
layers = (
{
layerId = m01;
shapes = (
{
closed = 1;
nodes = (
(393,-11,o),
(473,104,o),
(473,308,cs),
(473,505,o),
(393,627,o),
(250,627,cs),
(107,627,o),
(27,505,o),
(27,308,cs),
(27,104,o),
(107,-11,o),
(250,-11,cs)
);
},
{
closed = 1;
nodes = (
(155,50,o),
(99,142,o),
(99,308,cs),
(99,465,o),
(155,566,o),
(250,566,cs),
(345,566,o),
(401,465,o),
(401,308,cs),
(401,142,o),
(345,50,o),
(250,50,cs)
);
},
{
closed = 1;
nodes = (
(277,-147,o),
(301,-124,o),
(301,-96,cs),
(301,-68,o),
(277,-44,o),
(249,-44,cs),
(220,-44,o),
(198,-67,o),
(198,-96,cs),
(198,-124,o),
(221,-147,o),
(249,-147,cs)
);
}
);
width = 500;
}
);
note = uni1ECC;
unicode = 7884;
},
{
glyphname = Ograve;
layers = (
{
layerId = m01;
shapes = (
{
closed = 1;
nodes = (
(293,660,l),
(316,702,l),
(163,791,l),
(123,721,l)
);
},
{
closed = 1;
nodes = (
(393,-11,o),
(473,104,o),
(473,308,cs),
(473,505,o),
(393,627,o),
(250,627,cs),
(107,627,o),
(27,505,o),
(27,308,cs),
(27,104,o),
(107,-11,o),
(250,-11,cs)
);
},
{
closed = 1;
nodes = (
(155,50,o),
(99,142,o),
(99,308,cs),
(99,465,o),
(155,566,o),
(250,566,cs),
(345,566,o),
(401,465,o),
(401,308,cs),
(401,142,o),
(345,50,o),
(250,50,cs)
);
}
);
width = 500;
}
);
note = Ograve;
unicode = 210;
},
{
glyphname = uni1ECE;
layers = (
{
layerId = m01;
shapes = (
{
closed = 1;
nodes = (
(335,842,o),
(298,870,o),
(254,870,cs),
(218,870,o),
(192,858,o),
(168,828,c),
(205,790,l),
(213,816,o),
(232,822,o),
(249,822,cs),
(266,822,o),
(280,812,o),
(280,794,cs),
(280,770,o),
(228,751,o),
(228,717,cs),
(228,689,l),
(279,689,l),
(279,696,ls),
(279,746,o),
(335,740,o),
(335,796,cs)
);
},
{
closed = 1;
nodes = (
(393,-11,o),
(473,104,o),
(473,308,cs),
(473,505,o),
(393,627,o),
(250,627,cs),
(107,627,o),
(27,505,o),
(27,308,cs),
(27,104,o),
(107,-11,o),
(250,-11,cs)
);
},
{
closed = 1;
nodes = (
(155,50,o),
(99,142,o),
(99,308,cs),
(99,465,o),
(155,566,o),
(250,566,cs),
(345,566,o),
(401,465,o),
(401,308,cs),
(401,142,o),
(345,50,o),
(250,50,cs)
);
}
);
width = 500;
}
);
note = uni1ECE;
unicode = 7886;
},
{
glyphname = Ohorn;
layers = (
{
layerId = m01;
shapes = (
{
closed = 1;
nodes = (
(393,-11,o),
(473,104,o),
(473,308,cs),
(473,405,o),
(454,484,o),
(417,539,c),
(461,552,o),
(468,593,o),
(468,678,c),
(410,678,l),
(410,605,o),
(407,586,o),
(376,584,c),
(342,612,o),
(300,627,o),
(250,627,cs),
(107,627,o),
(27,505,o),
(27,308,cs),
(27,104,o),
(107,-11,o),
(250,-11,cs)
);
},
{
closed = 1;
nodes = (
(155,50,o),
(99,142,o),
(99,308,cs),
(99,465,o),
(155,566,o),
(250,566,cs),
(345,566,o),
(401,465,o),
(401,308,cs),
(401,142,o),
(345,50,o),
(250,50,cs)
);
}
);
width = 500;
}
);
note = Ohorn;
unicode = 416;
},
{
glyphname = uni1EDA;
layers = (
{
layerId = m01;
shapes = (
{
closed = 1;
nodes = (
(177,660,l),
(346,721,l),
(306,791,l),
(154,702,l)
);
},
{
closed = 1;
nodes = (
(393,-11,o),
(473,104,o),
(473,308,cs),
(473,405,o),
(454,484,o),
(417,539,c),
(461,552,o),
(468,593,o),
(468,678,c),
(410,678,l),
(410,605,o),
(407,586,o),
(376,584,c),
(342,612,o),
(300,627,o),
(250,627,cs),
(107,627,o),
(27,505,o),
(27,308,cs),
(27,104,o),
(107,-11,o),
(250,-11,cs)
);
},
{
closed = 1;
nodes = (
(155,50,o),
(99,142,o),
(99,308,cs),
(99,465,o),
(155,566,o),
(250,566,cs),
(345,566,o),
(401,465,o),
(401,308,cs),
(401,142,o),
(345,50,o),
(250,50,cs)
);
}
);
width = 500;
}
);
note = uni1EDA;
unicode = 7898;
},
{
glyphname = uni1EE2;
layers = (
{
layerId = m01;
shapes = (
{
closed = 1;
nodes = (
(393,-11,o),
(473,104,o),
(473,308,cs),
(473,405,o),
(454,484,o),
(417,539,c),
(461,552,o),
(468,593,o),
(468,678,c),
(410,678,l),
(410,605,o),
(407,586,o),
(376,584,c),
(342,612,o),
(300,627,o),
(250,627,cs),
(107,627,o),
(27,505,o),
(27,308,cs),
(27,104,o),
(107,-11,o),
(250,-11,cs)
);
},
{
closed = 1;
nodes = (
(155,50,o),
(99,142,o),
(99,308,cs),
(99,465,o),
(155,566,o),
(250,566,cs),
(345,566,o),
(401,465,o),
(401,308,cs),
(401,142,o),
(345,50,o),
(250,50,cs)
);
},
{
closed = 1;
nodes = (
(277,-147,o),
(301,-124,o),
(301,-96,cs),
(301,-68,o),
(277,-44,o),
(249,-44,cs),
(220,-44,o),
(198,-67,o),
(198,-96,cs),
(198,-124,o),
(221,-147,o),
(249,-147,cs)
);
}
);
width = 500;
}
);
note = uni1EE2;
unicode = 7906;
},
{
glyphname = uni1EDC;
layers = (
{
layerId = m01;
shapes = (
{
closed = 1;
nodes = (
(293,660,l),
(316,702,l),
(163,791,l),
(123,721,l)
);
},
{
closed = 1;
nodes = (
(393,-11,o),
(473,104,o),
(473,308,cs),
(473,405,o),
(454,484,o),
(417,539,c),
(461,552,o),
(468,593,o),
(468,678,c),
(410,678,l),
(410,605,o),
(407,586,o),
(376,584,c),
(342,612,o),
(300,627,o),
(250,627,cs),
(107,627,o),
(27,505,o),
(27,308,cs),
(27,104,o),
(107,-11,o),
(250,-11,cs)
);
},
{
closed = 1;
nodes = (
(155,50,o),
(99,142,o),
(99,308,cs),
(99,465,o),
(155,566,o),
(250,566,cs),
(345,566,o),
(401,465,o),
(401,308,cs),
(401,142,o),
(345,50,o),
(250,50,cs)
);
}
);
width = 500;
}
);
note = uni1EDC;
unicode = 7900;
},
{
glyphname = uni1EDE;
layers = (
{
layerId = m01;
shapes = (
{
closed = 1;
nodes = (
(335,842,o),
(298,870,o),
(254,870,cs),
(218,870,o),
(192,858,o),
(168,828,c),
(205,790,l),
(213,816,o),
(232,822,o),
(249,822,cs),
(266,822,o),
(280,812,o),
(280,794,cs),
(280,770,o),
(228,751,o),
(228,717,cs),
(228,689,l),
(279,689,l),
(279,696,ls),
(279,746,o),
(335,740,o),
(335,796,cs)
);
},
{
closed = 1;
nodes = (
(393,-11,o),
(473,104,o),
(473,308,cs),
(473,405,o),
(454,484,o),
(417,539,c),
(461,552,o),
(468,593,o),
(468,678,c),
(410,678,l),
(410,605,o),
(407,586,o),
(376,584,c),
(342,612,o),
(300,627,o),
(250,627,cs),
(107,627,o),
(27,505,o),
(27,308,cs),
(27,104,o),
(107,-11,o),
(250,-11,cs)
);
},
{
closed = 1;
nodes = (
(155,50,o),
(99,142,o),
(99,308,cs),
(99,465,o),
(155,566,o),
(250,566,cs),
(345,566,o),
(401,465,o),
(401,308,cs),
(401,142,o),
(345,50,o),
(250,50,cs)
);
}
);
width = 500;
}
);
note = uni1EDE;
unicode = 7902;
},
{
glyphname = uni1EE0;
layers = (
{
layerId = m01;
shapes = (
{
closed = 1;
nodes = (
(379,791,l),
(360,754,o),
(349,743,o),
(328,743,cs),
(280,743,o),
(257,797,o),
(198,797,cs),
(146,797,o),
(113,762,o),
(95,717,c),
(144,695,l),
(160,731,o),
(177,742,o),
(200,742,cs),
(245,742,o),
(272,688,o),
(332,688,cs),
(372,688,o),
(396,707,o),
(425,763,c)
);
},
{
closed = 1;
nodes = (
(393,-11,o),
(473,104,o),
(473,308,cs),
(473,405,o),
(454,484,o),
(417,539,c),
(461,552,o),
(468,593,o),
(468,678,c),
(410,678,l),
(410,605,o),
(407,586,o),
(376,584,c),
(342,612,o),
(300,627,o),
(250,627,cs),
(107,627,o),
(27,505,o),
(27,308,cs),
(27,104,o),
(107,-11,o),
(250,-11,cs)
);
},
{
closed = 1;
nodes = (
(155,50,o),
(99,142,o),
(99,308,cs),
(99,465,o),
(155,566,o),
(250,566,cs),
(345,566,o),
(401,465,o),
(401,308,cs),
(401,142,o),
(345,50,o),
(250,50,cs)
);
}
);
width = 500;
}
);
note = uni1EE0;
unicode = 7904;
},
{
glyphname = Ohungarumlaut;
layers = (
{
layerId = m01;
shapes = (
{
closed = 1;
nodes = (
(282,645,l),
(427,746,l),
(381,810,l),
(250,686,l)
);
},
{
closed = 1;
nodes = (
(104,645,l),
(250,746,l),
(203,810,l),
(72,686,l)
);
},
{
closed = 1;
nodes = (
(393,-11,o),
(473,104,o),
(473,308,cs),
(473,505,o),
(393,627,o),
(250,627,cs),
(107,627,o),
(27,505,o),
(27,308,cs),
(27,104,o),
(107,-11,o),
(250,-11,cs)
);
},
{
closed = 1;
nodes = (
(155,50,o),
(99,142,o),
(99,308,cs),
(99,465,o),
(155,566,o),
(250,566,cs),
(345,566,o),
(401,465,o),
(401,308,cs),
(401,142,o),
(345,50,o),
(250,50,cs)
);
}
);
width = 500;
}
);
note = Ohungarumlaut;
unicode = 336;
},
{
glyphname = uni020E;
layers = (
{
layerId = m01;
shapes = (
{
closed = 1;
nodes = (
(159,694,l),
(181,741,o),
(209,762,o),
(249,762,cs),
(289,762,o),
(317,741,o),
(339,694,c),
(391,718,l),
(361,777,o),
(311,810,o),
(249,810,cs),
(187,810,o),
(137,777,o),
(107,718,c)
);
},
{
closed = 1;
nodes = (
(393,-11,o),
(473,104,o),
(473,308,cs),
(473,505,o),
(393,627,o),
(250,627,cs),
(107,627,o),
(27,505,o),
(27,308,cs),
(27,104,o),
(107,-11,o),
(250,-11,cs)
);
},
{
closed = 1;
nodes = (
(155,50,o),
(99,142,o),
(99,308,cs),
(99,465,o),
(155,566,o),
(250,566,cs),
(345,566,o),
(401,465,o),
(401,308,cs),
(401,142,o),
(345,50,o),
(250,50,cs)
);
}
);
width = 500;
}
);
note = uni020E;
unicode = 526;
},
{
glyphname = Omacron;
layers = (
{
layerId = m01;
shapes = (
{
closed = 1;
nodes = (
(123,731,l),
(377,731,l),
(377,787,l),
(123,787,l)
);
},
{
closed = 1;
nodes = (
(393,-11,o),
(473,104,o),
(473,308,cs),
(473,505,o),
(393,627,o),
(250,627,cs),
(107,627,o),
(27,505,o),
(27,308,cs),
(27,104,o),
(107,-11,o),
(250,-11,cs)
);
},
{
closed = 1;
nodes = (
(155,50,o),
(99,142,o),
(99,308,cs),
(99,465,o),
(155,566,o),
(250,566,cs),
(345,566,o),
(401,465,o),
(401,308,cs),
(401,142,o),
(345,50,o),
(250,50,cs)
);
}
);
width = 500;
}
);
note = Omacron;
unicode = 332;
},
{
glyphname = uni1E52;
layers = (
{
layerId = m01;
shapes = (
{
closed = 1;
nodes = (
(177,814,l),
(346,875,l),
(306,945,l),
(154,856,l)
);
},
{
closed = 1;
nodes = (
(123,731,l),
(377,731,l),
(377,787,l),
(123,787,l)
);
},
{
closed = 1;
nodes = (
(393,-11,o),
(473,104,o),
(473,308,cs),
(473,505,o),
(393,627,o),
(250,627,cs),
(107,627,o),
(27,505,o),
(27,308,cs),
(27,104,o),
(107,-11,o),
(250,-11,cs)
);
},
{
closed = 1;
nodes = (
(155,50,o),
(99,142,o),
(99,308,cs),
(99,465,o),
(155,566,o),
(250,566,cs),
(345,566,o),
(401,465,o),
(401,308,cs),
(401,142,o),
(345,50,o),
(250,50,cs)
);
}
);
width = 500;
}
);
note = uni1E52;
unicode = 7762;
},
{
glyphname = uni1E50;
layers = (
{
layerId = m01;
shapes = (
{
closed = 1;
nodes = (
(293,814,l),
(316,856,l),
(163,945,l),
(123,875,l)
);
},
{
closed = 1;
nodes = (
(123,731,l),
(377,731,l),
(377,787,l),
(123,787,l)
);
},
{
closed = 1;
nodes = (
(393,-11,o),
(473,104,o),
(473,308,cs),
(473,505,o),
(393,627,o),
(250,627,cs),
(107,627,o),
(27,505,o),
(27,308,cs),
(27,104,o),
(107,-11,o),
(250,-11,cs)
);
},
{
closed = 1;
nodes = (
(155,50,o),
(99,142,o),
(99,308,cs),
(99,465,o),
(155,566,o),
(250,566,cs),
(345,566,o),
(401,465,o),
(401,308,cs),
(401,142,o),
(345,50,o),
(250,50,cs)
);
}
);
width = 500;
}
);
note = uni1E50;
unicode = 7760;
},
{
glyphname = uni01EA;
layers = (
{
layerId = m01;
shapes = (
{
closed = 1;
nodes = (
(252,-11,o),
(254,-11,o),
(256,-11,c),
(212,-48,o),
(189,-88,o),
(189,-127,cs),
(189,-178,o),
(235,-208,o),
(301,-217,c),
(317,-169,l),
(274,-163,o),
(255,-141,o),
(255,-113,cs),
(255,-79,o),
(282,-36,o),
(328,2,c),
(422,38,o),
(473,145,o),
(473,308,cs),
(473,505,o),
(393,627,o),
(250,627,cs),
(107,627,o),
(27,505,o),
(27,308,cs),
(27,104,o),
(107,-11,o),
(250,-11,cs)
);
},
{
closed = 1;
nodes = (
(155,50,o),
(99,142,o),
(99,308,cs),
(99,465,o),
(155,566,o),
(250,566,cs),
(345,566,o),
(401,465,o),
(401,308,cs),
(401,142,o),
(345,50,o),
(250,50,cs)
);
}
);
width = 500;
}
);
note = uni01EA;
unicode = 490;
},
{
glyphname = Oslash;
layers = (
{
layerId = m01;
shapes = (
{
closed = 1;
nodes = (
(85,-42,l),
(123,30,l),
(157,3,o),
(200,-11,o),
(250,-11,cs),
(393,-11,o),
(473,104,o),
(473,308,cs),
(473,416,o),
(449,502,o),
(403,557,c),
(458,660,l),
(416,682,l),
(368,591,l),
(335,614,o),
(296,627,o),
(250,627,cs),
(107,627,o),
(27,505,o),
(27,308,cs),
(27,203,o),
(48,121,o),
(88,67,c),
(41,-22,l)
);
},
{
closed = 1;
nodes = (
(99,465,o),
(155,566,o),
(250,566,cs),
(283,566,o),
(312,553,o),
(335,530,c),
(127,140,l),
(109,182,o),
(99,239,o),
(99,308,cs)
);
},
{
closed = 1;
nodes = (
(212,50,o),
(181,64,o),
(156,92,c),
(366,487,l),
(389,443,o),
(401,381,o),
(401,308,cs),
(401,142,o),
(345,50,o),
(250,50,cs)
);
}
);
width = 500;
}
);
note = Oslash;
unicode = 216;
},
{
glyphname = Oslashacute;
layers = (
{
layerId = m01;
shapes = (
{
closed = 1;
nodes = (
(177,660,l),
(346,721,l),
(306,791,l),
(154,702,l)
);
},
{
closed = 1;
nodes = (
(85,-42,l),
(123,30,l),
(157,3,o),
(200,-11,o),
(250,-11,cs),
(393,-11,o),
(473,104,o),
(473,308,cs),
(473,416,o),
(449,502,o),
(403,557,c),
(458,660,l),
(416,682,l),
(368,591,l),
(335,614,o),
(296,627,o),
(250,627,cs),
(107,627,o),
(27,505,o),
(27,308,cs),
(27,203,o),
(48,121,o),
(88,67,c),
(41,-22,l)
);
},
{
closed = 1;
nodes = (
(99,465,o),
(155,566,o),
(250,566,cs),
(283,566,o),
(312,553,o),
(335,530,c),
(127,140,l),
(109,182,o),
(99,239,o),
(99,308,cs)
);
},
{
closed = 1;
nodes = (
(212,50,o),
(181,64,o),
(156,92,c),
(366,487,l),
(389,443,o),
(401,381,o),
(401,308,cs),
(401,142,o),
(345,50,o),
(250,50,cs)
);
}
);
width = 500;
}
);
note = Oslashacute;
unicode = 510;
},
{
glyphname = Otilde;
layers = (
{
layerId = m01;
shapes = (
{
closed = 1;
nodes = (
(379,791,l),
(360,754,o),
(349,743,o),
(328,743,cs),
(280,743,o),
(257,797,o),
(198,797,cs),
(146,797,o),
(113,762,o),
(95,717,c),
(144,695,l),
(160,731,o),
(177,742,o),
(200,742,cs),
(245,742,o),
(272,688,o),
(332,688,cs),
(372,688,o),
(396,707,o),
(425,763,c)
);
},
{
closed = 1;
nodes = (
(393,-11,o),
(473,104,o),
(473,308,cs),
(473,505,o),
(393,627,o),
(250,627,cs),
(107,627,o),
(27,505,o),
(27,308,cs),
(27,104,o),
(107,-11,o),
(250,-11,cs)
);
},
{
closed = 1;
nodes = (
(155,50,o),
(99,142,o),
(99,308,cs),
(99,465,o),
(155,566,o),
(250,566,cs),
(345,566,o),
(401,465,o),
(401,308,cs),
(401,142,o),
(345,50,o),
(250,50,cs)
);
}
);
width = 500;
}
);
note = Otilde;
unicode = 213;
},
{
glyphname = uni1E4C;
layers = (
{
layerId = m01;
shapes = (
{
closed = 1;
nodes = (
(177,815,l),
(346,876,l),
(306,946,l),
(154,857,l)
);
},
{
closed = 1;
nodes = (
(379,791,l),
(360,754,o),
(349,743,o),
(328,743,cs),
(280,743,o),
(257,797,o),
(198,797,cs),
(146,797,o),
(113,762,o),
(95,717,c),
(144,695,l),
(160,731,o),
(177,742,o),
(200,742,cs),
(245,742,o),
(272,688,o),
(332,688,cs),
(372,688,o),
(396,707,o),
(425,763,c)
);
},
{
closed = 1;
nodes = (
(393,-11,o),
(473,104,o),
(473,308,cs),
(473,505,o),
(393,627,o),
(250,627,cs),
(107,627,o),
(27,505,o),
(27,308,cs),
(27,104,o),
(107,-11,o),
(250,-11,cs)
);
},
{
closed = 1;
nodes = (
(155,50,o),
(99,142,o),
(99,308,cs),
(99,465,o),
(155,566,o),
(250,566,cs),
(345,566,o),
(401,465,o),
(401,308,cs),
(401,142,o),
(345,50,o),
(250,50,cs)
);
}
);
width = 500;
}
);
note = uni1E4C;
unicode = 7756;
},
{
glyphname = uni1E4E;
layers = (
{
layerId = m01;
shapes = (
{
closed = 1;
nodes = (
(188,843,o),
(211,866,o),
(211,893,cs),
(211,921,o),
(188,944,o),
(160,944,cs),
(133,944,o),
(110,920,o),
(110,893,cs),
(110,866,o),
(133,843,o),
(160,843,cs)
);
},
{
closed = 1;
nodes = (
(366,843,o),
(389,866,o),
(389,893,cs),
(389,921,o),
(366,944,o),
(338,944,cs),
(311,944,o),
(289,921,o),
(289,893,cs),
(289,865,o),
(311,843,o),
(338,843,cs)
);
},
{
closed = 1;
nodes = (
(379,791,l),
(360,754,o),
(349,743,o),
(328,743,cs),
(280,743,o),
(257,797,o),
(198,797,cs),
(146,797,o),
(113,762,o),
(95,717,c),
(144,695,l),
(160,731,o),
(177,742,o),
(200,742,cs),
(245,742,o),
(272,688,o),
(332,688,cs),
(372,688,o),
(396,707,o),
(425,763,c)
);
},
{
closed = 1;
nodes = (
(393,-11,o),
(473,104,o),
(473,308,cs),
(473,505,o),
(393,627,o),
(250,627,cs),
(107,627,o),
(27,505,o),
(27,308,cs),
(27,104,o),
(107,-11,o),
(250,-11,cs)
);
},
{
closed = 1;
nodes = (
(155,50,o),
(99,142,o),
(99,308,cs),
(99,465,o),
(155,566,o),
(250,566,cs),
(345,566,o),
(401,465,o),
(401,308,cs),
(401,142,o),
(345,50,o),
(250,50,cs)
);
}
);
width = 500;
}
);
note = uni1E4E;
unicode = 7758;
},
{
glyphname = uni022C;
layers = (
{
layerId = m01;
shapes = (
{
closed = 1;
nodes = (
(118,878,l),
(372,878,l),
(372,934,l),
(118,934,l)
);
},
{
closed = 1;
nodes = (
(347,837,l),
(335,807,o),
(323,795,o),
(308,795,cs),
(279,795,o),
(241,849,o),
(192,849,cs),
(158,849,o),
(122,819,o),
(107,774,c),
(153,752,l),
(164,780,o),
(181,794,o),
(198,794,cs),
(230,794,o),
(259,740,o),
(308,740,cs),
(342,740,o),
(368,759,o),
(393,815,c)
);
},
{
closed = 1;
nodes = (
(393,-11,o),
(473,104,o),
(473,308,cs),
(473,505,o),
(393,627,o),
(250,627,cs),
(107,627,o),
(27,505,o),
(27,308,cs),
(27,104,o),
(107,-11,o),
(250,-11,cs)
);
},
{
closed = 1;
nodes = (
(155,50,o),
(99,142,o),
(99,308,cs),
(99,465,o),
(155,566,o),
(250,566,cs),
(345,566,o),
(401,465,o),
(401,308,cs),
(401,142,o),
(345,50,o),
(250,50,cs)
);
}
);
width = 500;
}
);
note = uni022C;
unicode = 556;
},
{
glyphname = OE;
layers = (
{
layerId = m01;
shapes = (
{
closed = 1;
nodes = (
(203,-7,o),
(229,4,o),
(252,31,c),
(252,0,l),
(482,0,l),
(482,62,l),
(315,62,l),
(315,293,l),
(458,293,l),
(458,357,l),
(315,357,l),
(315,562,l),
(484,562,l),
(484,624,l),
(253,624,l),
(253,595,l),
(229,622,o),
(201,632,o),
(173,632,cs),
(69,632,o),
(9,524,o),
(9,312,cs),
(9,93,o),
(72,-7,o),
(172,-7,cs)
);
},
{
closed = 1;
nodes = (
(111,54,o),
(73,149,o),
(73,313,cs),
(73,515,o),
(119,574,o),
(171,574,cs),
(212,574,o),
(236,530,o),
(252,485,c),
(252,129,l),
(243,85,o),
(214,54,o),
(179,54,cs)
);
}
);
width = 500;
}
);
note = OE;
unicode = 338;
},
{
glyphname = P;
layers = (
{
layerId = m01;
shapes = (
{
closed = 1;
nodes = (
(59,0,l),
(131,0,l),
(131,275,l),
(264,275,ls),
(399,275,o),
(456,351,o),
(456,447,cs),
(456,544,o),
(398,623,o),
(259,623,cs),
(59,623,l)
);
},
{
closed = 1;
nodes = (
(131,337,l),
(131,557,l),
(257,557,ls),
(346,557,o),
(384,506,o),
(384,445,cs),
(384,380,o),
(347,337,o),
(256,337,cs)
);
}
);
width = 500;
}
);
note = P;
unicode = 80;
},
{
glyphname = Thorn;
layers = (
{
layerId = m01;
shapes = (
{
closed = 1;
nodes = (
(59,0,l),
(129,0,l),
(129,158,l),
(264,158,ls),
(399,158,o),
(456,234,o),
(456,330,cs),
(456,426,o),
(398,506,o),
(259,506,cs),
(129,506,l),
(129,595,l),
(132,607,o),
(139,616,o),
(139,620,cs),
(139,621,o),
(138,622,o),
(137,623,c),
(59,623,l)
);
},
{
closed = 1;
nodes = (
(129,219,l),
(129,440,l),
(257,440,ls),
(346,440,o),
(384,389,o),
(384,328,cs),
(384,267,o),
(350,219,o),
(264,219,cs)
);
}
);
width = 500;
}
);
note = Thorn;
unicode = 222;
},
{
glyphname = Q;
layers = (
{
layerId = m01;
shapes = (
{
closed = 1;
nodes = (
(440,-145,l),
(442,-77,l),
(361,-82,l),
(305,-82,o),
(290,-51,o),
(287,-7,c),
(408,20,o),
(471,127,o),
(471,311,cs),
(476,536,o),
(364,630,o),
(251,630,cs),
(158,630,o),
(29,557,o),
(29,308,cs),
(29,107,o),
(126,6,o),
(226,-7,c),
(226,-110,o),
(270,-151,o),
(401,-145,cs)
);
},
{
closed = 1;
nodes = (
(156,55,o),
(97,165,o),
(97,323,cs),
(97,450,o),
(146,569,o),
(251,569,cs),
(314,569,o),
(404,517,o),
(404,294,cs),
(404,118,o),
(324,55,o),
(256,55,cs)
);
}
);
width = 500;
}
);
note = Q;
unicode = 81;
},
{
glyphname = R;
layers = (
{
layerId = m01;
shapes = (
{
closed = 1;
nodes = (
(56,0,l),
(127,0,l),
(127,275,l),
(248,275,l),
(386,0,l),
(464,0,l),
(320,278,l),
(397,297,o),
(447,374,o),
(447,445,cs),
(447,552,o),
(387,623,o),
(240,623,cs),
(56,623,l)
);
},
{
closed = 1;
nodes = (
(127,337,l),
(127,557,l),
(248,557,ls),
(337,557,o),
(375,507,o),
(375,445,cs),
(375,380,o),
(337,337,o),
(248,337,cs)
);
}
);
width = 500;
}
);
note = R;
unicode = 82;
},
{
glyphname = Racute;
layers = (
{
layerId = m01;
shapes = (
{
closed = 1;
nodes = (
(177,660,l),
(346,721,l),
(306,791,l),
(154,702,l)
);
},
{
closed = 1;
nodes = (
(56,0,l),
(127,0,l),
(127,275,l),
(248,275,l),
(386,0,l),
(464,0,l),
(320,278,l),
(397,297,o),
(447,374,o),
(447,445,cs),
(447,552,o),
(387,623,o),
(240,623,cs),
(56,623,l)
);
},
{
closed = 1;
nodes = (
(127,337,l),
(127,557,l),
(248,557,ls),
(337,557,o),
(375,507,o),
(375,445,cs),
(375,380,o),
(337,337,o),
(248,337,cs)
);
}
);
width = 500;
}
);
note = Racute;
unicode = 340;
},
{
glyphname = Rcaron;
layers = (
{
layerId = m01;
shapes = (
{
closed = 1;
nodes = (
(371,793,l),
(248,722,l),
(118,792,l),
(88,756,l),
(239,657,l),
(261,657,l),
(404,755,l)
);
},
{
closed = 1;
nodes = (
(56,0,l),
(127,0,l),
(127,275,l),
(248,275,l),
(386,0,l),
(464,0,l),
(320,278,l),
(397,297,o),
(447,374,o),
(447,445,cs),
(447,552,o),
(387,623,o),
(240,623,cs),
(56,623,l)
);
},
{
closed = 1;
nodes = (
(127,337,l),
(127,557,l),
(248,557,ls),
(337,557,o),
(375,507,o),
(375,445,cs),
(375,380,o),
(337,337,o),
(248,337,cs)
);
}
);
width = 500;
}
);
note = Rcaron;
unicode = 344;
},
{
glyphname = uni0156;
layers = (
{
layerId = m01;
shapes = (
{
closed = 1;
nodes = (
(56,0,l),
(127,0,l),
(127,275,l),
(248,275,l),
(386,0,l),
(464,0,l),
(320,278,l),
(397,297,o),
(447,374,o),
(447,445,cs),
(447,552,o),
(387,623,o),
(240,623,cs),
(56,623,l)
);
},
{
closed = 1;
nodes = (
(127,337,l),
(127,557,l),
(248,557,ls),
(337,557,o),
(375,507,o),
(375,445,cs),
(375,380,o),
(337,337,o),
(248,337,cs)
);
},
{
closed = 1;
nodes = (
(221,-275,l),
(285,-209,o),
(317,-154,o),
(317,-106,cs),
(317,-62,o),
(288,-31,o),
(256,-31,cs),
(225,-31,o),
(203,-55,o),
(203,-84,cs),
(203,-117,o),
(249,-129,o),
(249,-154,cs),
(249,-176,o),
(224,-217,o),
(191,-248,c)
);
}
);
width = 500;
}
);
note = uni0156;
unicode = 342;
},
{
glyphname = uni0210;
layers = (
{
layerId = m01;
shapes = (
{
closed = 1;
nodes = (
(175,673,l),
(213,699,l),
(129,848,l),
(74,808,l)
);
},
{
closed = 1;
nodes = (
(335,673,l),
(373,699,l),
(289,848,l),
(234,808,l)
);
},
{
closed = 1;
nodes = (
(56,0,l),
(127,0,l),
(127,275,l),
(248,275,l),
(386,0,l),
(464,0,l),
(320,278,l),
(397,297,o),
(447,374,o),
(447,445,cs),
(447,552,o),
(387,623,o),
(240,623,cs),
(56,623,l)
);
},
{
closed = 1;
nodes = (
(127,337,l),
(127,557,l),
(248,557,ls),
(337,557,o),
(375,507,o),
(375,445,cs),
(375,380,o),
(337,337,o),
(248,337,cs)
);
}
);
width = 500;
}
);
note = uni0210;
unicode = 528;
},
{
glyphname = uni1E5A;
layers = (
{
layerId = m01;
shapes = (
{
closed = 1;
nodes = (
(56,0,l),
(127,0,l),
(127,275,l),
(248,275,l),
(386,0,l),
(464,0,l),
(320,278,l),
(397,297,o),
(447,374,o),
(447,445,cs),
(447,552,o),
(387,623,o),
(240,623,cs),
(56,623,l)
);
},
{
closed = 1;
nodes = (
(127,337,l),
(127,557,l),
(248,557,ls),
(337,557,o),
(375,507,o),
(375,445,cs),
(375,380,o),
(337,337,o),
(248,337,cs)
);
},
{
closed = 1;
nodes = (
(277,-147,o),
(301,-124,o),
(301,-96,cs),
(301,-68,o),
(277,-44,o),
(249,-44,cs),
(220,-44,o),
(198,-67,o),
(198,-96,cs),
(198,-124,o),
(221,-147,o),
(249,-147,cs)
);
}
);
width = 500;
}
);
note = uni1E5A;
unicode = 7770;
},
{
glyphname = uni0212;
layers = (
{
layerId = m01;
shapes = (
{
closed = 1;
nodes = (
(159,694,l),
(181,741,o),
(209,762,o),
(249,762,cs),
(289,762,o),
(317,741,o),
(339,694,c),
(391,718,l),
(361,777,o),
(311,810,o),
(249,810,cs),
(187,810,o),
(137,777,o),
(107,718,c)
);
},
{
closed = 1;
nodes = (
(56,0,l),
(127,0,l),
(127,275,l),
(248,275,l),
(386,0,l),
(464,0,l),
(320,278,l),
(397,297,o),
(447,374,o),
(447,445,cs),
(447,552,o),
(387,623,o),
(240,623,cs),
(56,623,l)
);
},
{
closed = 1;
nodes = (
(127,337,l),
(127,557,l),
(248,557,ls),
(337,557,o),
(375,507,o),
(375,445,cs),
(375,380,o),
(337,337,o),
(248,337,cs)
);
}
);
width = 500;
}
);
note = uni0212;
unicode = 530;
},
{
glyphname = uni1E5E;
layers = (
{
layerId = m01;
shapes = (
{
closed = 1;
nodes = (
(56,0,l),
(127,0,l),
(127,275,l),
(248,275,l),
(386,0,l),
(464,0,l),
(320,278,l),
(397,297,o),
(447,374,o),
(447,445,cs),
(447,552,o),
(387,623,o),
(240,623,cs),
(56,623,l)
);
},
{
closed = 1;
nodes = (
(127,337,l),
(127,557,l),
(248,557,ls),
(337,557,o),
(375,507,o),
(375,445,cs),
(375,380,o),
(337,337,o),
(248,337,cs)
);
},
{
closed = 1;
nodes = (
(125,-155,l),
(379,-155,l),
(379,-99,l),
(125,-99,l)
);
}
);
width = 500;
}
);
note = uni1E5E;
unicode = 7774;
},
{
glyphname = S;
layers = (
{
layerId = m01;
shapes = (
{
closed = 1;
nodes = (
(393,-10,o),
(455,84,o),
(455,170,cs),
(455,247,o),
(420,294,o),
(298,344,cs),
(172,394,o),
(144,426,o),
(144,482,cs),
(144,531,o),
(185,573,o),
(251,573,cs),
(315,573,o),
(354,555,o),
(395,500,c),
(435,553,l),
(392,602,o),
(330,631,o),
(262,631,cs),
(144,631,o),
(72,569,o),
(72,477,cs),
(72,406,o),
(113,342,o),
(243,292,c),
(360,241,o),
(386,217,o),
(386,160,cs),
(386,101,o),
(331,53,o),
(257,53,cs),
(178,53,o),
(122,87,o),
(88,133,c),
(52,69,l),
(101,17,o),
(166,-10,o),
(247,-10,cs)
);
}
);
width = 500;
}
);
note = S;
unicode = 83;
},
{
glyphname = Sacute;
layers = (
{
layerId = m01;
shapes = (
{
closed = 1;
nodes = (
(188,660,l),
(357,721,l),
(317,791,l),
(165,702,l)
);
},
{
closed = 1;
nodes = (
(393,-10,o),
(455,84,o),
(455,170,cs),
(455,247,o),
(420,294,o),
(298,344,cs),
(172,394,o),
(144,426,o),
(144,482,cs),
(144,531,o),
(185,573,o),
(251,573,cs),
(315,573,o),
(354,555,o),
(395,500,c),
(435,553,l),
(392,602,o),
(330,631,o),
(262,631,cs),
(144,631,o),
(72,569,o),
(72,477,cs),
(72,406,o),
(113,342,o),
(243,292,c),
(360,241,o),
(386,217,o),
(386,160,cs),
(386,101,o),
(331,53,o),
(257,53,cs),
(178,53,o),
(122,87,o),
(88,133,c),
(52,69,l),
(101,17,o),
(166,-10,o),
(247,-10,cs)
);
}
);
width = 500;
}
);
note = Sacute;
unicode = 346;
},
{
glyphname = uni1E64;
layers = (
{
layerId = m01;
shapes = (
{
closed = 1;
nodes = (
(287,811,o),
(311,834,o),
(311,862,cs),
(311,890,o),
(287,914,o),
(259,914,cs),
(230,914,o),
(208,891,o),
(208,862,cs),
(208,834,o),
(231,811,o),
(259,811,cs)
);
},
{
closed = 1;
nodes = (
(188,660,l),
(357,721,l),
(317,791,l),
(165,702,l)
);
},
{
closed = 1;
nodes = (
(393,-10,o),
(455,84,o),
(455,170,cs),
(455,247,o),
(420,294,o),
(298,344,cs),
(172,394,o),
(144,426,o),
(144,482,cs),
(144,531,o),
(185,573,o),
(251,573,cs),
(315,573,o),
(354,555,o),
(395,500,c),
(435,553,l),
(392,602,o),
(330,631,o),
(262,631,cs),
(144,631,o),
(72,569,o),
(72,477,cs),
(72,406,o),
(113,342,o),
(243,292,c),
(360,241,o),
(386,217,o),
(386,160,cs),
(386,101,o),
(331,53,o),
(257,53,cs),
(178,53,o),
(122,87,o),
(88,133,c),
(52,69,l),
(101,17,o),
(166,-10,o),
(247,-10,cs)
);
}
);
width = 500;
}
);
note = uni1E64;
unicode = 7780;
},
{
glyphname = Scaron;
layers = (
{
layerId = m01;
shapes = (
{
closed = 1;
nodes = (
(382,793,l),
(259,722,l),
(129,792,l),
(99,756,l),
(250,657,l),
(272,657,l),
(415,755,l)
);
},
{
closed = 1;
nodes = (
(393,-10,o),
(455,84,o),
(455,170,cs),
(455,247,o),
(420,294,o),
(298,344,cs),
(172,394,o),
(144,426,o),
(144,482,cs),
(144,531,o),
(185,573,o),
(251,573,cs),
(315,573,o),
(354,555,o),
(395,500,c),
(435,553,l),
(392,602,o),
(330,631,o),
(262,631,cs),
(144,631,o),
(72,569,o),
(72,477,cs),
(72,406,o),
(113,342,o),
(243,292,c),
(360,241,o),
(386,217,o),
(386,160,cs),
(386,101,o),
(331,53,o),
(257,53,cs),
(178,53,o),
(122,87,o),
(88,133,c),
(52,69,l),
(101,17,o),
(166,-10,o),
(247,-10,cs)
);
}
);
width = 500;
}
);
note = Scaron;
unicode = 352;
},
{
glyphname = uni1E66;
layers = (
{
layerId = m01;
shapes = (
{
closed = 1;
nodes = (
(287,851,o),
(311,874,o),
(311,902,cs),
(311,930,o),
(287,954,o),
(259,954,cs),
(230,954,o),
(208,931,o),
(208,902,cs),
(208,874,o),
(231,851,o),
(259,851,cs)
);
},
{
closed = 1;
nodes = (
(382,793,l),
(259,722,l),
(129,792,l),
(99,756,l),
(250,657,l),
(272,657,l),
(415,755,l)
);
},
{
closed = 1;
nodes = (
(393,-10,o),
(455,84,o),
(455,170,cs),
(455,247,o),
(420,294,o),
(298,344,cs),
(172,394,o),
(144,426,o),
(144,482,cs),
(144,531,o),
(185,573,o),
(251,573,cs),
(315,573,o),
(354,555,o),
(395,500,c),
(435,553,l),
(392,602,o),
(330,631,o),
(262,631,cs),
(144,631,o),
(72,569,o),
(72,477,cs),
(72,406,o),
(113,342,o),
(243,292,c),
(360,241,o),
(386,217,o),
(386,160,cs),
(386,101,o),
(331,53,o),
(257,53,cs),
(178,53,o),
(122,87,o),
(88,133,c),
(52,69,l),
(101,17,o),
(166,-10,o),
(247,-10,cs)
);
}
);
width = 500;
}
);
note = uni1E66;
unicode = 7782;
},
{
glyphname = Scedilla;
layers = (
{
layerId = m01;
shapes = (
{
closed = 1;
nodes = (
(323,-197,o),
(360,-157,o),
(360,-112,cs),
(360,-82,o),
(334,-52,o),
(275,-47,c),
(280,-8,l),
(402,5,o),
(455,91,o),
(455,170,cs),
(455,247,o),
(420,294,o),
(298,344,cs),
(172,394,o),
(144,426,o),
(144,482,cs),
(144,531,o),
(185,573,o),
(251,573,cs),
(315,573,o),
(354,555,o),
(395,500,c),
(435,553,l),
(392,602,o),
(330,631,o),
(262,631,cs),
(144,631,o),
(72,569,o),
(72,477,cs),
(72,406,o),
(113,342,o),
(243,292,c),
(360,241,o),
(386,217,o),
(386,160,cs),
(386,101,o),
(331,53,o),
(257,53,cs),
(178,53,o),
(122,87,o),
(88,133,c),
(52,69,l),
(99,19,o),
(160,-7,o),
(236,-10,c),
(226,-85,l),
(256,-85,ls),
(287,-85,o),
(307,-97,o),
(307,-118,cs),
(307,-141,o),
(292,-154,o),
(257,-154,cs),
(224,-154,o),
(195,-144,o),
(170,-124,c),
(145,-166,l),
(176,-187,o),
(209,-197,o),
(244,-197,cs)
);
}
);
width = 500;
}
);
note = Scedilla;
unicode = 350;
},
{
glyphname = Scircumflex;
layers = (
{
layerId = m01;
shapes = (
{
closed = 1;
nodes = (
(136,655,l),
(259,726,l),
(389,656,l),
(419,692,l),
(268,791,l),
(246,791,l),
(103,693,l)
);
},
{
closed = 1;
nodes = (
(393,-10,o),
(455,84,o),
(455,170,cs),
(455,247,o),
(420,294,o),
(298,344,cs),
(172,394,o),
(144,426,o),
(144,482,cs),
(144,531,o),
(185,573,o),
(251,573,cs),
(315,573,o),
(354,555,o),
(395,500,c),
(435,553,l),
(392,602,o),
(330,631,o),
(262,631,cs),
(144,631,o),
(72,569,o),
(72,477,cs),
(72,406,o),
(113,342,o),
(243,292,c),
(360,241,o),
(386,217,o),
(386,160,cs),
(386,101,o),
(331,53,o),
(257,53,cs),
(178,53,o),
(122,87,o),
(88,133,c),
(52,69,l),
(101,17,o),
(166,-10,o),
(247,-10,cs)
);
}
);
width = 500;
}
);
note = Scircumflex;
unicode = 348;
},
{
glyphname = uni0218;
layers = (
{
layerId = m01;
shapes = (
{
closed = 1;
nodes = (
(393,-10,o),
(455,84,o),
(455,170,cs),
(455,247,o),
(420,294,o),
(298,344,cs),
(172,394,o),
(144,426,o),
(144,482,cs),
(144,531,o),
(185,573,o),
(251,573,cs),
(315,573,o),
(354,555,o),
(395,500,c),
(435,553,l),
(392,602,o),
(330,631,o),
(262,631,cs),
(144,631,o),
(72,569,o),
(72,477,cs),
(72,406,o),
(113,342,o),
(243,292,c),
(360,241,o),
(386,217,o),
(386,160,cs),
(386,101,o),
(331,53,o),
(257,53,cs),
(178,53,o),
(122,87,o),
(88,133,c),
(52,69,l),
(101,17,o),
(166,-10,o),
(247,-10,cs)
);
},
{
closed = 1;
nodes = (
(218,-275,l),
(282,-209,o),
(314,-154,o),
(314,-106,cs),
(314,-62,o),
(285,-31,o),
(253,-31,cs),
(222,-31,o),
(200,-55,o),
(200,-84,cs),
(200,-117,o),
(246,-129,o),
(246,-154,cs),
(246,-176,o),
(221,-217,o),
(188,-248,c)
);
}
);
width = 500;
}
);
note = uni0218;
unicode = 536;
},
{
glyphname = uni1E60;
layers = (
{
layerId = m01;
shapes = (
{
closed = 1;
nodes = (
(287,693,o),
(311,716,o),
(311,744,cs),
(311,772,o),
(287,796,o),
(259,796,cs),
(230,796,o),
(208,773,o),
(208,744,cs),
(208,716,o),
(231,693,o),
(259,693,cs)
);
},
{
closed = 1;
nodes = (
(393,-10,o),
(455,84,o),
(455,170,cs),
(455,247,o),
(420,294,o),
(298,344,cs),
(172,394,o),
(144,426,o),
(144,482,cs),
(144,531,o),
(185,573,o),
(251,573,cs),
(315,573,o),
(354,555,o),
(395,500,c),
(435,553,l),
(392,602,o),
(330,631,o),
(262,631,cs),
(144,631,o),
(72,569,o),
(72,477,cs),
(72,406,o),
(113,342,o),
(243,292,c),
(360,241,o),
(386,217,o),
(386,160,cs),
(386,101,o),
(331,53,o),
(257,53,cs),
(178,53,o),
(122,87,o),
(88,133,c),
(52,69,l),
(101,17,o),
(166,-10,o),
(247,-10,cs)
);
}
);
width = 500;
}
);
note = uni1E60;
unicode = 7776;
},
{
glyphname = uni1E62;
layers = (
{
layerId = m01;
shapes = (
{
closed = 1;
nodes = (
(393,-10,o),
(455,84,o),
(455,170,cs),
(455,247,o),
(420,294,o),
(298,344,cs),
(172,394,o),
(144,426,o),
(144,482,cs),
(144,531,o),
(185,573,o),
(251,573,cs),
(315,573,o),
(354,555,o),
(395,500,c),
(435,553,l),
(392,602,o),
(330,631,o),
(262,631,cs),
(144,631,o),
(72,569,o),
(72,477,cs),
(72,406,o),
(113,342,o),
(243,292,c),
(360,241,o),
(386,217,o),
(386,160,cs),
(386,101,o),
(331,53,o),
(257,53,cs),
(178,53,o),
(122,87,o),
(88,133,c),
(52,69,l),
(101,17,o),
(166,-10,o),
(247,-10,cs)
);
},
{
closed = 1;
nodes = (
(274,-147,o),
(298,-124,o),
(298,-96,cs),
(298,-68,o),
(274,-44,o),
(246,-44,cs),
(217,-44,o),
(195,-67,o),
(195,-96,cs),
(195,-124,o),
(218,-147,o),
(246,-147,cs)
);
}
);
width = 500;
}
);
note = uni1E62;
unicode = 7778;
},
{
glyphname = uni1E68;
layers = (
{
layerId = m01;
shapes = (
{
closed = 1;
nodes = (
(287,693,o),
(311,716,o),
(311,744,cs),
(311,772,o),
(287,796,o),
(259,796,cs),
(230,796,o),
(208,773,o),
(208,744,cs),
(208,716,o),
(231,693,o),
(259,693,cs)
);
},
{
closed = 1;
nodes = (
(393,-10,o),
(455,84,o),
(455,170,cs),
(455,247,o),
(420,294,o),
(298,344,cs),
(172,394,o),
(144,426,o),
(144,482,cs),
(144,531,o),
(185,573,o),
(251,573,cs),
(315,573,o),
(354,555,o),
(395,500,c),
(435,553,l),
(392,602,o),
(330,631,o),
(262,631,cs),
(144,631,o),
(72,569,o),
(72,477,cs),
(72,406,o),
(113,342,o),
(243,292,c),
(360,241,o),
(386,217,o),
(386,160,cs),
(386,101,o),
(331,53,o),
(257,53,cs),
(178,53,o),
(122,87,o),
(88,133,c),
(52,69,l),
(101,17,o),
(166,-10,o),
(247,-10,cs)
);
},
{
closed = 1;
nodes = (
(274,-147,o),
(298,-124,o),
(298,-96,cs),
(298,-68,o),
(274,-44,o),
(246,-44,cs),
(217,-44,o),
(195,-67,o),
(195,-96,cs),
(195,-124,o),
(218,-147,o),
(246,-147,cs)
);
}
);
width = 500;
}
);
note = uni1E68;
unicode = 7784;
},
{
glyphname = uni1E9E;
layers = (
{
layerId = m01;
shapes = (
{
closed = 1;
nodes = (
(380,-10,o),
(464,46,o),
(464,181,cs),
(464,301,o),
(397,365,o),
(284,378,c),
(420,493,l),
(420,586,o),
(364,669,o),
(246,669,cs),
(153,669,o),
(55,617,o),
(55,462,cs),
(55,0,l),
(123,0,l),
(123,475,ls),
(123,576,o),
(185,611,o),
(247,611,cs),
(324,611,o),
(352,558,o),
(352,501,c),
(214,380,l),
(214,323,l),
(244,323,ls),
(371,323,o),
(398,251,o),
(398,190,cs),
(398,103,o),
(342,53,o),
(276,53,cs),
(252,53,o),
(223,61,o),
(199,77,c),
(177,21,l),
(208,0,o),
(242,-10,o),
(283,-10,cs)
);
}
);
width = 500;
}
);
note = uni1E9E;
unicode = 7838;
},
{
glyphname = uni018F;
layers = (
{
layerId = m01;
shapes = (
{
closed = 1;
nodes = (
(393,-11,o),
(473,104,o),
(473,308,cs),
(473,505,o),
(393,627,o),
(250,627,cs),
(107,627,o),
(27,505,o),
(27,308,cs),
(27,104,o),
(107,-11,o),
(250,-11,cs)
);
},
{
closed = 1;
nodes = (
(155,50,o),
(99,142,o),
(99,308,cs),
(99,465,o),
(155,566,o),
(250,566,cs),
(345,566,o),
(401,465,o),
(401,308,cs),
(401,142,o),
(345,50,o),
(250,50,cs)
);
}
);
width = 500;
}
);
note = uni018F;
unicode = 399;
},
{
glyphname = T;
layers = (
{
layerId = m01;
shapes = (
{
closed = 1;
nodes = (
(208,0,l),
(279,0,l),
(279,561,l),
(463,561,l),
(463,624,l),
(31,624,l),
(31,561,l),
(208,561,l)
);
}
);
width = 500;
}
);
note = T;
unicode = 84;
},
{
glyphname = Tbar;
layers = (
{
layerId = m01;
shapes = (
{
closed = 1;
nodes = (
(208,0,l),
(279,0,l),
(279,283,l),
(412,283,l),
(412,340,l),
(279,340,l),
(279,561,l),
(463,561,l),
(463,624,l),
(31,624,l),
(31,561,l),
(208,561,l),
(208,340,l),
(88,340,l),
(88,283,l),
(208,283,l)
);
}
);
width = 500;
}
);
note = Tbar;
unicode = 358;
},
{
glyphname = Tcaron;
layers = (
{
layerId = m01;
shapes = (
{
closed = 1;
nodes = (
(371,793,l),
(248,722,l),
(118,792,l),
(88,756,l),
(239,657,l),
(261,657,l),
(404,755,l)
);
},
{
closed = 1;
nodes = (
(208,0,l),
(279,0,l),
(279,561,l),
(463,561,l),
(463,624,l),
(31,624,l),
(31,561,l),
(208,561,l)
);
}
);
width = 500;
}
);
note = Tcaron;
unicode = 356;
},
{
glyphname = uni0162;
layers = (
{
layerId = m01;
shapes = (
{
closed = 1;
nodes = (
(208,0,l),
(240,0,l),
(229,-85,l),
(259,-85,ls),
(290,-85,o),
(310,-97,o),
(310,-118,cs),
(310,-141,o),
(295,-154,o),
(260,-154,cs),
(227,-154,o),
(198,-144,o),
(173,-124,c),
(148,-166,l),
(179,-187,o),
(212,-197,o),
(247,-197,cs),
(326,-197,o),
(363,-157,o),
(363,-112,cs),
(363,-82,o),
(337,-52,o),
(278,-47,c),
(284,0,l),
(279,0,l),
(279,561,l),
(463,561,l),
(463,624,l),
(31,624,l),
(31,561,l),
(208,561,l)
);
}
);
width = 500;
}
);
note = uni0162;
unicode = 354;
},
{
glyphname = uni021A;
layers = (
{
layerId = m01;
shapes = (
{
closed = 1;
nodes = (
(208,0,l),
(279,0,l),
(279,561,l),
(463,561,l),
(463,624,l),
(31,624,l),
(31,561,l),
(208,561,l)
);
},
{
closed = 1;
nodes = (
(221,-275,l),
(285,-209,o),
(317,-154,o),
(317,-106,cs),
(317,-62,o),
(288,-31,o),
(256,-31,cs),
(225,-31,o),
(203,-55,o),
(203,-84,cs),
(203,-117,o),
(249,-129,o),
(249,-154,cs),
(249,-176,o),
(224,-217,o),
(191,-248,c)
);
}
);
width = 500;
}
);
note = uni021A;
unicode = 538;
},
{
glyphname = uni1E6C;
layers = (
{
layerId = m01;
shapes = (
{
closed = 1;
nodes = (
(208,0,l),
(279,0,l),
(279,561,l),
(463,561,l),
(463,624,l),
(31,624,l),
(31,561,l),
(208,561,l)
);
},
{
closed = 1;
nodes = (
(277,-147,o),
(301,-124,o),
(301,-96,cs),
(301,-68,o),
(277,-44,o),
(249,-44,cs),
(220,-44,o),
(198,-67,o),
(198,-96,cs),
(198,-124,o),
(221,-147,o),
(249,-147,cs)
);
}
);
width = 500;
}
);
note = uni1E6C;
unicode = 7788;
},
{
glyphname = uni1E6E;
layers = (
{
layerId = m01;
shapes = (
{
closed = 1;
nodes = (
(208,0,l),
(279,0,l),
(279,561,l),
(463,561,l),
(463,624,l),
(31,624,l),
(31,561,l),
(208,561,l)
);
},
{
closed = 1;
nodes = (
(125,-155,l),
(379,-155,l),
(379,-99,l),
(125,-99,l)
);
}
);
width = 500;
}
);
note = uni1E6E;
unicode = 7790;
},
{
glyphname = U;
layers = (
{
layerId = m01;
shapes = (
{
closed = 1;
nodes = (
(374,-11,o),
(454,60,o),
(454,218,cs),
(454,623,l),
(387,623,l),
(387,217,ls),
(387,112,o),
(352,48,o),
(252,48,cs),
(153,48,o),
(119,113,o),
(119,214,cs),
(119,623,l),
(50,623,l),
(50,215,ls),
(50,72,o),
(118,-11,o),
(251,-11,cs)
);
}
);
width = 500;
}
);
note = U;
unicode = 85;
},
{
glyphname = Uacute;
layers = (
{
layerId = m01;
shapes = (
{
closed = 1;
nodes = (
(177,660,l),
(346,721,l),
(306,791,l),
(154,702,l)
);
},
{
closed = 1;
nodes = (
(374,-11,o),
(454,60,o),
(454,218,cs),
(454,623,l),
(387,623,l),
(387,217,ls),
(387,112,o),
(352,48,o),
(252,48,cs),
(153,48,o),
(119,113,o),
(119,214,cs),
(119,623,l),
(50,623,l),
(50,215,ls),
(50,72,o),
(118,-11,o),
(251,-11,cs)
);
}
);
width = 500;
}
);
note = Uacute;
unicode = 218;
},
{
glyphname = Ubreve;
layers = (
{
layerId = m01;
shapes = (
{
closed = 1;
nodes = (
(340,787,l),
(318,740,o),
(290,719,o),
(250,719,cs),
(210,719,o),
(182,740,o),
(160,787,c),
(108,763,l),
(138,704,o),
(188,671,o),
(250,671,cs),
(312,671,o),
(362,704,o),
(392,763,c)
);
},
{
closed = 1;
nodes = (
(374,-11,o),
(454,60,o),
(454,218,cs),
(454,623,l),
(387,623,l),
(387,217,ls),
(387,112,o),
(352,48,o),
(252,48,cs),
(153,48,o),
(119,113,o),
(119,214,cs),
(119,623,l),
(50,623,l),
(50,215,ls),
(50,72,o),
(118,-11,o),
(251,-11,cs)
);
}
);
width = 500;
}
);
note = Ubreve;
unicode = 364;
},
{
glyphname = Ucircumflex;
layers = (
{
layerId = m01;
shapes = (
{
closed = 1;
nodes = (
(125,655,l),
(248,726,l),
(378,656,l),
(408,692,l),
(257,791,l),
(235,791,l),
(92,693,l)
);
},
{
closed = 1;
nodes = (
(374,-11,o),
(454,60,o),
(454,218,cs),
(454,623,l),
(387,623,l),
(387,217,ls),
(387,112,o),
(352,48,o),
(252,48,cs),
(153,48,o),
(119,113,o),
(119,214,cs),
(119,623,l),
(50,623,l),
(50,215,ls),
(50,72,o),
(118,-11,o),
(251,-11,cs)
);
}
);
width = 500;
}
);
note = Ucircumflex;
unicode = 219;
},
{
glyphname = uni0214;
layers = (
{
layerId = m01;
shapes = (
{
closed = 1;
nodes = (
(175,673,l),
(213,699,l),
(129,848,l),
(74,808,l)
);
},
{
closed = 1;
nodes = (
(335,673,l),
(373,699,l),
(289,848,l),
(234,808,l)
);
},
{
closed = 1;
nodes = (
(374,-11,o),
(454,60,o),
(454,218,cs),
(454,623,l),
(387,623,l),
(387,217,ls),
(387,112,o),
(352,48,o),
(252,48,cs),
(153,48,o),
(119,113,o),
(119,214,cs),
(119,623,l),
(50,623,l),
(50,215,ls),
(50,72,o),
(118,-11,o),
(251,-11,cs)
);
}
);
width = 500;
}
);
note = uni0214;
unicode = 532;
},
{
glyphname = Udieresis;
layers = (
{
layerId = m01;
shapes = (
{
closed = 1;
nodes = (
(188,688,o),
(211,711,o),
(211,738,cs),
(211,766,o),
(188,789,o),
(160,789,cs),
(133,789,o),
(110,765,o),
(110,738,cs),
(110,711,o),
(133,688,o),
(160,688,cs)
);
},
{
closed = 1;
nodes = (
(366,688,o),
(389,711,o),
(389,738,cs),
(389,766,o),
(366,789,o),
(338,789,cs),
(311,789,o),
(289,766,o),
(289,738,cs),
(289,710,o),
(311,688,o),
(338,688,cs)
);
},
{
closed = 1;
nodes = (
(374,-11,o),
(454,60,o),
(454,218,cs),
(454,623,l),
(387,623,l),
(387,217,ls),
(387,112,o),
(352,48,o),
(252,48,cs),
(153,48,o),
(119,113,o),
(119,214,cs),
(119,623,l),
(50,623,l),
(50,215,ls),
(50,72,o),
(118,-11,o),
(251,-11,cs)
);
}
);
width = 500;
}
);
note = Udieresis;
unicode = 220;
},
{
glyphname = uni1EE4;
layers = (
{
layerId = m01;
shapes = (
{
closed = 1;
nodes = (
(374,-11,o),
(454,60,o),
(454,218,cs),
(454,623,l),
(387,623,l),
(387,217,ls),
(387,112,o),
(352,48,o),
(252,48,cs),
(153,48,o),
(119,113,o),
(119,214,cs),
(119,623,l),
(50,623,l),
(50,215,ls),
(50,72,o),
(118,-11,o),
(251,-11,cs)
);
},
{
closed = 1;
nodes = (
(277,-147,o),
(301,-124,o),
(301,-96,cs),
(301,-68,o),
(277,-44,o),
(249,-44,cs),
(220,-44,o),
(198,-67,o),
(198,-96,cs),
(198,-124,o),
(221,-147,o),
(249,-147,cs)
);
}
);
width = 500;
}
);
note = uni1EE4;
unicode = 7908;
},
{
glyphname = Ugrave;
layers = (
{
layerId = m01;
shapes = (
{
closed = 1;
nodes = (
(293,660,l),
(316,702,l),
(163,791,l),
(123,721,l)
);
},
{
closed = 1;
nodes = (
(374,-11,o),
(454,60,o),
(454,218,cs),
(454,623,l),
(387,623,l),
(387,217,ls),
(387,112,o),
(352,48,o),
(252,48,cs),
(153,48,o),
(119,113,o),
(119,214,cs),
(119,623,l),
(50,623,l),
(50,215,ls),
(50,72,o),
(118,-11,o),
(251,-11,cs)
);
}
);
width = 500;
}
);
note = Ugrave;
unicode = 217;
},
{
glyphname = uni1EE6;
layers = (
{
layerId = m01;
shapes = (
{
closed = 1;
nodes = (
(335,842,o),
(298,870,o),
(254,870,cs),
(218,870,o),
(192,858,o),
(168,828,c),
(205,790,l),
(213,816,o),
(232,822,o),
(249,822,cs),
(266,822,o),
(280,812,o),
(280,794,cs),
(280,770,o),
(228,751,o),
(228,717,cs),
(228,689,l),
(279,689,l),
(279,696,ls),
(279,746,o),
(335,740,o),
(335,796,cs)
);
},
{
closed = 1;
nodes = (
(374,-11,o),
(454,60,o),
(454,218,cs),
(454,623,l),
(387,623,l),
(387,217,ls),
(387,112,o),
(352,48,o),
(252,48,cs),
(153,48,o),
(119,113,o),
(119,214,cs),
(119,623,l),
(50,623,l),
(50,215,ls),
(50,72,o),
(118,-11,o),
(251,-11,cs)
);
}
);
width = 500;
}
);
note = uni1EE6;
unicode = 7910;
},
{
glyphname = Uhorn;
layers = (
{
layerId = m01;
shapes = (
{
closed = 1;
nodes = (
(337,-11,o),
(409,60,o),
(409,218,cs),
(409,574,l),
(487,574,o),
(497,612,o),
(497,717,c),
(439,717,l),
(439,639,o),
(435,623,o),
(398,623,cs),
(348,623,l),
(348,217,ls),
(348,112,o),
(317,48,o),
(227,48,cs),
(138,48,o),
(107,113,o),
(107,214,cs),
(107,623,l),
(45,623,l),
(45,215,ls),
(45,72,o),
(106,-11,o),
(226,-11,cs)
);
}
);
width = 500;
}
);
note = Uhorn;
unicode = 431;
},
{
glyphname = uni1EE8;
layers = (
{
layerId = m01;
shapes = (
{
closed = 1;
nodes = (
(150,660,l),
(319,721,l),
(279,791,l),
(127,702,l)
);
},
{
closed = 1;
nodes = (
(337,-11,o),
(409,60,o),
(409,218,cs),
(409,574,l),
(487,574,o),
(497,612,o),
(497,717,c),
(439,717,l),
(439,639,o),
(435,623,o),
(398,623,cs),
(348,623,l),
(348,217,ls),
(348,112,o),
(317,48,o),
(227,48,cs),
(138,48,o),
(107,113,o),
(107,214,cs),
(107,623,l),
(45,623,l),
(45,215,ls),
(45,72,o),
(106,-11,o),
(226,-11,cs)
);
}
);
width = 500;
}
);
note = uni1EE8;
unicode = 7912;
},
{
glyphname = uni1EF0;
layers = (
{
layerId = m01;
shapes = (
{
closed = 1;
nodes = (
(337,-11,o),
(409,60,o),
(409,218,cs),
(409,574,l),
(487,574,o),
(497,612,o),
(497,717,c),
(439,717,l),
(439,639,o),
(435,623,o),
(398,623,cs),
(348,623,l),
(348,217,ls),
(348,112,o),
(317,48,o),
(227,48,cs),
(138,48,o),
(107,113,o),
(107,214,cs),
(107,623,l),
(45,623,l),
(45,215,ls),
(45,72,o),
(106,-11,o),
(226,-11,cs)
);
},
{
closed = 1;
nodes = (
(249,-147,o),
(273,-124,o),
(273,-96,cs),
(273,-68,o),
(249,-44,o),
(221,-44,cs),
(192,-44,o),
(170,-67,o),
(170,-96,cs),
(170,-124,o),
(193,-147,o),
(221,-147,cs)
);
}
);
width = 500;
}
);
note = uni1EF0;
unicode = 7920;
},
{
glyphname = uni1EEA;
layers = (
{
layerId = m01;
shapes = (
{
closed = 1;
nodes = (
(266,660,l),
(289,702,l),
(136,791,l),
(96,721,l)
);
},
{
closed = 1;
nodes = (
(337,-11,o),
(409,60,o),
(409,218,cs),
(409,574,l),
(487,574,o),
(497,612,o),
(497,717,c),
(439,717,l),
(439,639,o),
(435,623,o),
(398,623,cs),
(348,623,l),
(348,217,ls),
(348,112,o),
(317,48,o),
(227,48,cs),
(138,48,o),
(107,113,o),
(107,214,cs),
(107,623,l),
(45,623,l),
(45,215,ls),
(45,72,o),
(106,-11,o),
(226,-11,cs)
);
}
);
width = 500;
}
);
note = uni1EEA;
unicode = 7914;
},
{
glyphname = uni1EEC;
layers = (
{
layerId = m01;
shapes = (
{
closed = 1;
nodes = (
(308,842,o),
(271,870,o),
(227,870,cs),
(191,870,o),
(165,858,o),
(141,828,c),
(178,790,l),
(186,816,o),
(205,822,o),
(222,822,cs),
(239,822,o),
(253,812,o),
(253,794,cs),
(253,770,o),
(201,751,o),
(201,717,cs),
(201,689,l),
(252,689,l),
(252,696,ls),
(252,746,o),
(308,740,o),
(308,796,cs)
);
},
{
closed = 1;
nodes = (
(337,-11,o),
(409,60,o),
(409,218,cs),
(409,574,l),
(487,574,o),
(497,612,o),
(497,717,c),
(439,717,l),
(439,639,o),
(435,623,o),
(398,623,cs),
(348,623,l),
(348,217,ls),
(348,112,o),
(317,48,o),
(227,48,cs),
(138,48,o),
(107,113,o),
(107,214,cs),
(107,623,l),
(45,623,l),
(45,215,ls),
(45,72,o),
(106,-11,o),
(226,-11,cs)
);
}
);
width = 500;
}
);
note = uni1EEC;
unicode = 7916;
},
{
glyphname = uni1EEE;
layers = (
{
layerId = m01;
shapes = (
{
closed = 1;
nodes = (
(352,791,l),
(333,754,o),
(322,743,o),
(301,743,cs),
(253,743,o),
(230,797,o),
(171,797,cs),
(119,797,o),
(86,762,o),
(68,717,c),
(117,695,l),
(133,731,o),
(150,742,o),
(173,742,cs),
(218,742,o),
(245,688,o),
(305,688,cs),
(345,688,o),
(369,707,o),
(398,763,c)
);
},
{
closed = 1;
nodes = (
(337,-11,o),
(409,60,o),
(409,218,cs),
(409,574,l),
(487,574,o),
(497,612,o),
(497,717,c),
(439,717,l),
(439,639,o),
(435,623,o),
(398,623,cs),
(348,623,l),
(348,217,ls),
(348,112,o),
(317,48,o),
(227,48,cs),
(138,48,o),
(107,113,o),
(107,214,cs),
(107,623,l),
(45,623,l),
(45,215,ls),
(45,72,o),
(106,-11,o),
(226,-11,cs)
);
}
);
width = 500;
}
);
note = uni1EEE;
unicode = 7918;
},
{
glyphname = Uhungarumlaut;
layers = (
{
layerId = m01;
shapes = (
{
closed = 1;
nodes = (
(282,645,l),
(427,746,l),
(381,810,l),
(250,686,l)
);
},
{
closed = 1;
nodes = (
(104,645,l),
(250,746,l),
(203,810,l),
(72,686,l)
);
},
{
closed = 1;
nodes = (
(374,-11,o),
(454,60,o),
(454,218,cs),
(454,623,l),
(387,623,l),
(387,217,ls),
(387,112,o),
(352,48,o),
(252,48,cs),
(153,48,o),
(119,113,o),
(119,214,cs),
(119,623,l),
(50,623,l),
(50,215,ls),
(50,72,o),
(118,-11,o),
(251,-11,cs)
);
}
);
width = 500;
}
);
note = Uhungarumlaut;
unicode = 368;
},
{
glyphname = uni0216;
layers = (
{
layerId = m01;
shapes = (
{
closed = 1;
nodes = (
(159,694,l),
(181,741,o),
(209,762,o),
(249,762,cs),
(289,762,o),
(317,741,o),
(339,694,c),
(391,718,l),
(361,777,o),
(311,810,o),
(249,810,cs),
(187,810,o),
(137,777,o),
(107,718,c)
);
},
{
closed = 1;
nodes = (
(374,-11,o),
(454,60,o),
(454,218,cs),
(454,623,l),
(387,623,l),
(387,217,ls),
(387,112,o),
(352,48,o),
(252,48,cs),
(153,48,o),
(119,113,o),
(119,214,cs),
(119,623,l),
(50,623,l),
(50,215,ls),
(50,72,o),
(118,-11,o),
(251,-11,cs)
);
}
);
width = 500;
}
);
note = uni0216;
unicode = 534;
},
{
glyphname = Umacron;
layers = (
{
layerId = m01;
shapes = (
{
closed = 1;
nodes = (
(123,731,l),
(377,731,l),
(377,787,l),
(123,787,l)
);
},
{
closed = 1;
nodes = (
(374,-11,o),
(454,60,o),
(454,218,cs),
(454,623,l),
(387,623,l),
(387,217,ls),
(387,112,o),
(352,48,o),
(252,48,cs),
(153,48,o),
(119,113,o),
(119,214,cs),
(119,623,l),
(50,623,l),
(50,215,ls),
(50,72,o),
(118,-11,o),
(251,-11,cs)
);
}
);
width = 500;
}
);
note = Umacron;
unicode = 362;
},
{
glyphname = uni1E7A;
layers = (
{
layerId = m01;
shapes = (
{
closed = 1;
nodes = (
(188,842,o),
(211,865,o),
(211,892,cs),
(211,920,o),
(188,943,o),
(160,943,cs),
(133,943,o),
(110,919,o),
(110,892,cs),
(110,865,o),
(133,842,o),
(160,842,cs)
);
},
{
closed = 1;
nodes = (
(366,842,o),
(389,865,o),
(389,892,cs),
(389,920,o),
(366,943,o),
(338,943,cs),
(311,943,o),
(289,920,o),
(289,892,cs),
(289,864,o),
(311,842,o),
(338,842,cs)
);
},
{
closed = 1;
nodes = (
(123,731,l),
(377,731,l),
(377,787,l),
(123,787,l)
);
},
{
closed = 1;
nodes = (
(374,-11,o),
(454,60,o),
(454,218,cs),
(454,623,l),
(387,623,l),
(387,217,ls),
(387,112,o),
(352,48,o),
(252,48,cs),
(153,48,o),
(119,113,o),
(119,214,cs),
(119,623,l),
(50,623,l),
(50,215,ls),
(50,72,o),
(118,-11,o),
(251,-11,cs)
);
}
);
width = 500;
}
);
note = uni1E7A;
unicode = 7802;
},
{
glyphname = Uogonek;
layers = (
{
layerId = m01;
shapes = (
{
closed = 1;
nodes = (
(258,-11,o),
(265,-11,o),
(272,-10,c),
(228,-47,o),
(204,-88,o),
(204,-127,cs),
(204,-178,o),
(250,-208,o),
(316,-217,c),
(332,-169,l),
(289,-163,o),
(270,-141,o),
(270,-113,cs),
(270,-77,o),
(301,-30,o),
(352,10,c),
(416,41,o),
(454,109,o),
(454,218,cs),
(454,623,l),
(387,623,l),
(387,217,ls),
(387,112,o),
(352,48,o),
(252,48,cs),
(153,48,o),
(119,113,o),
(119,214,cs),
(119,623,l),
(50,623,l),
(50,215,ls),
(50,72,o),
(118,-11,o),
(251,-11,cs)
);
}
);
width = 500;
}
);
note = Uogonek;
unicode = 370;
},
{
glyphname = Uring;
layers = (
{
layerId = m01;
shapes = (
{
closed = 1;
nodes = (
(301,619,o),
(341,659,o),
(341,706,cs),
(341,756,o),
(299,795,o),
(250,795,cs),
(201,795,o),
(158,755,o),
(158,707,cs),
(158,659,o),
(200,619,o),
(250,619,cs)
);
},
{
closed = 1;
nodes = (
(228,662,o),
(209,682,o),
(209,707,cs),
(209,734,o),
(228,753,o),
(251,753,cs),
(274,753,o),
(292,734,o),
(292,707,cs),
(292,682,o),
(274,662,o),
(251,662,cs)
);
},
{
closed = 1;
nodes = (
(374,-11,o),
(454,60,o),
(454,218,cs),
(454,623,l),
(387,623,l),
(387,217,ls),
(387,112,o),
(352,48,o),
(252,48,cs),
(153,48,o),
(119,113,o),
(119,214,cs),
(119,623,l),
(50,623,l),
(50,215,ls),
(50,72,o),
(118,-11,o),
(251,-11,cs)
);
}
);
width = 500;
}
);
note = Uring;
unicode = 366;
},
{
glyphname = Utilde;
layers = (
{
layerId = m01;
shapes = (
{
closed = 1;
nodes = (
(379,791,l),
(360,754,o),
(349,743,o),
(328,743,cs),
(280,743,o),
(257,797,o),
(198,797,cs),
(146,797,o),
(113,762,o),
(95,717,c),
(144,695,l),
(160,731,o),
(177,742,o),
(200,742,cs),
(245,742,o),
(272,688,o),
(332,688,cs),
(372,688,o),
(396,707,o),
(425,763,c)
);
},
{
closed = 1;
nodes = (
(374,-11,o),
(454,60,o),
(454,218,cs),
(454,623,l),
(387,623,l),
(387,217,ls),
(387,112,o),
(352,48,o),
(252,48,cs),
(153,48,o),
(119,113,o),
(119,214,cs),
(119,623,l),
(50,623,l),
(50,215,ls),
(50,72,o),
(118,-11,o),
(251,-11,cs)
);
}
);
width = 500;
}
);
note = Utilde;
unicode = 360;
},
{
glyphname = uni1E78;
layers = (
{
layerId = m01;
shapes = (
{
closed = 1;
nodes = (
(177,815,l),
(346,876,l),
(306,946,l),
(154,857,l)
);
},
{
closed = 1;
nodes = (
(379,791,l),
(360,754,o),
(349,743,o),
(328,743,cs),
(280,743,o),
(257,797,o),
(198,797,cs),
(146,797,o),
(113,762,o),
(95,717,c),
(144,695,l),
(160,731,o),
(177,742,o),
(200,742,cs),
(245,742,o),
(272,688,o),
(332,688,cs),
(372,688,o),
(396,707,o),
(425,763,c)
);
},
{
closed = 1;
nodes = (
(374,-11,o),
(454,60,o),
(454,218,cs),
(454,623,l),
(387,623,l),
(387,217,ls),
(387,112,o),
(352,48,o),
(252,48,cs),
(153,48,o),
(119,113,o),
(119,214,cs),
(119,623,l),
(50,623,l),
(50,215,ls),
(50,72,o),
(118,-11,o),
(251,-11,cs)
);
}
);
width = 500;
}
);
note = uni1E78;
unicode = 7800;
},
{
glyphname = V;
layers = (
{
layerId = m01;
shapes = (
{
closed = 1;
nodes = (
(237,-4,l),
(269,-4,l),
(478,623,l),
(409,623,l),
(258,145,l),
(98,624,l),
(25,624,l)
);
}
);
width = 500;
}
);
note = V;
unicode = 86;
},
{
glyphname = W;
layers = (
{
layerId = m01;
shapes = (
{
closed = 1;
nodes = (
(117,0,l),
(146,0,l),
(255,407,l),
(362,0,l),
(389,0,l),
(488,623,l),
(429,623,l),
(372,200,l),
(271,577,l),
(249,577,l),
(149,202,l),
(82,623,l),
(17,623,l)
);
}
);
width = 500;
}
);
note = W;
unicode = 87;
},
{
glyphname = Wacute;
layers = (
{
layerId = m01;
shapes = (
{
closed = 1;
nodes = (
(187,660,l),
(356,721,l),
(316,791,l),
(164,702,l)
);
},
{
closed = 1;
nodes = (
(117,0,l),
(146,0,l),
(255,407,l),
(362,0,l),
(389,0,l),
(488,623,l),
(429,623,l),
(372,200,l),
(271,577,l),
(249,577,l),
(149,202,l),
(82,623,l),
(17,623,l)
);
}
);
width = 500;
}
);
note = Wacute;
unicode = 7810;
},
{
glyphname = Wcircumflex;
layers = (
{
layerId = m01;
shapes = (
{
closed = 1;
nodes = (
(135,655,l),
(258,726,l),
(388,656,l),
(418,692,l),
(267,791,l),
(245,791,l),
(102,693,l)
);
},
{
closed = 1;
nodes = (
(117,0,l),
(146,0,l),
(255,407,l),
(362,0,l),
(389,0,l),
(488,623,l),
(429,623,l),
(372,200,l),
(271,577,l),
(249,577,l),
(149,202,l),
(82,623,l),
(17,623,l)
);
}
);
width = 500;
}
);
note = Wcircumflex;
unicode = 372;
},
{
glyphname = Wdieresis;
layers = (
{
layerId = m01;
shapes = (
{
closed = 1;
nodes = (
(198,688,o),
(221,711,o),
(221,738,cs),
(221,766,o),
(198,789,o),
(170,789,cs),
(143,789,o),
(120,765,o),
(120,738,cs),
(120,711,o),
(143,688,o),
(170,688,cs)
);
},
{
closed = 1;
nodes = (
(376,688,o),
(399,711,o),
(399,738,cs),
(399,766,o),
(376,789,o),
(348,789,cs),
(321,789,o),
(299,766,o),
(299,738,cs),
(299,710,o),
(321,688,o),
(348,688,cs)
);
},
{
closed = 1;
nodes = (
(117,0,l),
(146,0,l),
(255,407,l),
(362,0,l),
(389,0,l),
(488,623,l),
(429,623,l),
(372,200,l),
(271,577,l),
(249,577,l),
(149,202,l),
(82,623,l),
(17,623,l)
);
}
);
width = 500;
}
);
note = Wdieresis;
unicode = 7812;
},
{
glyphname = Wgrave;
layers = (
{
layerId = m01;
shapes = (
{
closed = 1;
nodes = (
(303,660,l),
(326,702,l),
(173,791,l),
(133,721,l)
);
},
{
closed = 1;
nodes = (
(117,0,l),
(146,0,l),
(255,407,l),
(362,0,l),
(389,0,l),
(488,623,l),
(429,623,l),
(372,200,l),
(271,577,l),
(249,577,l),
(149,202,l),
(82,623,l),
(17,623,l)
);
}
);
width = 500;
}
);
note = Wgrave;
unicode = 7808;
},
{
glyphname = X;
layers = (
{
layerId = m01;
shapes = (
{
closed = 1;
nodes = (
(41,0,l),
(117,0,l),
(251,247,l),
(389,0,l),
(468,0,l),
(291,319,l),
(449,624,l),
(379,624,l),
(250,387,l),
(119,624,l),
(44,624,l),
(211,318,l)
);
}
);
width = 500;
}
);
note = X;
unicode = 88;
},
{
glyphname = Y;
layers = (
{
layerId = m01;
shapes = (
{
closed = 1;
nodes = (
(220,0,l),
(296,0,l),
(296,246,l),
(473,623,l),
(399,623,l),
(261,321,l),
(108,623,l),
(28,623,l),
(220,246,l)
);
}
);
width = 500;
}
);
note = Y;
unicode = 89;
},
{
glyphname = Yacute;
layers = (
{
layerId = m01;
shapes = (
{
closed = 1;
nodes = (
(177,660,l),
(346,721,l),
(306,791,l),
(154,702,l)
);
},
{
closed = 1;
nodes = (
(220,0,l),
(296,0,l),
(296,246,l),
(473,623,l),
(399,623,l),
(261,321,l),
(108,623,l),
(28,623,l),
(220,246,l)
);
}
);
width = 500;
}
);
note = Yacute;
unicode = 221;
},
{
glyphname = Ycircumflex;
layers = (
{
layerId = m01;
shapes = (
{
closed = 1;
nodes = (
(125,655,l),
(248,726,l),
(378,656,l),
(408,692,l),
(257,791,l),
(235,791,l),
(92,693,l)
);
},
{
closed = 1;
nodes = (
(220,0,l),
(296,0,l),
(296,246,l),
(473,623,l),
(399,623,l),
(261,321,l),
(108,623,l),
(28,623,l),
(220,246,l)
);
}
);
width = 500;
}
);
note = Ycircumflex;
unicode = 374;
},
{
glyphname = Ydieresis;
layers = (
{
layerId = m01;
shapes = (
{
closed = 1;
nodes = (
(188,688,o),
(211,711,o),
(211,738,cs),
(211,766,o),
(188,789,o),
(160,789,cs),
(133,789,o),
(110,765,o),
(110,738,cs),
(110,711,o),
(133,688,o),
(160,688,cs)
);
},
{
closed = 1;
nodes = (
(366,688,o),
(389,711,o),
(389,738,cs),
(389,766,o),
(366,789,o),
(338,789,cs),
(311,789,o),
(289,766,o),
(289,738,cs),
(289,710,o),
(311,688,o),
(338,688,cs)
);
},
{
closed = 1;
nodes = (
(220,0,l),
(296,0,l),
(296,246,l),
(473,623,l),
(399,623,l),
(261,321,l),
(108,623,l),
(28,623,l),
(220,246,l)
);
}
);
width = 500;
}
);
note = Ydieresis;
unicode = 376;
},
{
glyphname = uni1E8E;
layers = (
{
layerId = m01;
shapes = (
{
closed = 1;
nodes = (
(276,693,o),
(300,716,o),
(300,744,cs),
(300,772,o),
(276,796,o),
(248,796,cs),
(219,796,o),
(197,773,o),
(197,744,cs),
(197,716,o),
(220,693,o),
(248,693,cs)
);
},
{
closed = 1;
nodes = (
(220,0,l),
(296,0,l),
(296,246,l),
(473,623,l),
(399,623,l),
(261,321,l),
(108,623,l),
(28,623,l),
(220,246,l)
);
}
);
width = 500;
}
);
note = uni1E8E;
unicode = 7822;
},
{
glyphname = uni1EF4;
layers = (
{
layerId = m01;
shapes = (
{
closed = 1;
nodes = (
(220,0,l),
(296,0,l),
(296,246,l),
(473,623,l),
(399,623,l),
(261,321,l),
(108,623,l),
(28,623,l),
(220,246,l)
);
},
{
closed = 1;
nodes = (
(285,-147,o),
(309,-124,o),
(309,-96,cs),
(309,-68,o),
(285,-44,o),
(257,-44,cs),
(228,-44,o),
(206,-67,o),
(206,-96,cs),
(206,-124,o),
(229,-147,o),
(257,-147,cs)
);
}
);
width = 500;
}
);
note = uni1EF4;
unicode = 7924;
},
{
glyphname = Ygrave;
layers = (
{
layerId = m01;
shapes = (
{
closed = 1;
nodes = (
(293,660,l),
(316,702,l),
(163,791,l),
(123,721,l)
);
},
{
closed = 1;
nodes = (
(220,0,l),
(296,0,l),
(296,246,l),
(473,623,l),
(399,623,l),
(261,321,l),
(108,623,l),
(28,623,l),
(220,246,l)
);
}
);
width = 500;
}
);
note = Ygrave;
unicode = 7922;
},
{
glyphname = uni1EF6;
layers = (
{
layerId = m01;
shapes = (
{
closed = 1;
nodes = (
(335,842,o),
(298,870,o),
(254,870,cs),
(218,870,o),
(192,858,o),
(168,828,c),
(205,790,l),
(213,816,o),
(232,822,o),
(249,822,cs),
(266,822,o),
(280,812,o),
(280,794,cs),
(280,770,o),
(228,751,o),
(228,717,cs),
(228,689,l),
(279,689,l),
(279,696,ls),
(279,746,o),
(335,740,o),
(335,796,cs)
);
},
{
closed = 1;
nodes = (
(220,0,l),
(296,0,l),
(296,246,l),
(473,623,l),
(399,623,l),
(261,321,l),
(108,623,l),
(28,623,l),
(220,246,l)
);
}
);
width = 500;
}
);
note = uni1EF6;
unicode = 7926;
},
{
glyphname = uni0232;
layers = (
{
layerId = m01;
shapes = (
{
closed = 1;
nodes = (
(123,731,l),
(377,731,l),
(377,787,l),
(123,787,l)
);
},
{
closed = 1;
nodes = (
(220,0,l),
(296,0,l),
(296,246,l),
(473,623,l),
(399,623,l),
(261,321,l),
(108,623,l),
(28,623,l),
(220,246,l)
);
}
);
width = 500;
}
);
note = uni0232;
unicode = 562;
},
{
glyphname = uni1EF8;
layers = (
{
layerId = m01;
shapes = (
{
closed = 1;
nodes = (
(379,791,l),
(360,754,o),
(349,743,o),
(328,743,cs),
(280,743,o),
(257,797,o),
(198,797,cs),
(146,797,o),
(113,762,o),
(95,717,c),
(144,695,l),
(160,731,o),
(177,742,o),
(200,742,cs),
(245,742,o),
(272,688,o),
(332,688,cs),
(372,688,o),
(396,707,o),
(425,763,c)
);
},
{
closed = 1;
nodes = (
(220,0,l),
(296,0,l),
(296,246,l),
(473,623,l),
(399,623,l),
(261,321,l),
(108,623,l),
(28,623,l),
(220,246,l)
);
}
);
width = 500;
}
);
note = uni1EF8;
unicode = 7928;
},
{
glyphname = Z;
lastChange = "2022-09-06 02:14:32 +0000";
layers = (
{
layerId = m01;
shapes = (
{
closed = 1;
nodes = (
(50,0,l),
(463,0,l),
(463,62,l),
(138,62,l),
(447,574,l),
(447,623,l),
(62,623,l),
(62,560,l),
(364,560,l),
(50,49,l)
);
},
{
closed = 1;
nodes = (
(98,280,l),
(400,280,l),
(400,343,l),
(98,343,l)
);
}
);
width = 500;
}
);
note = Z;
unicode = 90;
},
{
glyphname = Zacute;
lastChange = "2022-09-06 02:15:52 +0000";
layers = (
{
layerId = m01;
shapes = (
{
closed = 1;
nodes = (
(187,660,l),
(356,721,l),
(316,791,l),
(164,702,l)
);
},
{
closed = 1;
nodes = (
(50,0,l),
(463,0,l),
(463,62,l),
(138,62,l),
(447,574,l),
(447,623,l),
(62,623,l),
(62,560,l),
(364,560,l),
(50,49,l)
);
},
{
closed = 1;
nodes = (
(98,280,l),
(400,280,l),
(400,343,l),
(98,343,l)
);
}
);
width = 500;
}
);
note = Zacute;
unicode = 377;
},
{
glyphname = Zcaron;
lastChange = "2022-09-06 02:15:57 +0000";
layers = (
{
layerId = m01;
shapes = (
{
closed = 1;
nodes = (
(381,793,l),
(258,722,l),
(128,792,l),
(98,756,l),
(249,657,l),
(271,657,l),
(414,755,l)
);
},
{
closed = 1;
nodes = (
(50,0,l),
(463,0,l),
(463,62,l),
(138,62,l),
(447,574,l),
(447,623,l),
(62,623,l),
(62,560,l),
(364,560,l),
(50,49,l)
);
},
{
closed = 1;
nodes = (
(98,280,l),
(400,280,l),
(400,343,l),
(98,343,l)
);
}
);
width = 500;
}
);
note = Zcaron;
unicode = 381;
},
{
glyphname = Zdotaccent;
lastChange = "2022-09-06 02:16:02 +0000";
layers = (
{
layerId = m01;
shapes = (
{
closed = 1;
nodes = (
(286,693,o),
(310,716,o),
(310,744,cs),
(310,772,o),
(286,796,o),
(258,796,cs),
(229,796,o),
(207,773,o),
(207,744,cs),
(207,716,o),
(230,693,o),
(258,693,cs)
);
},
{
closed = 1;
nodes = (
(50,0,l),
(463,0,l),
(463,62,l),
(138,62,l),
(447,574,l),
(447,623,l),
(62,623,l),
(62,560,l),
(364,560,l),
(50,49,l)
);
},
{
closed = 1;
nodes = (
(98,280,l),
(400,280,l),
(400,343,l),
(98,343,l)
);
}
);
width = 500;
}
);
note = Zdotaccent;
unicode = 379;
},
{
glyphname = uni1E92;
lastChange = "2022-09-06 02:16:05 +0000";
layers = (
{
layerId = m01;
shapes = (
{
closed = 1;
nodes = (
(50,0,l),
(463,0,l),
(463,62,l),
(138,62,l),
(447,574,l),
(447,623,l),
(62,623,l),
(62,560,l),
(364,560,l),
(50,49,l)
);
},
{
closed = 1;
nodes = (
(297,-147,o),
(321,-124,o),
(321,-96,cs),
(321,-68,o),
(297,-44,o),
(269,-44,cs),
(240,-44,o),
(218,-67,o),
(218,-96,cs),
(218,-124,o),
(241,-147,o),
(269,-147,cs)
);
},
{
closed = 1;
nodes = (
(98,280,l),
(400,280,l),
(400,343,l),
(98,343,l)
);
}
);
width = 500;
}
);
note = uni1E92;
unicode = 7826;
},
{
glyphname = U.i;
lastChange = "2022-09-06 02:10:59 +0000";
layers = (
{
layerId = m01;
shapes = (
{
closed = 1;
nodes = (
(337,-11,o),
(409,60,o),
(409,218,cs),
(409,623,l),
(348,623,l),
(348,217,ls),
(348,112,o),
(317,48,o),
(227,48,cs),
(138,48,o),
(107,113,o),
(107,214,cs),
(107,623,l),
(45,623,l),
(45,215,ls),
(45,72,o),
(106,-11,o),
(226,-11,cs)
);
}
);
width = 500;
}
);
note = U.i;
},
{
glyphname = a;
layers = (
{
layerId = m01;
shapes = (
{
closed = 1;
nodes = (
(264,-11,o),
(332,3,o),
(367,70,c),
(367,0,l),
(445,0,l),
(445,243,ls),
(445,415,o),
(365,467,o),
(244,467,cs),
(181,467,o),
(124,446,o),
(81,403,c),
(116,357,l),
(151,391,o),
(195,408,o),
(239,408,cs),
(327,408,o),
(374,374,o),
(382,268,c),
(344,273,o),
(310,274,o),
(279,274,cs),
(153,274,o),
(49,213,o),
(49,115,cs),
(49,41,o),
(107,-11,o),
(211,-11,cs)
);
},
{
closed = 1;
nodes = (
(121,190,o),
(189,220,o),
(285,220,cs),
(315,220,o),
(350,218,o),
(382,213,c),
(376,104,o),
(316,44,o),
(218,44,cs),
(163,44,o),
(121,62,o),
(121,119,cs)
);
}
);
width = 500;
}
);
note = a;
unicode = 97;
},
{
glyphname = aacute;
layers = (
{
layerId = m01;
shapes = (
{
closed = 1;
nodes = (
(243,507,l),
(344,642,l),
(289,682,l),
(205,533,l)
);
},
{
closed = 1;
nodes = (
(264,-11,o),
(332,3,o),
(367,70,c),
(367,0,l),
(445,0,l),
(445,243,ls),
(445,415,o),
(365,467,o),
(244,467,cs),
(181,467,o),
(124,446,o),
(81,403,c),
(116,357,l),
(151,391,o),
(195,408,o),
(239,408,cs),
(327,408,o),
(374,374,o),
(382,268,c),
(344,273,o),
(310,274,o),
(279,274,cs),
(153,274,o),
(49,213,o),
(49,115,cs),
(49,41,o),
(107,-11,o),
(211,-11,cs)
);
},
{
closed = 1;
nodes = (
(121,190,o),
(189,220,o),
(285,220,cs),
(315,220,o),
(350,218,o),
(382,213,c),
(376,104,o),
(316,44,o),
(218,44,cs),
(163,44,o),
(121,62,o),
(121,119,cs)
);
}
);
width = 500;
}
);
note = aacute;
unicode = 225;
},
{
glyphname = abreve;
layers = (
{
layerId = m01;
shapes = (
{
closed = 1;
nodes = (
(340,654,l),
(318,607,o),
(290,586,o),
(250,586,cs),
(210,586,o),
(182,607,o),
(160,654,c),
(108,630,l),
(138,571,o),
(188,538,o),
(250,538,cs),
(312,538,o),
(362,571,o),
(392,630,c)
);
},
{
closed = 1;
nodes = (
(264,-11,o),
(332,3,o),
(367,70,c),
(367,0,l),
(445,0,l),
(445,243,ls),
(445,415,o),
(365,467,o),
(244,467,cs),
(181,467,o),
(124,446,o),
(81,403,c),
(116,357,l),
(151,391,o),
(195,408,o),
(239,408,cs),
(327,408,o),
(374,374,o),
(382,268,c),
(344,273,o),
(310,274,o),
(279,274,cs),
(153,274,o),
(49,213,o),
(49,115,cs),
(49,41,o),
(107,-11,o),
(211,-11,cs)
);
},
{
closed = 1;
nodes = (
(121,190,o),
(189,220,o),
(285,220,cs),
(315,220,o),
(350,218,o),
(382,213,c),
(376,104,o),
(316,44,o),
(218,44,cs),
(163,44,o),
(121,62,o),
(121,119,cs)
);
}
);
width = 500;
}
);
note = abreve;
unicode = 259;
},
{
glyphname = uni1EAF;
layers = (
{
layerId = m01;
shapes = (
{
closed = 1;
nodes = (
(254,638,l),
(355,773,l),
(300,813,l),
(216,664,l)
);
},
{
closed = 1;
nodes = (
(340,654,l),
(318,607,o),
(290,586,o),
(250,586,cs),
(210,586,o),
(182,607,o),
(160,654,c),
(108,630,l),
(138,571,o),
(188,538,o),
(250,538,cs),
(312,538,o),
(362,571,o),
(392,630,c)
);
},
{
closed = 1;
nodes = (
(264,-11,o),
(332,3,o),
(367,70,c),
(367,0,l),
(445,0,l),
(445,243,ls),
(445,415,o),
(365,467,o),
(244,467,cs),
(181,467,o),
(124,446,o),
(81,403,c),
(116,357,l),
(151,391,o),
(195,408,o),
(239,408,cs),
(327,408,o),
(374,374,o),
(382,268,c),
(344,273,o),
(310,274,o),
(279,274,cs),
(153,274,o),
(49,213,o),
(49,115,cs),
(49,41,o),
(107,-11,o),
(211,-11,cs)
);
},
{
closed = 1;
nodes = (
(121,190,o),
(189,220,o),
(285,220,cs),
(315,220,o),
(350,218,o),
(382,213,c),
(376,104,o),
(316,44,o),
(218,44,cs),
(163,44,o),
(121,62,o),
(121,119,cs)
);
}
);
width = 500;
}
);
note = uni1EAF;
unicode = 7855;
},
{
glyphname = uni1EB7;
layers = (
{
layerId = m01;
shapes = (
{
closed = 1;
nodes = (
(340,654,l),
(318,607,o),
(290,586,o),
(250,586,cs),
(210,586,o),
(182,607,o),
(160,654,c),
(108,630,l),
(138,571,o),
(188,538,o),
(250,538,cs),
(312,538,o),
(362,571,o),
(392,630,c)
);
},
{
closed = 1;
nodes = (
(264,-11,o),
(332,3,o),
(367,70,c),
(367,0,l),
(445,0,l),
(445,243,ls),
(445,415,o),
(365,467,o),
(244,467,cs),
(181,467,o),
(124,446,o),
(81,403,c),
(116,357,l),
(151,391,o),
(195,408,o),
(239,408,cs),
(327,408,o),
(374,374,o),
(382,268,c),
(344,273,o),
(310,274,o),
(279,274,cs),
(153,274,o),
(49,213,o),
(49,115,cs),
(49,41,o),
(107,-11,o),
(211,-11,cs)
);
},
{
closed = 1;
nodes = (
(121,190,o),
(189,220,o),
(285,220,cs),
(315,220,o),
(350,218,o),
(382,213,c),
(376,104,o),
(316,44,o),
(218,44,cs),
(163,44,o),
(121,62,o),
(121,119,cs)
);
},
{
closed = 1;
nodes = (
(277,-147,o),
(301,-124,o),
(301,-96,cs),
(301,-68,o),
(277,-44,o),
(249,-44,cs),
(220,-44,o),
(198,-67,o),
(198,-96,cs),
(198,-124,o),
(221,-147,o),
(249,-147,cs)
);
}
);
width = 500;
}
);
note = uni1EB7;
unicode = 7863;
},
{
glyphname = uni1EB1;
layers = (
{
layerId = m01;
shapes = (
{
closed = 1;
nodes = (
(255,638,l),
(293,664,l),
(209,813,l),
(154,773,l)
);
},
{
closed = 1;
nodes = (
(340,654,l),
(318,607,o),
(290,586,o),
(250,586,cs),
(210,586,o),
(182,607,o),
(160,654,c),
(108,630,l),
(138,571,o),
(188,538,o),
(250,538,cs),
(312,538,o),
(362,571,o),
(392,630,c)
);
},
{
closed = 1;
nodes = (
(264,-11,o),
(332,3,o),
(367,70,c),
(367,0,l),
(445,0,l),
(445,243,ls),
(445,415,o),
(365,467,o),
(244,467,cs),
(181,467,o),
(124,446,o),
(81,403,c),
(116,357,l),
(151,391,o),
(195,408,o),
(239,408,cs),
(327,408,o),
(374,374,o),
(382,268,c),
(344,273,o),
(310,274,o),
(279,274,cs),
(153,274,o),
(49,213,o),
(49,115,cs),
(49,41,o),
(107,-11,o),
(211,-11,cs)
);
},
{
closed = 1;
nodes = (
(121,190,o),
(189,220,o),
(285,220,cs),
(315,220,o),
(350,218,o),
(382,213,c),
(376,104,o),
(316,44,o),
(218,44,cs),
(163,44,o),
(121,62,o),
(121,119,cs)
);
}
);
width = 500;
}
);
note = uni1EB1;
unicode = 7857;
},
{
glyphname = uni1EB3;
layers = (
{
layerId = m01;
shapes = (
{
closed = 1;
nodes = (
(329,803,o),
(292,831,o),
(248,831,cs),
(212,831,o),
(186,819,o),
(162,789,c),
(199,751,l),
(207,777,o),
(226,783,o),
(243,783,cs),
(260,783,o),
(274,773,o),
(274,755,cs),
(274,731,o),
(222,712,o),
(222,678,cs),
(222,650,l),
(273,650,l),
(273,657,ls),
(273,707,o),
(329,701,o),
(329,757,cs)
);
},
{
closed = 1;
nodes = (
(340,654,l),
(318,607,o),
(290,586,o),
(250,586,cs),
(210,586,o),
(182,607,o),
(160,654,c),
(108,630,l),
(138,571,o),
(188,538,o),
(250,538,cs),
(312,538,o),
(362,571,o),
(392,630,c)
);
},
{
closed = 1;
nodes = (
(264,-11,o),
(332,3,o),
(367,70,c),
(367,0,l),
(445,0,l),
(445,243,ls),
(445,415,o),
(365,467,o),
(244,467,cs),
(181,467,o),
(124,446,o),
(81,403,c),
(116,357,l),
(151,391,o),
(195,408,o),
(239,408,cs),
(327,408,o),
(374,374,o),
(382,268,c),
(344,273,o),
(310,274,o),
(279,274,cs),
(153,274,o),
(49,213,o),
(49,115,cs),
(49,41,o),
(107,-11,o),
(211,-11,cs)
);
},
{
closed = 1;
nodes = (
(121,190,o),
(189,220,o),
(285,220,cs),
(315,220,o),
(350,218,o),
(382,213,c),
(376,104,o),
(316,44,o),
(218,44,cs),
(163,44,o),
(121,62,o),
(121,119,cs)
);
}
);
width = 500;
}
);
note = uni1EB3;
unicode = 7859;
},
{
glyphname = uni1EB5;
layers = (
{
layerId = m01;
shapes = (
{
closed = 1;
nodes = (
(344,790,l),
(332,760,o),
(320,748,o),
(305,748,cs),
(276,748,o),
(238,802,o),
(189,802,cs),
(155,802,o),
(119,772,o),
(104,727,c),
(150,705,l),
(161,733,o),
(178,747,o),
(195,747,cs),
(227,747,o),
(256,693,o),
(305,693,cs),
(339,693,o),
(365,712,o),
(390,768,c)
);
},
{
closed = 1;
nodes = (
(336,654,l),
(314,607,o),
(286,586,o),
(246,586,cs),
(206,586,o),
(178,607,o),
(156,654,c),
(104,630,l),
(134,571,o),
(184,538,o),
(246,538,cs),
(308,538,o),
(358,571,o),
(388,630,c)
);
},
{
closed = 1;
nodes = (
(264,-11,o),
(332,3,o),
(367,70,c),
(367,0,l),
(445,0,l),
(445,243,ls),
(445,415,o),
(365,467,o),
(244,467,cs),
(181,467,o),
(124,446,o),
(81,403,c),
(116,357,l),
(151,391,o),
(195,408,o),
(239,408,cs),
(327,408,o),
(374,374,o),
(382,268,c),
(344,273,o),
(310,274,o),
(279,274,cs),
(153,274,o),
(49,213,o),
(49,115,cs),
(49,41,o),
(107,-11,o),
(211,-11,cs)
);
},
{
closed = 1;
nodes = (
(121,190,o),
(189,220,o),
(285,220,cs),
(315,220,o),
(350,218,o),
(382,213,c),
(376,104,o),
(316,44,o),
(218,44,cs),
(163,44,o),
(121,62,o),
(121,119,cs)
);
}
);
width = 500;
}
);
note = uni1EB5;
unicode = 7861;
},
{
glyphname = acircumflex;
layers = (
{
layerId = m01;
shapes = (
{
closed = 1;
nodes = (
(139,511,l),
(250,621,l),
(361,511,l),
(401,545,l),
(262,685,l),
(238,685,l),
(99,545,l)
);
},
{
closed = 1;
nodes = (
(264,-11,o),
(332,3,o),
(367,70,c),
(367,0,l),
(445,0,l),
(445,243,ls),
(445,415,o),
(365,467,o),
(244,467,cs),
(181,467,o),
(124,446,o),
(81,403,c),
(116,357,l),
(151,391,o),
(195,408,o),
(239,408,cs),
(327,408,o),
(374,374,o),
(382,268,c),
(344,273,o),
(310,274,o),
(279,274,cs),
(153,274,o),
(49,213,o),
(49,115,cs),
(49,41,o),
(107,-11,o),
(211,-11,cs)
);
},
{
closed = 1;
nodes = (
(121,190,o),
(189,220,o),
(285,220,cs),
(315,220,o),
(350,218,o),
(382,213,c),
(376,104,o),
(316,44,o),
(218,44,cs),
(163,44,o),
(121,62,o),
(121,119,cs)
);
}
);
width = 500;
}
);
note = acircumflex;
unicode = 226;
},
{
glyphname = uni1EA5;
layers = (
{
layerId = m01;
shapes = (
{
closed = 1;
nodes = (
(385,631,l),
(486,766,l),
(431,806,l),
(347,657,l)
);
},
{
closed = 1;
nodes = (
(139,511,l),
(250,621,l),
(361,511,l),
(401,545,l),
(262,685,l),
(238,685,l),
(99,545,l)
);
},
{
closed = 1;
nodes = (
(264,-11,o),
(332,3,o),
(367,70,c),
(367,0,l),
(445,0,l),
(445,243,ls),
(445,415,o),
(365,467,o),
(244,467,cs),
(181,467,o),
(124,446,o),
(81,403,c),
(116,357,l),
(151,391,o),
(195,408,o),
(239,408,cs),
(327,408,o),
(374,374,o),
(382,268,c),
(344,273,o),
(310,274,o),
(279,274,cs),
(153,274,o),
(49,213,o),
(49,115,cs),
(49,41,o),
(107,-11,o),
(211,-11,cs)
);
},
{
closed = 1;
nodes = (
(121,190,o),
(189,220,o),
(285,220,cs),
(315,220,o),
(350,218,o),
(382,213,c),
(376,104,o),
(316,44,o),
(218,44,cs),
(163,44,o),
(121,62,o),
(121,119,cs)
);
}
);
width = 500;
}
);
note = uni1EA5;
unicode = 7845;
},
{
glyphname = uni1EAD;
layers = (
{
layerId = m01;
shapes = (
{
closed = 1;
nodes = (
(139,511,l),
(250,621,l),
(361,511,l),
(401,545,l),
(262,685,l),
(238,685,l),
(99,545,l)
);
},
{
closed = 1;
nodes = (
(264,-11,o),
(332,3,o),
(367,70,c),
(367,0,l),
(445,0,l),
(445,243,ls),
(445,415,o),
(365,467,o),
(244,467,cs),
(181,467,o),
(124,446,o),
(81,403,c),
(116,357,l),
(151,391,o),
(195,408,o),
(239,408,cs),
(327,408,o),
(374,374,o),
(382,268,c),
(344,273,o),
(310,274,o),
(279,274,cs),
(153,274,o),
(49,213,o),
(49,115,cs),
(49,41,o),
(107,-11,o),
(211,-11,cs)
);
},
{
closed = 1;
nodes = (
(121,190,o),
(189,220,o),
(285,220,cs),
(315,220,o),
(350,218,o),
(382,213,c),
(376,104,o),
(316,44,o),
(218,44,cs),
(163,44,o),
(121,62,o),
(121,119,cs)
);
},
{
closed = 1;
nodes = (
(277,-147,o),
(301,-124,o),
(301,-96,cs),
(301,-68,o),
(277,-44,o),
(249,-44,cs),
(220,-44,o),
(198,-67,o),
(198,-96,cs),
(198,-124,o),
(221,-147,o),
(249,-147,cs)
);
}
);
width = 500;
}
);
note = uni1EAD;
unicode = 7853;
},
{
glyphname = uni1EA7;
layers = (
{
layerId = m01;
shapes = (
{
closed = 1;
nodes = (
(379,652,l),
(417,678,l),
(333,827,l),
(278,787,l)
);
},
{
closed = 1;
nodes = (
(141,511,l),
(252,621,l),
(363,511,l),
(403,545,l),
(264,685,l),
(240,685,l),
(101,545,l)
);
},
{
closed = 1;
nodes = (
(264,-11,o),
(332,3,o),
(367,70,c),
(367,0,l),
(445,0,l),
(445,243,ls),
(445,415,o),
(365,467,o),
(244,467,cs),
(181,467,o),
(124,446,o),
(81,403,c),
(116,357,l),
(151,391,o),
(195,408,o),
(239,408,cs),
(327,408,o),
(374,374,o),
(382,268,c),
(344,273,o),
(310,274,o),
(279,274,cs),
(153,274,o),
(49,213,o),
(49,115,cs),
(49,41,o),
(107,-11,o),
(211,-11,cs)
);
},
{
closed = 1;
nodes = (
(121,190,o),
(189,220,o),
(285,220,cs),
(315,220,o),
(350,218,o),
(382,213,c),
(376,104,o),
(316,44,o),
(218,44,cs),
(163,44,o),
(121,62,o),
(121,119,cs)
);
}
);
width = 500;
}
);
note = uni1EA7;
unicode = 7847;
},
{
glyphname = uni1EA9;
layers = (
{
layerId = m01;
shapes = (
{
closed = 1;
nodes = (
(456,776,o),
(419,804,o),
(375,804,cs),
(339,804,o),
(313,792,o),
(289,762,c),
(326,724,l),
(334,750,o),
(353,756,o),
(370,756,cs),
(387,756,o),
(401,746,o),
(401,728,cs),
(401,704,o),
(349,685,o),
(349,651,cs),
(349,623,l),
(400,623,l),
(400,630,ls),
(400,680,o),
(456,674,o),
(456,730,cs)
);
},
{
closed = 1;
nodes = (
(140,511,l),
(251,621,l),
(362,511,l),
(402,545,l),
(263,685,l),
(239,685,l),
(100,545,l)
);
},
{
closed = 1;
nodes = (
(264,-11,o),
(332,3,o),
(367,70,c),
(367,0,l),
(445,0,l),
(445,243,ls),
(445,415,o),
(365,467,o),
(244,467,cs),
(181,467,o),
(124,446,o),
(81,403,c),
(116,357,l),
(151,391,o),
(195,408,o),
(239,408,cs),
(327,408,o),
(374,374,o),
(382,268,c),
(344,273,o),
(310,274,o),
(279,274,cs),
(153,274,o),
(49,213,o),
(49,115,cs),
(49,41,o),
(107,-11,o),
(211,-11,cs)
);
},
{
closed = 1;
nodes = (
(121,190,o),
(189,220,o),
(285,220,cs),
(315,220,o),
(350,218,o),
(382,213,c),
(376,104,o),
(316,44,o),
(218,44,cs),
(163,44,o),
(121,62,o),
(121,119,cs)
);
}
);
width = 500;
}
);
note = uni1EA9;
unicode = 7849;
},
{
glyphname = uni1EAB;
layers = (
{
layerId = m01;
shapes = (
{
closed = 1;
nodes = (
(349,812,l),
(337,782,o),
(325,770,o),
(310,770,cs),
(281,770,o),
(243,824,o),
(194,824,cs),
(160,824,o),
(124,794,o),
(109,749,c),
(155,727,l),
(166,755,o),
(183,769,o),
(200,769,cs),
(232,769,o),
(261,715,o),
(310,715,cs),
(344,715,o),
(370,734,o),
(395,790,c)
);
},
{
closed = 1;
nodes = (
(140,511,l),
(251,621,l),
(362,511,l),
(402,545,l),
(263,685,l),
(239,685,l),
(100,545,l)
);
},
{
closed = 1;
nodes = (
(264,-11,o),
(332,3,o),
(367,70,c),
(367,0,l),
(445,0,l),
(445,243,ls),
(445,415,o),
(365,467,o),
(244,467,cs),
(181,467,o),
(124,446,o),
(81,403,c),
(116,357,l),
(151,391,o),
(195,408,o),
(239,408,cs),
(327,408,o),
(374,374,o),
(382,268,c),
(344,273,o),
(310,274,o),
(279,274,cs),
(153,274,o),
(49,213,o),
(49,115,cs),
(49,41,o),
(107,-11,o),
(211,-11,cs)
);
},
{
closed = 1;
nodes = (
(121,190,o),
(189,220,o),
(285,220,cs),
(315,220,o),
(350,218,o),
(382,213,c),
(376,104,o),
(316,44,o),
(218,44,cs),
(163,44,o),
(121,62,o),
(121,119,cs)
);
}
);
width = 500;
}
);
note = uni1EAB;
unicode = 7851;
},
{
glyphname = uni0201;
layers = (
{
layerId = m01;
shapes = (
{
closed = 1;
nodes = (
(175,507,l),
(213,533,l),
(129,682,l),
(74,642,l)
);
},
{
closed = 1;
nodes = (
(335,507,l),
(373,533,l),
(289,682,l),
(234,642,l)
);
},
{
closed = 1;
nodes = (
(264,-11,o),
(332,3,o),
(367,70,c),
(367,0,l),
(445,0,l),
(445,243,ls),
(445,415,o),
(365,467,o),
(244,467,cs),
(181,467,o),
(124,446,o),
(81,403,c),
(116,357,l),
(151,391,o),
(195,408,o),
(239,408,cs),
(327,408,o),
(374,374,o),
(382,268,c),
(344,273,o),
(310,274,o),
(279,274,cs),
(153,274,o),
(49,213,o),
(49,115,cs),
(49,41,o),
(107,-11,o),
(211,-11,cs)
);
},
{
closed = 1;
nodes = (
(121,190,o),
(189,220,o),
(285,220,cs),
(315,220,o),
(350,218,o),
(382,213,c),
(376,104,o),
(316,44,o),
(218,44,cs),
(163,44,o),
(121,62,o),
(121,119,cs)
);
}
);
width = 500;
}
);
note = uni0201;
unicode = 513;
},
{
glyphname = adieresis;
layers = (
{
layerId = m01;
shapes = (
{
closed = 1;
nodes = (
(189,564,o),
(212,587,o),
(212,614,cs),
(212,642,o),
(189,665,o),
(162,665,cs),
(134,665,o),
(111,641,o),
(111,614,cs),
(111,587,o),
(134,564,o),
(162,564,cs)
);
},
{
closed = 1;
nodes = (
(367,564,o),
(390,587,o),
(390,614,cs),
(390,642,o),
(367,665,o),
(340,665,cs),
(312,665,o),
(290,642,o),
(290,614,cs),
(290,586,o),
(312,564,o),
(340,564,cs)
);
},
{
closed = 1;
nodes = (
(264,-11,o),
(332,3,o),
(367,70,c),
(367,0,l),
(445,0,l),
(445,243,ls),
(445,415,o),
(365,467,o),
(244,467,cs),
(181,467,o),
(124,446,o),
(81,403,c),
(116,357,l),
(151,391,o),
(195,408,o),
(239,408,cs),
(327,408,o),
(374,374,o),
(382,268,c),
(344,273,o),
(310,274,o),
(279,274,cs),
(153,274,o),
(49,213,o),
(49,115,cs),
(49,41,o),
(107,-11,o),
(211,-11,cs)
);
},
{
closed = 1;
nodes = (
(121,190,o),
(189,220,o),
(285,220,cs),
(315,220,o),
(350,218,o),
(382,213,c),
(376,104,o),
(316,44,o),
(218,44,cs),
(163,44,o),
(121,62,o),
(121,119,cs)
);
}
);
width = 500;
}
);
note = adieresis;
unicode = 228;
},
{
glyphname = uni1EA1;
layers = (
{
layerId = m01;
shapes = (
{
closed = 1;
nodes = (
(264,-11,o),
(332,3,o),
(367,70,c),
(367,0,l),
(445,0,l),
(445,243,ls),
(445,415,o),
(365,467,o),
(244,467,cs),
(181,467,o),
(124,446,o),
(81,403,c),
(116,357,l),
(151,391,o),
(195,408,o),
(239,408,cs),
(327,408,o),
(374,374,o),
(382,268,c),
(344,273,o),
(310,274,o),
(279,274,cs),
(153,274,o),
(49,213,o),
(49,115,cs),
(49,41,o),
(107,-11,o),
(211,-11,cs)
);
},
{
closed = 1;
nodes = (
(121,190,o),
(189,220,o),
(285,220,cs),
(315,220,o),
(350,218,o),
(382,213,c),
(376,104,o),
(316,44,o),
(218,44,cs),
(163,44,o),
(121,62,o),
(121,119,cs)
);
},
{
closed = 1;
nodes = (
(277,-147,o),
(301,-124,o),
(301,-96,cs),
(301,-68,o),
(277,-44,o),
(249,-44,cs),
(220,-44,o),
(198,-67,o),
(198,-96,cs),
(198,-124,o),
(221,-147,o),
(249,-147,cs)
);
}
);
width = 500;
}
);
note = uni1EA1;
unicode = 7841;
},
{
glyphname = agrave;
layers = (
{
layerId = m01;
shapes = (
{
closed = 1;
nodes = (
(244,507,l),
(282,533,l),
(198,682,l),
(143,642,l)
);
},
{
closed = 1;
nodes = (
(264,-11,o),
(332,3,o),
(367,70,c),
(367,0,l),
(445,0,l),
(445,243,ls),
(445,415,o),
(365,467,o),
(244,467,cs),
(181,467,o),
(124,446,o),
(81,403,c),
(116,357,l),
(151,391,o),
(195,408,o),
(239,408,cs),
(327,408,o),
(374,374,o),
(382,268,c),
(344,273,o),
(310,274,o),
(279,274,cs),
(153,274,o),
(49,213,o),
(49,115,cs),
(49,41,o),
(107,-11,o),
(211,-11,cs)
);
},
{
closed = 1;
nodes = (
(121,190,o),
(189,220,o),
(285,220,cs),
(315,220,o),
(350,218,o),
(382,213,c),
(376,104,o),
(316,44,o),
(218,44,cs),
(163,44,o),
(121,62,o),
(121,119,cs)
);
}
);
width = 500;
}
);
note = agrave;
unicode = 224;
},
{
glyphname = uni1EA3;
layers = (
{
layerId = m01;
shapes = (
{
closed = 1;
nodes = (
(335,676,o),
(298,704,o),
(254,704,cs),
(218,704,o),
(192,692,o),
(168,662,c),
(205,624,l),
(213,650,o),
(232,656,o),
(249,656,cs),
(266,656,o),
(280,646,o),
(280,628,cs),
(280,604,o),
(228,585,o),
(228,551,cs),
(228,523,l),
(279,523,l),
(279,530,ls),
(279,580,o),
(335,574,o),
(335,630,cs)
);
},
{
closed = 1;
nodes = (
(264,-11,o),
(332,3,o),
(367,70,c),
(367,0,l),
(445,0,l),
(445,243,ls),
(445,415,o),
(365,467,o),
(244,467,cs),
(181,467,o),
(124,446,o),
(81,403,c),
(116,357,l),
(151,391,o),
(195,408,o),
(239,408,cs),
(327,408,o),
(374,374,o),
(382,268,c),
(344,273,o),
(310,274,o),
(279,274,cs),
(153,274,o),
(49,213,o),
(49,115,cs),
(49,41,o),
(107,-11,o),
(211,-11,cs)
);
},
{
closed = 1;
nodes = (
(121,190,o),
(189,220,o),
(285,220,cs),
(315,220,o),
(350,218,o),
(382,213,c),
(376,104,o),
(316,44,o),
(218,44,cs),
(163,44,o),
(121,62,o),
(121,119,cs)
);
}
);
width = 500;
}
);
note = uni1EA3;
unicode = 7843;
},
{
glyphname = uni0203;
layers = (
{
layerId = m01;
shapes = (
{
closed = 1;
nodes = (
(159,528,l),
(181,575,o),
(209,596,o),
(249,596,cs),
(289,596,o),
(317,575,o),
(339,528,c),
(391,552,l),
(361,611,o),
(311,644,o),
(249,644,cs),
(187,644,o),
(137,611,o),
(107,552,c)
);
},
{
closed = 1;
nodes = (
(264,-11,o),
(332,3,o),
(367,70,c),
(367,0,l),
(445,0,l),
(445,243,ls),
(445,415,o),
(365,467,o),
(244,467,cs),
(181,467,o),
(124,446,o),
(81,403,c),
(116,357,l),
(151,391,o),
(195,408,o),
(239,408,cs),
(327,408,o),
(374,374,o),
(382,268,c),
(344,273,o),
(310,274,o),
(279,274,cs),
(153,274,o),
(49,213,o),
(49,115,cs),
(49,41,o),
(107,-11,o),
(211,-11,cs)
);
},
{
closed = 1;
nodes = (
(121,190,o),
(189,220,o),
(285,220,cs),
(315,220,o),
(350,218,o),
(382,213,c),
(376,104,o),
(316,44,o),
(218,44,cs),
(163,44,o),
(121,62,o),
(121,119,cs)
);
}
);
width = 500;
}
);
note = uni0203;
unicode = 515;
},
{
glyphname = amacron;
layers = (
{
layerId = m01;
shapes = (
{
closed = 1;
nodes = (
(123,565,l),
(377,565,l),
(377,621,l),
(123,621,l)
);
},
{
closed = 1;
nodes = (
(264,-11,o),
(332,3,o),
(367,70,c),
(367,0,l),
(445,0,l),
(445,243,ls),
(445,415,o),
(365,467,o),
(244,467,cs),
(181,467,o),
(124,446,o),
(81,403,c),
(116,357,l),
(151,391,o),
(195,408,o),
(239,408,cs),
(327,408,o),
(374,374,o),
(382,268,c),
(344,273,o),
(310,274,o),
(279,274,cs),
(153,274,o),
(49,213,o),
(49,115,cs),
(49,41,o),
(107,-11,o),
(211,-11,cs)
);
},
{
closed = 1;
nodes = (
(121,190,o),
(189,220,o),
(285,220,cs),
(315,220,o),
(350,218,o),
(382,213,c),
(376,104,o),
(316,44,o),
(218,44,cs),
(163,44,o),
(121,62,o),
(121,119,cs)
);
}
);
width = 500;
}
);
note = amacron;
unicode = 257;
},
{
glyphname = aogonek;
layers = (
{
layerId = m01;
shapes = (
{
closed = 1;
nodes = (
(264,-11,o),
(332,3,o),
(367,70,c),
(367,14,l),
(294,-29,o),
(251,-84,o),
(251,-137,cs),
(251,-188,o),
(297,-218,o),
(363,-227,c),
(379,-179,l),
(336,-173,o),
(317,-151,o),
(317,-123,cs),
(317,-87,o),
(348,-40,o),
(399,0,c),
(445,0,l),
(445,243,ls),
(445,415,o),
(365,467,o),
(244,467,cs),
(181,467,o),
(124,446,o),
(81,403,c),
(116,357,l),
(151,391,o),
(195,408,o),
(239,408,cs),
(327,408,o),
(374,374,o),
(382,268,c),
(344,273,o),
(310,274,o),
(279,274,cs),
(153,274,o),
(49,213,o),
(49,115,cs),
(49,41,o),
(107,-11,o),
(211,-11,cs)
);
},
{
closed = 1;
nodes = (
(121,190,o),
(189,220,o),
(285,220,cs),
(315,220,o),
(350,218,o),
(382,213,c),
(376,104,o),
(316,44,o),
(218,44,cs),
(163,44,o),
(121,62,o),
(121,119,cs)
);
}
);
width = 500;
}
);
note = aogonek;
unicode = 261;
},
{
glyphname = aring;
layers = (
{
layerId = m01;
shapes = (
{
closed = 1;
nodes = (
(298,517,o),
(341,557,o),
(341,605,cs),
(341,654,o),
(299,693,o),
(249,693,cs),
(201,693,o),
(158,653,o),
(158,605,cs),
(158,557,o),
(201,517,o),
(249,517,cs)
);
},
{
closed = 1;
nodes = (
(227,560,o),
(209,581,o),
(209,606,cs),
(209,631,o),
(227,652,o),
(250,652,cs),
(273,652,o),
(292,631,o),
(292,606,cs),
(292,581,o),
(273,560,o),
(250,560,cs)
);
},
{
closed = 1;
nodes = (
(264,-11,o),
(332,3,o),
(367,70,c),
(367,0,l),
(445,0,l),
(445,243,ls),
(445,415,o),
(365,467,o),
(244,467,cs),
(181,467,o),
(124,446,o),
(81,403,c),
(116,357,l),
(151,391,o),
(195,408,o),
(239,408,cs),
(327,408,o),
(374,374,o),
(382,268,c),
(344,273,o),
(310,274,o),
(279,274,cs),
(153,274,o),
(49,213,o),
(49,115,cs),
(49,41,o),
(107,-11,o),
(211,-11,cs)
);
},
{
closed = 1;
nodes = (
(121,190,o),
(189,220,o),
(285,220,cs),
(315,220,o),
(350,218,o),
(382,213,c),
(376,104,o),
(316,44,o),
(218,44,cs),
(163,44,o),
(121,62,o),
(121,119,cs)
);
}
);
width = 500;
}
);
note = aring;
unicode = 229;
},
{
glyphname = aringacute;
layers = (
{
layerId = m01;
shapes = (
{
closed = 1;
nodes = (
(243,743,l),
(344,878,l),
(289,918,l),
(205,769,l)
);
},
{
closed = 1;
nodes = (
(298,517,o),
(341,557,o),
(341,605,cs),
(341,654,o),
(299,693,o),
(249,693,cs),
(201,693,o),
(158,653,o),
(158,605,cs),
(158,557,o),
(201,517,o),
(249,517,cs)
);
},
{
closed = 1;
nodes = (
(227,560,o),
(209,581,o),
(209,606,cs),
(209,631,o),
(227,652,o),
(250,652,cs),
(273,652,o),
(292,631,o),
(292,606,cs),
(292,581,o),
(273,560,o),
(250,560,cs)
);
},
{
closed = 1;
nodes = (
(264,-11,o),
(332,3,o),
(367,70,c),
(367,0,l),
(445,0,l),
(445,243,ls),
(445,415,o),
(365,467,o),
(244,467,cs),
(181,467,o),
(124,446,o),
(81,403,c),
(116,357,l),
(151,391,o),
(195,408,o),
(239,408,cs),
(327,408,o),
(374,374,o),
(382,268,c),
(344,273,o),
(310,274,o),
(279,274,cs),
(153,274,o),
(49,213,o),
(49,115,cs),
(49,41,o),
(107,-11,o),
(211,-11,cs)
);
},
{
closed = 1;
nodes = (
(121,190,o),
(189,220,o),
(285,220,cs),
(315,220,o),
(350,218,o),
(382,213,c),
(376,104,o),
(316,44,o),
(218,44,cs),
(163,44,o),
(121,62,o),
(121,119,cs)
);
}
);
width = 500;
}
);
note = aringacute;
unicode = 507;
},
{
glyphname = atilde;
layers = (
{
layerId = m01;
shapes = (
{
closed = 1;
nodes = (
(375,677,l),
(356,640,o),
(345,629,o),
(324,629,cs),
(276,629,o),
(253,683,o),
(194,683,cs),
(142,683,o),
(109,648,o),
(91,603,c),
(140,581,l),
(156,617,o),
(173,628,o),
(196,628,cs),
(241,628,o),
(268,574,o),
(328,574,cs),
(368,574,o),
(392,593,o),
(421,649,c)
);
},
{
closed = 1;
nodes = (
(264,-11,o),
(332,3,o),
(367,70,c),
(367,0,l),
(445,0,l),
(445,243,ls),
(445,415,o),
(365,467,o),
(244,467,cs),
(181,467,o),
(124,446,o),
(81,403,c),
(116,357,l),
(151,391,o),
(195,408,o),
(239,408,cs),
(327,408,o),
(374,374,o),
(382,268,c),
(344,273,o),
(310,274,o),
(279,274,cs),
(153,274,o),
(49,213,o),
(49,115,cs),
(49,41,o),
(107,-11,o),
(211,-11,cs)
);
},
{
closed = 1;
nodes = (
(121,190,o),
(189,220,o),
(285,220,cs),
(315,220,o),
(350,218,o),
(382,213,c),
(376,104,o),
(316,44,o),
(218,44,cs),
(163,44,o),
(121,62,o),
(121,119,cs)
);
}
);
width = 500;
}
);
note = atilde;
unicode = 227;
},
{
glyphname = ae;
layers = (
{
layerId = m01;
shapes = (
{
closed = 1;
nodes = (
(190,-11,o),
(232,15,o),
(255,58,c),
(282,15,o),
(329,-11,o),
(380,-11,cs),
(427,-11,o),
(465,7,o),
(494,42,c),
(459,84,l),
(441,59,o),
(417,47,o),
(386,47,cs),
(322,47,o),
(282,98,o),
(282,175,cs),
(282,223,l),
(490,230,l),
(490,268,ls),
(490,392,o),
(453,467,o),
(362,467,cs),
(322,467,o),
(281,444,o),
(258,405,c),
(237,444,o),
(195,467,o),
(147,467,cs),
(98,467,o),
(60,449,o),
(31,412,c),
(66,368,l),
(87,397,o),
(112,411,o),
(142,411,cs),
(198,411,o),
(221,366,o),
(221,279,c),
(81,274,o),
(10,220,o),
(10,123,cs),
(10,48,o),
(48,-11,o),
(142,-11,cs)
);
},
{
closed = 1;
nodes = (
(282,279,l),
(282,364,o),
(312,411,o),
(362,411,cs),
(412,411,o),
(432,368,o),
(432,284,c)
);
},
{
closed = 1;
nodes = (
(99,50,o),
(74,66,o),
(74,122,cs),
(74,192,o),
(114,214,o),
(221,219,c),
(221,127,o),
(215,50,o),
(144,50,cs)
);
}
);
width = 500;
}
);
note = ae;
unicode = 230;
},
{
glyphname = aeacute;
layers = (
{
layerId = m01;
shapes = (
{
closed = 1;
nodes = (
(254,507,l),
(355,642,l),
(300,682,l),
(216,533,l)
);
},
{
closed = 1;
nodes = (
(190,-11,o),
(232,15,o),
(255,58,c),
(282,15,o),
(329,-11,o),
(380,-11,cs),
(427,-11,o),
(465,7,o),
(494,42,c),
(459,84,l),
(441,59,o),
(417,47,o),
(386,47,cs),
(322,47,o),
(282,98,o),
(282,175,cs),
(282,223,l),
(490,230,l),
(490,268,ls),
(490,392,o),
(453,467,o),
(362,467,cs),
(322,467,o),
(281,444,o),
(258,405,c),
(237,444,o),
(195,467,o),
(147,467,cs),
(98,467,o),
(60,449,o),
(31,412,c),
(66,368,l),
(87,397,o),
(112,411,o),
(142,411,cs),
(198,411,o),
(221,366,o),
(221,279,c),
(81,274,o),
(10,220,o),
(10,123,cs),
(10,48,o),
(48,-11,o),
(142,-11,cs)
);
},
{
closed = 1;
nodes = (
(282,279,l),
(282,364,o),
(312,411,o),
(362,411,cs),
(412,411,o),
(432,368,o),
(432,284,c)
);
},
{
closed = 1;
nodes = (
(99,50,o),
(74,66,o),
(74,122,cs),
(74,192,o),
(114,214,o),
(221,219,c),
(221,127,o),
(215,50,o),
(144,50,cs)
);
}
);
width = 500;
}
);
note = aeacute;
unicode = 509;
},
{
glyphname = b;
layers = (
{
layerId = m01;
shapes = (
{
closed = 1;
nodes = (
(361,-11,o),
(457,69,o),
(457,233,cs),
(457,390,o),
(380,468,o),
(269,468,cs),
(217,468,o),
(162,436,o),
(133,387,c),
(133,665,l),
(60,665,l),
(60,0,l),
(106,0,l),
(131,60,l),
(162,16,o),
(210,-11,o),
(266,-11,cs)
);
},
{
closed = 1;
nodes = (
(167,53,o),
(133,122,o),
(133,227,cs),
(133,333,o),
(185,406,o),
(259,406,cs),
(332,406,o),
(383,350,o),
(383,229,cs),
(383,98,o),
(321,53,o),
(257,53,cs)
);
}
);
width = 500;
}
);
note = b;
unicode = 98;
},
{
glyphname = uni0298;
layers = (
{
layerId = m01;
shapes = (
{
closed = 1;
nodes = (
(393,-11,o),
(473,104,o),
(473,308,cs),
(473,505,o),
(393,627,o),
(250,627,cs),
(107,627,o),
(27,505,o),
(27,308,cs),
(27,104,o),
(107,-11,o),
(250,-11,cs)
);
},
{
closed = 1;
nodes = (
(155,50,o),
(99,142,o),
(99,308,cs),
(99,465,o),
(155,566,o),
(250,566,cs),
(345,566,o),
(401,465,o),
(401,308,cs),
(401,142,o),
(345,50,o),
(250,50,cs)
);
},
{
closed = 1;
nodes = (
(277,268,o),
(297,288,o),
(297,312,cs),
(297,336,o),
(277,357,o),
(252,357,cs),
(227,357,o),
(208,337,o),
(208,312,cs),
(208,288,o),
(228,268,o),
(252,268,cs)
);
}
);
width = 500;
}
);
note = uni0298;
unicode = 664;
},
{
glyphname = c;
layers = (
{
layerId = m01;
shapes = (
{
closed = 1;
nodes = (
(349,-11,o),
(405,13,o),
(450,61,c),
(408,110,l),
(375,73,o),
(335,54,o),
(289,54,cs),
(197,54,o),
(130,130,o),
(130,233,cs),
(130,338,o),
(199,405,o),
(276,405,cs),
(335,405,o),
(372,387,o),
(411,336,c),
(457,381,l),
(420,434,o),
(358,466,o),
(284,466,cs),
(152,466,o),
(56,365,o),
(56,228,cs),
(56,90,o),
(152,-11,o),
(285,-11,cs)
);
}
);
width = 500;
}
);
note = c;
unicode = 99;
},
{
glyphname = cacute;
layers = (
{
layerId = m01;
shapes = (
{
closed = 1;
nodes = (
(279,507,l),
(380,642,l),
(325,682,l),
(241,533,l)
);
},
{
closed = 1;
nodes = (
(349,-11,o),
(405,13,o),
(450,61,c),
(408,110,l),
(375,73,o),
(335,54,o),
(289,54,cs),
(197,54,o),
(130,130,o),
(130,233,cs),
(130,338,o),
(199,405,o),
(276,405,cs),
(335,405,o),
(372,387,o),
(411,336,c),
(457,381,l),
(420,434,o),
(358,466,o),
(284,466,cs),
(152,466,o),
(56,365,o),
(56,228,cs),
(56,90,o),
(152,-11,o),
(285,-11,cs)
);
}
);
width = 500;
}
);
note = cacute;
unicode = 263;
},
{
glyphname = ccaron;
layers = (
{
layerId = m01;
shapes = (
{
closed = 1;
nodes = (
(174,688,l),
(134,654,l),
(273,514,l),
(297,514,l),
(436,654,l),
(396,688,l),
(285,578,l)
);
},
{
closed = 1;
nodes = (
(349,-11,o),
(405,13,o),
(450,61,c),
(408,110,l),
(375,73,o),
(335,54,o),
(289,54,cs),
(197,54,o),
(130,130,o),
(130,233,cs),
(130,338,o),
(199,405,o),
(276,405,cs),
(335,405,o),
(372,387,o),
(411,336,c),
(457,381,l),
(420,434,o),
(358,466,o),
(284,466,cs),
(152,466,o),
(56,365,o),
(56,228,cs),
(56,90,o),
(152,-11,o),
(285,-11,cs)
);
}
);
width = 500;
}
);
note = ccaron;
unicode = 269;
},
{
glyphname = ccedilla;
layers = (
{
layerId = m01;
shapes = (
{
closed = 1;
nodes = (
(362,-197,o),
(399,-157,o),
(399,-112,cs),
(399,-82,o),
(373,-52,o),
(314,-47,c),
(319,-9,l),
(369,-2,o),
(413,22,o),
(450,61,c),
(408,110,l),
(375,73,o),
(335,54,o),
(289,54,cs),
(197,54,o),
(130,130,o),
(130,233,cs),
(130,338,o),
(199,405,o),
(276,405,cs),
(335,405,o),
(372,387,o),
(411,336,c),
(457,381,l),
(420,434,o),
(358,466,o),
(284,466,cs),
(152,466,o),
(56,365,o),
(56,228,cs),
(56,94,o),
(147,-6,o),
(275,-11,c),
(265,-85,l),
(295,-85,ls),
(326,-85,o),
(346,-97,o),
(346,-118,cs),
(346,-141,o),
(331,-154,o),
(296,-154,cs),
(263,-154,o),
(234,-144,o),
(209,-124,c),
(184,-166,l),
(215,-187,o),
(248,-197,o),
(283,-197,cs)
);
}
);
width = 500;
}
);
note = ccedilla;
unicode = 231;
},
{
glyphname = uni1E09;
layers = (
{
layerId = m01;
shapes = (
{
closed = 1;
nodes = (
(279,507,l),
(380,642,l),
(325,682,l),
(241,533,l)
);
},
{
closed = 1;
nodes = (
(362,-197,o),
(399,-157,o),
(399,-112,cs),
(399,-82,o),
(373,-52,o),
(314,-47,c),
(319,-9,l),
(369,-2,o),
(413,22,o),
(450,61,c),
(408,110,l),
(375,73,o),
(335,54,o),
(289,54,cs),
(197,54,o),
(130,130,o),
(130,233,cs),
(130,338,o),
(199,405,o),
(276,405,cs),
(335,405,o),
(372,387,o),
(411,336,c),
(457,381,l),
(420,434,o),
(358,466,o),
(284,466,cs),
(152,466,o),
(56,365,o),
(56,228,cs),
(56,94,o),
(147,-6,o),
(275,-11,c),
(265,-85,l),
(295,-85,ls),
(326,-85,o),
(346,-97,o),
(346,-118,cs),
(346,-141,o),
(331,-154,o),
(296,-154,cs),
(263,-154,o),
(234,-144,o),
(209,-124,c),
(184,-166,l),
(215,-187,o),
(248,-197,o),
(283,-197,cs)
);
}
);
width = 500;
}
);
note = uni1E09;
unicode = 7689;
},
{
glyphname = ccircumflex;
layers = (
{
layerId = m01;
shapes = (
{
closed = 1;
nodes = (
(175,511,l),
(286,621,l),
(397,511,l),
(437,545,l),
(298,685,l),
(274,685,l),
(135,545,l)
);
},
{
closed = 1;
nodes = (
(349,-11,o),
(405,13,o),
(450,61,c),
(408,110,l),
(375,73,o),
(335,54,o),
(289,54,cs),
(197,54,o),
(130,130,o),
(130,233,cs),
(130,338,o),
(199,405,o),
(276,405,cs),
(335,405,o),
(372,387,o),
(411,336,c),
(457,381,l),
(420,434,o),
(358,466,o),
(284,466,cs),
(152,466,o),
(56,365,o),
(56,228,cs),
(56,90,o),
(152,-11,o),
(285,-11,cs)
);
}
);
width = 500;
}
);
note = ccircumflex;
unicode = 265;
},
{
glyphname = cdotaccent;
layers = (
{
layerId = m01;
shapes = (
{
closed = 1;
nodes = (
(313,553,o),
(337,576,o),
(337,604,cs),
(337,632,o),
(313,656,o),
(285,656,cs),
(256,656,o),
(234,633,o),
(234,604,cs),
(234,576,o),
(257,553,o),
(285,553,cs)
);
},
{
closed = 1;
nodes = (
(349,-11,o),
(405,13,o),
(450,61,c),
(408,110,l),
(375,73,o),
(335,54,o),
(289,54,cs),
(197,54,o),
(130,130,o),
(130,233,cs),
(130,338,o),
(199,405,o),
(276,405,cs),
(335,405,o),
(372,387,o),
(411,336,c),
(457,381,l),
(420,434,o),
(358,466,o),
(284,466,cs),
(152,466,o),
(56,365,o),
(56,228,cs),
(56,90,o),
(152,-11,o),
(285,-11,cs)
);
}
);
width = 500;
}
);
note = cdotaccent;
unicode = 267;
},
{
glyphname = d;
layers = (
{
layerId = m01;
shapes = (
{
closed = 1;
nodes = (
(293,-10,o),
(339,22,o),
(368,71,c),
(368,47,o),
(368,24,o),
(378,0,c),
(449,0,l),
(439,24,o),
(439,47,o),
(439,71,cs),
(438,665,l),
(371,665,l),
(371,390,l),
(348,438,o),
(301,469,o),
(238,469,cs),
(145,469,o),
(45,400,o),
(45,233,cs),
(45,69,o),
(141,-10,o),
(234,-10,cs)
);
},
{
closed = 1;
nodes = (
(160,53,o),
(115,129,o),
(115,244,cs),
(115,345,o),
(158,410,o),
(239,410,cs),
(327,410,o),
(365,333,o),
(365,231,cs),
(365,132,o),
(333,53,o),
(245,53,cs)
);
}
);
width = 500;
}
);
note = d;
unicode = 100;
},
{
glyphname = eth;
layers = (
{
layerId = m01;
shapes = (
{
closed = 1;
nodes = (
(388,-12,o),
(460,93,o),
(460,253,cs),
(460,379,o),
(422,485,o),
(347,570,c),
(432,595,l),
(415,639,l),
(307,610,l),
(279,635,o),
(250,655,o),
(220,672,c),
(139,656,l),
(177,639,o),
(211,617,o),
(241,592,c),
(137,564,l),
(155,516,l),
(283,552,l),
(320,512,o),
(348,466,o),
(369,415,c),
(336,450,o),
(294,467,o),
(242,467,cs),
(140,467,o),
(40,356,o),
(40,223,cs),
(40,87,o),
(140,-12,o),
(256,-12,cs)
);
},
{
closed = 1;
nodes = (
(179,50,o),
(117,123,o),
(117,232,cs),
(117,347,o),
(188,406,o),
(253,406,cs),
(316,406,o),
(387,361,o),
(387,232,cs),
(387,105,o),
(323,50,o),
(256,50,cs)
);
}
);
width = 500;
}
);
note = eth;
unicode = 240;
},
{
glyphname = dcaron;
layers = (
{
layerId = m01;
shapes = (
{
closed = 1;
nodes = (
(404,668,o),
(387,647,o),
(387,628,cs),
(387,594,o),
(420,586,o),
(420,566,cs),
(420,538,o),
(400,511,o),
(380,488,c),
(409,467,l),
(443,511,o),
(478,575,o),
(478,616,cs),
(478,645,o),
(457,668,o),
(433,668,cs)
);
},
{
closed = 1;
nodes = (
(230,-10,o),
(266,21,o),
(287,66,c),
(287,42,o),
(289,21,o),
(297,0,c),
(360,0,l),
(352,24,o),
(352,47,o),
(352,71,cs),
(352,665,l),
(290,665,l),
(290,394,l),
(274,442,o),
(237,469,o),
(188,469,cs),
(109,469,o),
(35,411,o),
(35,233,cs),
(35,53,o),
(108,-10,o),
(183,-10,cs)
);
},
{
closed = 1;
nodes = (
(135,52,o),
(97,107,o),
(97,244,cs),
(97,358,o),
(130,409,o),
(192,409,cs),
(255,409,o),
(286,346,o),
(286,231,cs),
(286,116,o),
(258,52,o),
(195,52,cs)
);
}
);
width = 500;
}
);
note = dcaron;
unicode = 271;
},
{
glyphname = dcroat;
layers = (
{
layerId = m01;
shapes = (
{
closed = 1;
nodes = (
(293,-10,o),
(339,22,o),
(368,71,c),
(368,47,o),
(368,24,o),
(378,0,c),
(449,0,l),
(439,24,o),
(439,47,o),
(439,71,cs),
(438,520,l),
(500,520,l),
(500,577,l),
(438,577,l),
(438,665,l),
(371,665,l),
(371,577,l),
(230,577,l),
(230,520,l),
(371,520,l),
(371,390,l),
(348,438,o),
(301,469,o),
(238,469,cs),
(145,469,o),
(45,400,o),
(45,233,cs),
(45,69,o),
(141,-10,o),
(234,-10,cs)
);
},
{
closed = 1;
nodes = (
(160,53,o),
(115,129,o),
(115,244,cs),
(115,345,o),
(158,410,o),
(239,410,cs),
(327,410,o),
(365,333,o),
(365,231,cs),
(365,132,o),
(333,53,o),
(245,53,cs)
);
}
);
width = 500;
}
);
note = dcroat;
unicode = 273;
},
{
glyphname = uni1E0D;
layers = (
{
layerId = m01;
shapes = (
{
closed = 1;
nodes = (
(293,-10,o),
(339,22,o),
(368,71,c),
(368,47,o),
(368,24,o),
(378,0,c),
(449,0,l),
(439,24,o),
(439,47,o),
(439,71,cs),
(438,665,l),
(371,665,l),
(371,390,l),
(348,438,o),
(301,469,o),
(238,469,cs),
(145,469,o),
(45,400,o),
(45,233,cs),
(45,69,o),
(141,-10,o),
(234,-10,cs)
);
},
{
closed = 1;
nodes = (
(160,53,o),
(115,129,o),
(115,244,cs),
(115,345,o),
(158,410,o),
(239,410,cs),
(327,410,o),
(365,333,o),
(365,231,cs),
(365,132,o),
(333,53,o),
(245,53,cs)
);
},
{
closed = 1;
nodes = (
(277,-147,o),
(301,-124,o),
(301,-96,cs),
(301,-68,o),
(277,-44,o),
(249,-44,cs),
(220,-44,o),
(198,-67,o),
(198,-96,cs),
(198,-124,o),
(221,-147,o),
(249,-147,cs)
);
}
);
width = 500;
}
);
note = uni1E0D;
unicode = 7693;
},
{
glyphname = uni1E0F;
layers = (
{
layerId = m01;
shapes = (
{
closed = 1;
nodes = (
(293,-10,o),
(339,22,o),
(368,71,c),
(368,47,o),
(368,24,o),
(378,0,c),
(449,0,l),
(439,24,o),
(439,47,o),
(439,71,cs),
(438,665,l),
(371,665,l),
(371,390,l),
(348,438,o),
(301,469,o),
(238,469,cs),
(145,469,o),
(45,400,o),
(45,233,cs),
(45,69,o),
(141,-10,o),
(234,-10,cs)
);
},
{
closed = 1;
nodes = (
(160,53,o),
(115,129,o),
(115,244,cs),
(115,345,o),
(158,410,o),
(239,410,cs),
(327,410,o),
(365,333,o),
(365,231,cs),
(365,132,o),
(333,53,o),
(245,53,cs)
);
},
{
closed = 1;
nodes = (
(125,-155,l),
(379,-155,l),
(379,-99,l),
(125,-99,l)
);
}
);
width = 500;
}
);
note = uni1E0F;
unicode = 7695;
},
{
glyphname = e;
layers = (
{
layerId = m01;
shapes = (
{
closed = 1;
nodes = (
(340,-10,o),
(393,13,o),
(432,60,c),
(392,99,l),
(361,65,o),
(321,48,o),
(274,48,cs),
(192,48,o),
(123,100,o),
(118,218,c),
(443,218,l),
(444,229,o),
(445,240,o),
(445,251,cs),
(445,400,o),
(363,468,o),
(259,468,cs),
(143,468,o),
(49,382,o),
(49,227,cs),
(49,74,o),
(138,-10,o),
(272,-10,cs)
);
},
{
closed = 1;
nodes = (
(121,274,l),
(134,370,o),
(191,413,o),
(254,413,cs),
(325,413,o),
(372,359,o),
(372,274,c)
);
}
);
width = 500;
}
);
note = e;
unicode = 101;
},
{
glyphname = eacute;
layers = (
{
layerId = m01;
shapes = (
{
closed = 1;
nodes = (
(253,507,l),
(354,642,l),
(299,682,l),
(215,533,l)
);
},
{
closed = 1;
nodes = (
(340,-10,o),
(393,13,o),
(432,60,c),
(392,99,l),
(361,65,o),
(321,48,o),
(274,48,cs),
(192,48,o),
(123,100,o),
(118,218,c),
(443,218,l),
(444,229,o),
(445,240,o),
(445,251,cs),
(445,400,o),
(363,468,o),
(259,468,cs),
(143,468,o),
(49,382,o),
(49,227,cs),
(49,74,o),
(138,-10,o),
(272,-10,cs)
);
},
{
closed = 1;
nodes = (
(121,274,l),
(134,370,o),
(191,413,o),
(254,413,cs),
(325,413,o),
(372,359,o),
(372,274,c)
);
}
);
width = 500;
}
);
note = eacute;
unicode = 233;
},
{
glyphname = ebreve;
layers = (
{
layerId = m01;
shapes = (
{
closed = 1;
nodes = (
(350,654,l),
(328,607,o),
(300,586,o),
(260,586,cs),
(220,586,o),
(192,607,o),
(170,654,c),
(118,630,l),
(148,571,o),
(198,538,o),
(260,538,cs),
(322,538,o),
(372,571,o),
(402,630,c)
);
},
{
closed = 1;
nodes = (
(340,-10,o),
(393,13,o),
(432,60,c),
(392,99,l),
(361,65,o),
(321,48,o),
(274,48,cs),
(192,48,o),
(123,100,o),
(118,218,c),
(443,218,l),
(444,229,o),
(445,240,o),
(445,251,cs),
(445,400,o),
(363,468,o),
(259,468,cs),
(143,468,o),
(49,382,o),
(49,227,cs),
(49,74,o),
(138,-10,o),
(272,-10,cs)
);
},
{
closed = 1;
nodes = (
(121,274,l),
(134,370,o),
(191,413,o),
(254,413,cs),
(325,413,o),
(372,359,o),
(372,274,c)
);
}
);
width = 500;
}
);
note = ebreve;
unicode = 277;
},
{
glyphname = ecaron;
layers = (
{
layerId = m01;
shapes = (
{
closed = 1;
nodes = (
(148,688,l),
(108,654,l),
(247,514,l),
(271,514,l),
(410,654,l),
(370,688,l),
(259,578,l)
);
},
{
closed = 1;
nodes = (
(340,-10,o),
(393,13,o),
(432,60,c),
(392,99,l),
(361,65,o),
(321,48,o),
(274,48,cs),
(192,48,o),
(123,100,o),
(118,218,c),
(443,218,l),
(444,229,o),
(445,240,o),
(445,251,cs),
(445,400,o),
(363,468,o),
(259,468,cs),
(143,468,o),
(49,382,o),
(49,227,cs),
(49,74,o),
(138,-10,o),
(272,-10,cs)
);
},
{
closed = 1;
nodes = (
(121,274,l),
(134,370,o),
(191,413,o),
(254,413,cs),
(325,413,o),
(372,359,o),
(372,274,c)
);
}
);
width = 500;
}
);
note = ecaron;
unicode = 283;
},
{
glyphname = uni1E1D;
layers = (
{
layerId = m01;
shapes = (
{
closed = 1;
nodes = (
(350,654,l),
(328,607,o),
(300,586,o),
(260,586,cs),
(220,586,o),
(192,607,o),
(170,654,c),
(118,630,l),
(148,571,o),
(198,538,o),
(260,538,cs),
(322,538,o),
(372,571,o),
(402,630,c)
);
},
{
closed = 1;
nodes = (
(356,-197,o),
(393,-157,o),
(393,-112,cs),
(393,-82,o),
(367,-52,o),
(308,-47,c),
(313,-7,l),
(362,1,o),
(401,23,o),
(432,60,c),
(392,99,l),
(361,65,o),
(321,48,o),
(274,48,cs),
(192,48,o),
(123,100,o),
(118,218,c),
(443,218,l),
(444,229,o),
(445,240,o),
(445,251,cs),
(445,400,o),
(363,468,o),
(259,468,cs),
(143,468,o),
(49,382,o),
(49,227,cs),
(49,75,o),
(137,-9,o),
(269,-10,c),
(259,-85,l),
(289,-85,ls),
(320,-85,o),
(340,-97,o),
(340,-118,cs),
(340,-141,o),
(325,-154,o),
(290,-154,cs),
(257,-154,o),
(228,-144,o),
(203,-124,c),
(178,-166,l),
(209,-187,o),
(242,-197,o),
(277,-197,cs)
);
},
{
closed = 1;
nodes = (
(121,274,l),
(134,370,o),
(191,413,o),
(254,413,cs),
(325,413,o),
(372,359,o),
(372,274,c)
);
}
);
width = 500;
}
);
note = uni1E1D;
unicode = 7709;
},
{
glyphname = ecircumflex;
layers = (
{
layerId = m01;
shapes = (
{
closed = 1;
nodes = (
(149,511,l),
(260,621,l),
(371,511,l),
(411,545,l),
(272,685,l),
(248,685,l),
(109,545,l)
);
},
{
closed = 1;
nodes = (
(340,-10,o),
(393,13,o),
(432,60,c),
(392,99,l),
(361,65,o),
(321,48,o),
(274,48,cs),
(192,48,o),
(123,100,o),
(118,218,c),
(443,218,l),
(444,229,o),
(445,240,o),
(445,251,cs),
(445,400,o),
(363,468,o),
(259,468,cs),
(143,468,o),
(49,382,o),
(49,227,cs),
(49,74,o),
(138,-10,o),
(272,-10,cs)
);
},
{
closed = 1;
nodes = (
(121,274,l),
(134,370,o),
(191,413,o),
(254,413,cs),
(325,413,o),
(372,359,o),
(372,274,c)
);
}
);
width = 500;
}
);
note = ecircumflex;
unicode = 234;
},
{
glyphname = uni1EBF;
layers = (
{
layerId = m01;
shapes = (
{
closed = 1;
nodes = (
(395,631,l),
(496,766,l),
(441,806,l),
(357,657,l)
);
},
{
closed = 1;
nodes = (
(149,511,l),
(260,621,l),
(371,511,l),
(411,545,l),
(272,685,l),
(248,685,l),
(109,545,l)
);
},
{
closed = 1;
nodes = (
(340,-10,o),
(393,13,o),
(432,60,c),
(392,99,l),
(361,65,o),
(321,48,o),
(274,48,cs),
(192,48,o),
(123,100,o),
(118,218,c),
(443,218,l),
(444,229,o),
(445,240,o),
(445,251,cs),
(445,400,o),
(363,468,o),
(259,468,cs),
(143,468,o),
(49,382,o),
(49,227,cs),
(49,74,o),
(138,-10,o),
(272,-10,cs)
);
},
{
closed = 1;
nodes = (
(121,274,l),
(134,370,o),
(191,413,o),
(254,413,cs),
(325,413,o),
(372,359,o),
(372,274,c)
);
}
);
width = 500;
}
);
note = uni1EBF;
unicode = 7871;
},
{
glyphname = uni1EC7;
layers = (
{
layerId = m01;
shapes = (
{
closed = 1;
nodes = (
(149,511,l),
(260,621,l),
(371,511,l),
(411,545,l),
(272,685,l),
(248,685,l),
(109,545,l)
);
},
{
closed = 1;
nodes = (
(340,-10,o),
(393,13,o),
(432,60,c),
(392,99,l),
(361,65,o),
(321,48,o),
(274,48,cs),
(192,48,o),
(123,100,o),
(118,218,c),
(443,218,l),
(444,229,o),
(445,240,o),
(445,251,cs),
(445,400,o),
(363,468,o),
(259,468,cs),
(143,468,o),
(49,382,o),
(49,227,cs),
(49,74,o),
(138,-10,o),
(272,-10,cs)
);
},
{
closed = 1;
nodes = (
(121,274,l),
(134,370,o),
(191,413,o),
(254,413,cs),
(325,413,o),
(372,359,o),
(372,274,c)
);
},
{
closed = 1;
nodes = (
(307,-147,o),
(331,-124,o),
(331,-96,cs),
(331,-68,o),
(307,-44,o),
(279,-44,cs),
(250,-44,o),
(228,-67,o),
(228,-96,cs),
(228,-124,o),
(251,-147,o),
(279,-147,cs)
);
}
);
width = 500;
}
);
note = uni1EC7;
unicode = 7879;
},
{
glyphname = uni1EC1;
layers = (
{
layerId = m01;
shapes = (
{
closed = 1;
nodes = (
(389,652,l),
(427,678,l),
(343,827,l),
(288,787,l)
);
},
{
closed = 1;
nodes = (
(151,511,l),
(262,621,l),
(373,511,l),
(413,545,l),
(274,685,l),
(250,685,l),
(111,545,l)
);
},
{
closed = 1;
nodes = (
(340,-10,o),
(393,13,o),
(432,60,c),
(392,99,l),
(361,65,o),
(321,48,o),
(274,48,cs),
(192,48,o),
(123,100,o),
(118,218,c),
(443,218,l),
(444,229,o),
(445,240,o),
(445,251,cs),
(445,400,o),
(363,468,o),
(259,468,cs),
(143,468,o),
(49,382,o),
(49,227,cs),
(49,74,o),
(138,-10,o),
(272,-10,cs)
);
},
{
closed = 1;
nodes = (
(121,274,l),
(134,370,o),
(191,413,o),
(254,413,cs),
(325,413,o),
(372,359,o),
(372,274,c)
);
}
);
width = 500;
}
);
note = uni1EC1;
unicode = 7873;
},
{
glyphname = uni1EC3;
layers = (
{
layerId = m01;
shapes = (
{
closed = 1;
nodes = (
(466,776,o),
(429,804,o),
(385,804,cs),
(349,804,o),
(323,792,o),
(299,762,c),
(336,724,l),
(344,750,o),
(363,756,o),
(380,756,cs),
(397,756,o),
(411,746,o),
(411,728,cs),
(411,704,o),
(359,685,o),
(359,651,cs),
(359,623,l),
(410,623,l),
(410,630,ls),
(410,680,o),
(466,674,o),
(466,730,cs)
);
},
{
closed = 1;
nodes = (
(150,511,l),
(261,621,l),
(372,511,l),
(412,545,l),
(273,685,l),
(249,685,l),
(110,545,l)
);
},
{
closed = 1;
nodes = (
(340,-10,o),
(393,13,o),
(432,60,c),
(392,99,l),
(361,65,o),
(321,48,o),
(274,48,cs),
(192,48,o),
(123,100,o),
(118,218,c),
(443,218,l),
(444,229,o),
(445,240,o),
(445,251,cs),
(445,400,o),
(363,468,o),
(259,468,cs),
(143,468,o),
(49,382,o),
(49,227,cs),
(49,74,o),
(138,-10,o),
(272,-10,cs)
);
},
{
closed = 1;
nodes = (
(121,274,l),
(134,370,o),
(191,413,o),
(254,413,cs),
(325,413,o),
(372,359,o),
(372,274,c)
);
}
);
width = 500;
}
);
note = uni1EC3;
unicode = 7875;
},
{
glyphname = uni1EC5;
layers = (
{
layerId = m01;
shapes = (
{
closed = 1;
nodes = (
(359,812,l),
(347,782,o),
(335,770,o),
(320,770,cs),
(291,770,o),
(253,824,o),
(204,824,cs),
(170,824,o),
(134,794,o),
(119,749,c),
(165,727,l),
(176,755,o),
(193,769,o),
(210,769,cs),
(242,769,o),
(271,715,o),
(320,715,cs),
(354,715,o),
(380,734,o),
(405,790,c)
);
},
{
closed = 1;
nodes = (
(150,511,l),
(261,621,l),
(372,511,l),
(412,545,l),
(273,685,l),
(249,685,l),
(110,545,l)
);
},
{
closed = 1;
nodes = (
(340,-10,o),
(393,13,o),
(432,60,c),
(392,99,l),
(361,65,o),
(321,48,o),
(274,48,cs),
(192,48,o),
(123,100,o),
(118,218,c),
(443,218,l),
(444,229,o),
(445,240,o),
(445,251,cs),
(445,400,o),
(363,468,o),
(259,468,cs),
(143,468,o),
(49,382,o),
(49,227,cs),
(49,74,o),
(138,-10,o),
(272,-10,cs)
);
},
{
closed = 1;
nodes = (
(121,274,l),
(134,370,o),
(191,413,o),
(254,413,cs),
(325,413,o),
(372,359,o),
(372,274,c)
);
}
);
width = 500;
}
);
note = uni1EC5;
unicode = 7877;
},
{
glyphname = uni0205;
layers = (
{
layerId = m01;
shapes = (
{
closed = 1;
nodes = (
(185,507,l),
(223,533,l),
(139,682,l),
(84,642,l)
);
},
{
closed = 1;
nodes = (
(345,507,l),
(383,533,l),
(299,682,l),
(244,642,l)
);
},
{
closed = 1;
nodes = (
(340,-10,o),
(393,13,o),
(432,60,c),
(392,99,l),
(361,65,o),
(321,48,o),
(274,48,cs),
(192,48,o),
(123,100,o),
(118,218,c),
(443,218,l),
(444,229,o),
(445,240,o),
(445,251,cs),
(445,400,o),
(363,468,o),
(259,468,cs),
(143,468,o),
(49,382,o),
(49,227,cs),
(49,74,o),
(138,-10,o),
(272,-10,cs)
);
},
{
closed = 1;
nodes = (
(121,274,l),
(134,370,o),
(191,413,o),
(254,413,cs),
(325,413,o),
(372,359,o),
(372,274,c)
);
}
);
width = 500;
}
);
note = uni0205;
unicode = 517;
},
{
glyphname = edieresis;
layers = (
{
layerId = m01;
shapes = (
{
closed = 1;
nodes = (
(199,564,o),
(222,587,o),
(222,614,cs),
(222,642,o),
(199,665,o),
(172,665,cs),
(144,665,o),
(121,641,o),
(121,614,cs),
(121,587,o),
(144,564,o),
(172,564,cs)
);
},
{
closed = 1;
nodes = (
(377,564,o),
(400,587,o),
(400,614,cs),
(400,642,o),
(377,665,o),
(350,665,cs),
(322,665,o),
(300,642,o),
(300,614,cs),
(300,586,o),
(322,564,o),
(350,564,cs)
);
},
{
closed = 1;
nodes = (
(340,-10,o),
(393,13,o),
(432,60,c),
(392,99,l),
(361,65,o),
(321,48,o),
(274,48,cs),
(192,48,o),
(123,100,o),
(118,218,c),
(443,218,l),
(444,229,o),
(445,240,o),
(445,251,cs),
(445,400,o),
(363,468,o),
(259,468,cs),
(143,468,o),
(49,382,o),
(49,227,cs),
(49,74,o),
(138,-10,o),
(272,-10,cs)
);
},
{
closed = 1;
nodes = (
(121,274,l),
(134,370,o),
(191,413,o),
(254,413,cs),
(325,413,o),
(372,359,o),
(372,274,c)
);
}
);
width = 500;
}
);
note = edieresis;
unicode = 235;
},
{
glyphname = edotaccent;
layers = (
{
layerId = m01;
shapes = (
{
closed = 1;
nodes = (
(287,553,o),
(311,576,o),
(311,604,cs),
(311,632,o),
(287,656,o),
(259,656,cs),
(230,656,o),
(208,633,o),
(208,604,cs),
(208,576,o),
(231,553,o),
(259,553,cs)
);
},
{
closed = 1;
nodes = (
(340,-10,o),
(393,13,o),
(432,60,c),
(392,99,l),
(361,65,o),
(321,48,o),
(274,48,cs),
(192,48,o),
(123,100,o),
(118,218,c),
(443,218,l),
(444,229,o),
(445,240,o),
(445,251,cs),
(445,400,o),
(363,468,o),
(259,468,cs),
(143,468,o),
(49,382,o),
(49,227,cs),
(49,74,o),
(138,-10,o),
(272,-10,cs)
);
},
{
closed = 1;
nodes = (
(121,274,l),
(134,370,o),
(191,413,o),
(254,413,cs),
(325,413,o),
(372,359,o),
(372,274,c)
);
}
);
width = 500;
}
);
note = edotaccent;
unicode = 279;
},
{
glyphname = uni1EB9;
layers = (
{
layerId = m01;
shapes = (
{
closed = 1;
nodes = (
(340,-10,o),
(393,13,o),
(432,60,c),
(392,99,l),
(361,65,o),
(321,48,o),
(274,48,cs),
(192,48,o),
(123,100,o),
(118,218,c),
(443,218,l),
(444,229,o),
(445,240,o),
(445,251,cs),
(445,400,o),
(363,468,o),
(259,468,cs),
(143,468,o),
(49,382,o),
(49,227,cs),
(49,74,o),
(138,-10,o),
(272,-10,cs)
);
},
{
closed = 1;
nodes = (
(121,274,l),
(134,370,o),
(191,413,o),
(254,413,cs),
(325,413,o),
(372,359,o),
(372,274,c)
);
},
{
closed = 1;
nodes = (
(307,-147,o),
(331,-124,o),
(331,-96,cs),
(331,-68,o),
(307,-44,o),
(279,-44,cs),
(250,-44,o),
(228,-67,o),
(228,-96,cs),
(228,-124,o),
(251,-147,o),
(279,-147,cs)
);
}
);
width = 500;
}
);
note = uni1EB9;
unicode = 7865;
},
{
glyphname = egrave;
layers = (
{
layerId = m01;
shapes = (
{
closed = 1;
nodes = (
(254,507,l),
(292,533,l),
(208,682,l),
(153,642,l)
);
},
{
closed = 1;
nodes = (
(340,-10,o),
(393,13,o),
(432,60,c),
(392,99,l),
(361,65,o),
(321,48,o),
(274,48,cs),
(192,48,o),
(123,100,o),
(118,218,c),
(443,218,l),
(444,229,o),
(445,240,o),
(445,251,cs),
(445,400,o),
(363,468,o),
(259,468,cs),
(143,468,o),
(49,382,o),
(49,227,cs),
(49,74,o),
(138,-10,o),
(272,-10,cs)
);
},
{
closed = 1;
nodes = (
(121,274,l),
(134,370,o),
(191,413,o),
(254,413,cs),
(325,413,o),
(372,359,o),
(372,274,c)
);
}
);
width = 500;
}
);
note = egrave;
unicode = 232;
},
{
glyphname = uni1EBB;
layers = (
{
layerId = m01;
shapes = (
{
closed = 1;
nodes = (
(345,676,o),
(308,704,o),
(264,704,cs),
(228,704,o),
(202,692,o),
(178,662,c),
(215,624,l),
(223,650,o),
(242,656,o),
(259,656,cs),
(276,656,o),
(290,646,o),
(290,628,cs),
(290,604,o),
(238,585,o),
(238,551,cs),
(238,523,l),
(289,523,l),
(289,530,ls),
(289,580,o),
(345,574,o),
(345,630,cs)
);
},
{
closed = 1;
nodes = (
(340,-10,o),
(393,13,o),
(432,60,c),
(392,99,l),
(361,65,o),
(321,48,o),
(274,48,cs),
(192,48,o),
(123,100,o),
(118,218,c),
(443,218,l),
(444,229,o),
(445,240,o),
(445,251,cs),
(445,400,o),
(363,468,o),
(259,468,cs),
(143,468,o),
(49,382,o),
(49,227,cs),
(49,74,o),
(138,-10,o),
(272,-10,cs)
);
},
{
closed = 1;
nodes = (
(121,274,l),
(134,370,o),
(191,413,o),
(254,413,cs),
(325,413,o),
(372,359,o),
(372,274,c)
);
}
);
width = 500;
}
);
note = uni1EBB;
unicode = 7867;
},
{
glyphname = uni0207;
layers = (
{
layerId = m01;
shapes = (
{
closed = 1;
nodes = (
(169,528,l),
(191,575,o),
(219,596,o),
(259,596,cs),
(299,596,o),
(327,575,o),
(349,528,c),
(401,552,l),
(371,611,o),
(321,644,o),
(259,644,cs),
(197,644,o),
(147,611,o),
(117,552,c)
);
},
{
closed = 1;
nodes = (
(340,-10,o),
(393,13,o),
(432,60,c),
(392,99,l),
(361,65,o),
(321,48,o),
(274,48,cs),
(192,48,o),
(123,100,o),
(118,218,c),
(443,218,l),
(444,229,o),
(445,240,o),
(445,251,cs),
(445,400,o),
(363,468,o),
(259,468,cs),
(143,468,o),
(49,382,o),
(49,227,cs),
(49,74,o),
(138,-10,o),
(272,-10,cs)
);
},
{
closed = 1;
nodes = (
(121,274,l),
(134,370,o),
(191,413,o),
(254,413,cs),
(325,413,o),
(372,359,o),
(372,274,c)
);
}
);
width = 500;
}
);
note = uni0207;
unicode = 519;
},
{
glyphname = emacron;
layers = (
{
layerId = m01;
shapes = (
{
closed = 1;
nodes = (
(133,565,l),
(387,565,l),
(387,621,l),
(133,621,l)
);
},
{
closed = 1;
nodes = (
(340,-10,o),
(393,13,o),
(432,60,c),
(392,99,l),
(361,65,o),
(321,48,o),
(274,48,cs),
(192,48,o),
(123,100,o),
(118,218,c),
(443,218,l),
(444,229,o),
(445,240,o),
(445,251,cs),
(445,400,o),
(363,468,o),
(259,468,cs),
(143,468,o),
(49,382,o),
(49,227,cs),
(49,74,o),
(138,-10,o),
(272,-10,cs)
);
},
{
closed = 1;
nodes = (
(121,274,l),
(134,370,o),
(191,413,o),
(254,413,cs),
(325,413,o),
(372,359,o),
(372,274,c)
);
}
);
width = 500;
}
);
note = emacron;
unicode = 275;
},
{
glyphname = uni1E17;
layers = (
{
layerId = m01;
shapes = (
{
closed = 1;
nodes = (
(253,661,l),
(354,796,l),
(299,836,l),
(215,687,l)
);
},
{
closed = 1;
nodes = (
(133,565,l),
(387,565,l),
(387,621,l),
(133,621,l)
);
},
{
closed = 1;
nodes = (
(340,-10,o),
(393,13,o),
(432,60,c),
(392,99,l),
(361,65,o),
(321,48,o),
(274,48,cs),
(192,48,o),
(123,100,o),
(118,218,c),
(443,218,l),
(444,229,o),
(445,240,o),
(445,251,cs),
(445,400,o),
(363,468,o),
(259,468,cs),
(143,468,o),
(49,382,o),
(49,227,cs),
(49,74,o),
(138,-10,o),
(272,-10,cs)
);
},
{
closed = 1;
nodes = (
(121,274,l),
(134,370,o),
(191,413,o),
(254,413,cs),
(325,413,o),
(372,359,o),
(372,274,c)
);
}
);
width = 500;
}
);
note = uni1E17;
unicode = 7703;
},
{
glyphname = uni1E15;
layers = (
{
layerId = m01;
shapes = (
{
closed = 1;
nodes = (
(254,661,l),
(292,687,l),
(208,836,l),
(153,796,l)
);
},
{
closed = 1;
nodes = (
(133,565,l),
(387,565,l),
(387,621,l),
(133,621,l)
);
},
{
closed = 1;
nodes = (
(340,-10,o),
(393,13,o),
(432,60,c),
(392,99,l),
(361,65,o),
(321,48,o),
(274,48,cs),
(192,48,o),
(123,100,o),
(118,218,c),
(443,218,l),
(444,229,o),
(445,240,o),
(445,251,cs),
(445,400,o),
(363,468,o),
(259,468,cs),
(143,468,o),
(49,382,o),
(49,227,cs),
(49,74,o),
(138,-10,o),
(272,-10,cs)
);
},
{
closed = 1;
nodes = (
(121,274,l),
(134,370,o),
(191,413,o),
(254,413,cs),
(325,413,o),
(372,359,o),
(372,274,c)
);
}
);
width = 500;
}
);
note = uni1E15;
unicode = 7701;
},
{
glyphname = eogonek;
layers = (
{
layerId = m01;
shapes = (
{
closed = 1;
nodes = (
(279,-10,o),
(286,-10,o),
(293,-9,c),
(252,-45,o),
(230,-84,o),
(230,-122,cs),
(230,-173,o),
(276,-203,o),
(342,-212,c),
(358,-164,l),
(315,-158,o),
(296,-136,o),
(296,-108,cs),
(296,-72,o),
(327,-25,o),
(377,14,c),
(398,26,o),
(416,41,o),
(432,60,c),
(392,99,l),
(361,65,o),
(321,48,o),
(274,48,cs),
(192,48,o),
(123,100,o),
(118,218,c),
(443,218,l),
(444,229,o),
(445,240,o),
(445,251,cs),
(445,400,o),
(363,468,o),
(259,468,cs),
(143,468,o),
(49,382,o),
(49,227,cs),
(49,74,o),
(138,-10,o),
(272,-10,cs)
);
},
{
closed = 1;
nodes = (
(121,274,l),
(134,370,o),
(191,413,o),
(254,413,cs),
(325,413,o),
(372,359,o),
(372,274,c)
);
}
);
width = 500;
}
);
note = eogonek;
unicode = 281;
},
{
glyphname = uni029A;
layers = (
{
layerId = m01;
shapes = (
{
closed = 1;
nodes = (
(366,-9,o),
(453,90,o),
(453,229,cs),
(453,368,o),
(370,467,o),
(244,467,cs),
(147,467,o),
(73,416,o),
(73,344,cs),
(73,306,o),
(94,274,o),
(133,252,c),
(79,240,o),
(45,199,o),
(45,143,cs),
(45,60,o),
(123,-7,o),
(236,-8,cs)
);
},
{
closed = 1;
nodes = (
(172,52,o),
(123,86,o),
(123,137,cs),
(123,189,o),
(168,214,o),
(229,214,cs),
(242,214,o),
(252,212,o),
(265,211,c),
(265,278,l),
(257,277,o),
(249,277,o),
(241,277,cs),
(173,277,o),
(150,302,o),
(150,339,cs),
(150,378,o),
(179,407,o),
(241,407,cs),
(325,407,o),
(377,334,o),
(377,230,cs),
(377,116,o),
(321,52,o),
(236,52,cs)
);
}
);
width = 500;
}
);
note = uni029A;
unicode = 666;
},
{
glyphname = uni1EBD;
layers = (
{
layerId = m01;
shapes = (
{
closed = 1;
nodes = (
(385,677,l),
(366,640,o),
(355,629,o),
(334,629,cs),
(286,629,o),
(263,683,o),
(204,683,cs),
(152,683,o),
(119,648,o),
(101,603,c),
(150,581,l),
(166,617,o),
(183,628,o),
(206,628,cs),
(251,628,o),
(278,574,o),
(338,574,cs),
(378,574,o),
(402,593,o),
(431,649,c)
);
},
{
closed = 1;
nodes = (
(340,-10,o),
(393,13,o),
(432,60,c),
(392,99,l),
(361,65,o),
(321,48,o),
(274,48,cs),
(192,48,o),
(123,100,o),
(118,218,c),
(443,218,l),
(444,229,o),
(445,240,o),
(445,251,cs),
(445,400,o),
(363,468,o),
(259,468,cs),
(143,468,o),
(49,382,o),
(49,227,cs),
(49,74,o),
(138,-10,o),
(272,-10,cs)
);
},
{
closed = 1;
nodes = (
(121,274,l),
(134,370,o),
(191,413,o),
(254,413,cs),
(325,413,o),
(372,359,o),
(372,274,c)
);
}
);
width = 500;
}
);
note = uni1EBD;
unicode = 7869;
},
{
glyphname = uni0259;
layers = (
{
layerId = m01;
shapes = (
{
closed = 1;
nodes = (
(160,467,o),
(107,444,o),
(68,397,c),
(108,358,l),
(139,392,o),
(179,409,o),
(226,409,cs),
(308,409,o),
(377,357,o),
(382,239,c),
(57,239,l),
(56,228,o),
(55,217,o),
(55,206,cs),
(55,57,o),
(137,-11,o),
(241,-11,cs),
(357,-11,o),
(451,75,o),
(451,230,cs),
(451,383,o),
(362,467,o),
(228,467,cs)
);
},
{
closed = 1;
nodes = (
(379,183,l),
(366,87,o),
(309,44,o),
(246,44,cs),
(175,44,o),
(128,98,o),
(128,183,c)
);
}
);
width = 500;
}
);
note = uni0259;
unicode = 601;
},
{
glyphname = uni01B9;
layers = (
{
layerId = m01;
shapes = (
{
closed = 1;
nodes = (
(351,-177,o),
(406,-153,o),
(449,-106,c),
(407,-52,l),
(373,-93,o),
(352,-117,o),
(295,-117,cs),
(211,-117,o),
(163,-65,o),
(163,11,cs),
(163,118,o),
(240,160,o),
(358,154,c),
(358,206,l),
(186,394,l),
(413,394,l),
(413,457,l),
(108,457,l),
(108,394,l),
(284,206,l),
(169,201,o),
(91,112,o),
(91,6,cs),
(91,-91,o),
(157,-177,o),
(288,-177,cs)
);
}
);
width = 500;
}
);
note = uni01B9;
unicode = 441;
},
{
glyphname = f;
layers = (
{
layerId = m01;
shapes = (
{
closed = 1;
nodes = (
(162,0,l),
(231,0,l),
(231,400,l),
(381,400,l),
(381,457,l),
(231,457,l),
(231,495,ls),
(231,582,o),
(274,613,o),
(332,613,cs),
(381,613,o),
(399,597,o),
(434,554,c),
(473,608,l),
(440,650,o),
(387,671,o),
(330,671,cs),
(232,671,o),
(162,617,o),
(162,495,cs),
(162,457,l),
(63,457,l),
(63,400,l),
(162,400,l)
);
}
);
width = 500;
}
);
note = f;
unicode = 102;
},
{
glyphname = g;
layers = (
{
layerId = m01;
shapes = (
{
closed = 1;
nodes = (
(325,155,o),
(386,226,o),
(386,315,cs),
(386,342,o),
(380,368,o),
(369,390,c),
(400,410,o),
(435,414,o),
(475,410,c),
(466,469,l),
(414,473,o),
(378,459,o),
(343,427,c),
(316,456,o),
(276,474,o),
(226,474,cs),
(127,474,o),
(66,403,o),
(66,315,cs),
(66,266,o),
(84,223,o),
(117,194,c),
(92,167,o),
(76,139,o),
(76,110,cs),
(76,83,o),
(88,63,o),
(109,49,c),
(70,31,o),
(38,-4,o),
(38,-54,cs),
(38,-133,o),
(119,-172,o),
(247,-172,cs),
(393,-172,o),
(445,-105,o),
(445,-34,cs),
(445,33,o),
(417,82,o),
(277,82,cs),
(170,82,o),
(137,95,o),
(137,127,cs),
(137,141,o),
(142,153,o),
(155,169,c),
(176,160,o),
(200,155,o),
(226,155,cs)
);
},
{
closed = 1;
nodes = (
(168,215,o),
(126,260,o),
(126,315,cs),
(126,370,o),
(168,415,o),
(226,415,cs),
(284,415,o),
(326,370,o),
(326,315,cs),
(326,260,o),
(284,215,o),
(226,215,cs)
);
},
{
closed = 1;
nodes = (
(104,-8,o),
(116,11,o),
(147,32,c),
(177,23,o),
(216,19,o),
(262,19,cs),
(363,19,o),
(379,-1,o),
(379,-45,cs),
(379,-88,o),
(339,-118,o),
(248,-118,cs),
(158,-118,o),
(104,-92,o),
(104,-46,cs)
);
}
);
width = 500;
}
);
note = g;
unicode = 103;
},
{
glyphname = gbreve;
layers = (
{
layerId = m01;
shapes = (
{
closed = 1;
nodes = (
(316,524,o),
(370,556,o),
(406,604,c),
(378,646,l),
(341,599,o),
(302,576,o),
(259,576,cs),
(212,576,o),
(171,606,o),
(146,646,c),
(110,601,l),
(153,550,o),
(203,524,o),
(260,524,cs)
);
},
{
closed = 1;
nodes = (
(325,155,o),
(386,226,o),
(386,315,cs),
(386,342,o),
(380,368,o),
(369,390,c),
(400,410,o),
(435,414,o),
(475,410,c),
(466,469,l),
(414,473,o),
(378,459,o),
(343,427,c),
(316,456,o),
(276,474,o),
(226,474,cs),
(127,474,o),
(66,403,o),
(66,315,cs),
(66,266,o),
(84,223,o),
(117,194,c),
(92,167,o),
(76,139,o),
(76,110,cs),
(76,83,o),
(88,63,o),
(109,49,c),
(70,31,o),
(38,-4,o),
(38,-54,cs),
(38,-133,o),
(119,-172,o),
(247,-172,cs),
(393,-172,o),
(445,-105,o),
(445,-34,cs),
(445,33,o),
(417,82,o),
(277,82,cs),
(170,82,o),
(137,95,o),
(137,127,cs),
(137,141,o),
(142,153,o),
(155,169,c),
(176,160,o),
(200,155,o),
(226,155,cs)
);
},
{
closed = 1;
nodes = (
(168,215,o),
(126,260,o),
(126,315,cs),
(126,370,o),
(168,415,o),
(226,415,cs),
(284,415,o),
(326,370,o),
(326,315,cs),
(326,260,o),
(284,215,o),
(226,215,cs)
);
},
{
closed = 1;
nodes = (
(104,-8,o),
(116,11,o),
(147,32,c),
(177,23,o),
(216,19,o),
(262,19,cs),
(363,19,o),
(379,-1,o),
(379,-45,cs),
(379,-88,o),
(339,-118,o),
(248,-118,cs),
(158,-118,o),
(104,-92,o),
(104,-46,cs)
);
}
);
width = 500;
}
);
note = gbreve;
unicode = 287;
},
{
glyphname = gcaron;
layers = (
{
layerId = m01;
shapes = (
{
closed = 1;
nodes = (
(114,688,l),
(74,654,l),
(213,514,l),
(237,514,l),
(376,654,l),
(336,688,l),
(225,578,l)
);
},
{
closed = 1;
nodes = (
(325,155,o),
(386,226,o),
(386,315,cs),
(386,342,o),
(380,368,o),
(369,390,c),
(400,410,o),
(435,414,o),
(475,410,c),
(466,469,l),
(414,473,o),
(378,459,o),
(343,427,c),
(316,456,o),
(276,474,o),
(226,474,cs),
(127,474,o),
(66,403,o),
(66,315,cs),
(66,266,o),
(84,223,o),
(117,194,c),
(92,167,o),
(76,139,o),
(76,110,cs),
(76,83,o),
(88,63,o),
(109,49,c),
(70,31,o),
(38,-4,o),
(38,-54,cs),
(38,-133,o),
(119,-172,o),
(247,-172,cs),
(393,-172,o),
(445,-105,o),
(445,-34,cs),
(445,33,o),
(417,82,o),
(277,82,cs),
(170,82,o),
(137,95,o),
(137,127,cs),
(137,141,o),
(142,153,o),
(155,169,c),
(176,160,o),
(200,155,o),
(226,155,cs)
);
},
{
closed = 1;
nodes = (
(168,215,o),
(126,260,o),
(126,315,cs),
(126,370,o),
(168,415,o),
(226,415,cs),
(284,415,o),
(326,370,o),
(326,315,cs),
(326,260,o),
(284,215,o),
(226,215,cs)
);
},
{
closed = 1;
nodes = (
(104,-8,o),
(116,11,o),
(147,32,c),
(177,23,o),
(216,19,o),
(262,19,cs),
(363,19,o),
(379,-1,o),
(379,-45,cs),
(379,-88,o),
(339,-118,o),
(248,-118,cs),
(158,-118,o),
(104,-92,o),
(104,-46,cs)
);
}
);
width = 500;
}
);
note = gcaron;
unicode = 487;
},
{
glyphname = gcircumflex;
layers = (
{
layerId = m01;
shapes = (
{
closed = 1;
nodes = (
(115,511,l),
(226,621,l),
(337,511,l),
(377,545,l),
(238,685,l),
(214,685,l),
(75,545,l)
);
},
{
closed = 1;
nodes = (
(325,155,o),
(386,226,o),
(386,315,cs),
(386,342,o),
(380,368,o),
(369,390,c),
(400,410,o),
(435,414,o),
(475,410,c),
(466,469,l),
(414,473,o),
(378,459,o),
(343,427,c),
(316,456,o),
(276,474,o),
(226,474,cs),
(127,474,o),
(66,403,o),
(66,315,cs),
(66,266,o),
(84,223,o),
(117,194,c),
(92,167,o),
(76,139,o),
(76,110,cs),
(76,83,o),
(88,63,o),
(109,49,c),
(70,31,o),
(38,-4,o),
(38,-54,cs),
(38,-133,o),
(119,-172,o),
(247,-172,cs),
(393,-172,o),
(445,-105,o),
(445,-34,cs),
(445,33,o),
(417,82,o),
(277,82,cs),
(170,82,o),
(137,95,o),
(137,127,cs),
(137,141,o),
(142,153,o),
(155,169,c),
(176,160,o),
(200,155,o),
(226,155,cs)
);
},
{
closed = 1;
nodes = (
(168,215,o),
(126,260,o),
(126,315,cs),
(126,370,o),
(168,415,o),
(226,415,cs),
(284,415,o),
(326,370,o),
(326,315,cs),
(326,260,o),
(284,215,o),
(226,215,cs)
);
},
{
closed = 1;
nodes = (
(104,-8,o),
(116,11,o),
(147,32,c),
(177,23,o),
(216,19,o),
(262,19,cs),
(363,19,o),
(379,-1,o),
(379,-45,cs),
(379,-88,o),
(339,-118,o),
(248,-118,cs),
(158,-118,o),
(104,-92,o),
(104,-46,cs)
);
}
);
width = 500;
}
);
note = gcircumflex;
unicode = 285;
},
{
glyphname = uni0123;
layers = (
{
layerId = m01;
shapes = (
{
closed = 1;
nodes = (
(263,811,l),
(192,738,o),
(156,676,o),
(156,623,cs),
(156,574,o),
(189,540,o),
(224,540,cs),
(259,540,o),
(283,566,o),
(283,599,cs),
(283,635,o),
(232,649,o),
(232,676,cs),
(232,701,o),
(260,746,o),
(297,781,c)
);
},
{
closed = 1;
nodes = (
(325,155,o),
(386,226,o),
(386,315,cs),
(386,342,o),
(380,368,o),
(369,390,c),
(400,410,o),
(435,414,o),
(475,410,c),
(466,469,l),
(414,473,o),
(378,459,o),
(343,427,c),
(316,456,o),
(276,474,o),
(226,474,cs),
(127,474,o),
(66,403,o),
(66,315,cs),
(66,266,o),
(84,223,o),
(117,194,c),
(92,167,o),
(76,139,o),
(76,110,cs),
(76,83,o),
(88,63,o),
(109,49,c),
(70,31,o),
(38,-4,o),
(38,-54,cs),
(38,-133,o),
(119,-172,o),
(247,-172,cs),
(393,-172,o),
(445,-105,o),
(445,-34,cs),
(445,33,o),
(417,82,o),
(277,82,cs),
(170,82,o),
(137,95,o),
(137,127,cs),
(137,141,o),
(142,153,o),
(155,169,c),
(176,160,o),
(200,155,o),
(226,155,cs)
);
},
{
closed = 1;
nodes = (
(168,215,o),
(126,260,o),
(126,315,cs),
(126,370,o),
(168,415,o),
(226,415,cs),
(284,415,o),
(326,370,o),
(326,315,cs),
(326,260,o),
(284,215,o),
(226,215,cs)
);
},
{
closed = 1;
nodes = (
(104,-8,o),
(116,11,o),
(147,32,c),
(177,23,o),
(216,19,o),
(262,19,cs),
(363,19,o),
(379,-1,o),
(379,-45,cs),
(379,-88,o),
(339,-118,o),
(248,-118,cs),
(158,-118,o),
(104,-92,o),
(104,-46,cs)
);
}
);
width = 500;
}
);
note = uni0123;
unicode = 291;
},
{
glyphname = gdotaccent;
layers = (
{
layerId = m01;
shapes = (
{
closed = 1;
nodes = (
(253,553,o),
(277,576,o),
(277,604,cs),
(277,632,o),
(253,656,o),
(225,656,cs),
(196,656,o),
(174,633,o),
(174,604,cs),
(174,576,o),
(197,553,o),
(225,553,cs)
);
},
{
closed = 1;
nodes = (
(325,155,o),
(386,226,o),
(386,315,cs),
(386,342,o),
(380,368,o),
(369,390,c),
(400,410,o),
(435,414,o),
(475,410,c),
(466,469,l),
(414,473,o),
(378,459,o),
(343,427,c),
(316,456,o),
(276,474,o),
(226,474,cs),
(127,474,o),
(66,403,o),
(66,315,cs),
(66,266,o),
(84,223,o),
(117,194,c),
(92,167,o),
(76,139,o),
(76,110,cs),
(76,83,o),
(88,63,o),
(109,49,c),
(70,31,o),
(38,-4,o),
(38,-54,cs),
(38,-133,o),
(119,-172,o),
(247,-172,cs),
(393,-172,o),
(445,-105,o),
(445,-34,cs),
(445,33,o),
(417,82,o),
(277,82,cs),
(170,82,o),
(137,95,o),
(137,127,cs),
(137,141,o),
(142,153,o),
(155,169,c),
(176,160,o),
(200,155,o),
(226,155,cs)
);
},
{
closed = 1;
nodes = (
(168,215,o),
(126,260,o),
(126,315,cs),
(126,370,o),
(168,415,o),
(226,415,cs),
(284,415,o),
(326,370,o),
(326,315,cs),
(326,260,o),
(284,215,o),
(226,215,cs)
);
},
{
closed = 1;
nodes = (
(104,-8,o),
(116,11,o),
(147,32,c),
(177,23,o),
(216,19,o),
(262,19,cs),
(363,19,o),
(379,-1,o),
(379,-45,cs),
(379,-88,o),
(339,-118,o),
(248,-118,cs),
(158,-118,o),
(104,-92,o),
(104,-46,cs)
);
}
);
width = 500;
}
);
note = gdotaccent;
unicode = 289;
},
{
glyphname = uni1E21;
layers = (
{
layerId = m01;
shapes = (
{
closed = 1;
nodes = (
(99,565,l),
(353,565,l),
(353,621,l),
(99,621,l)
);
},
{
closed = 1;
nodes = (
(325,155,o),
(386,226,o),
(386,315,cs),
(386,342,o),
(380,368,o),
(369,390,c),
(400,410,o),
(435,414,o),
(475,410,c),
(466,469,l),
(414,473,o),
(378,459,o),
(343,427,c),
(316,456,o),
(276,474,o),
(226,474,cs),
(127,474,o),
(66,403,o),
(66,315,cs),
(66,266,o),
(84,223,o),
(117,194,c),
(92,167,o),
(76,139,o),
(76,110,cs),
(76,83,o),
(88,63,o),
(109,49,c),
(70,31,o),
(38,-4,o),
(38,-54,cs),
(38,-133,o),
(119,-172,o),
(247,-172,cs),
(393,-172,o),
(445,-105,o),
(445,-34,cs),
(445,33,o),
(417,82,o),
(277,82,cs),
(170,82,o),
(137,95,o),
(137,127,cs),
(137,141,o),
(142,153,o),
(155,169,c),
(176,160,o),
(200,155,o),
(226,155,cs)
);
},
{
closed = 1;
nodes = (
(168,215,o),
(126,260,o),
(126,315,cs),
(126,370,o),
(168,415,o),
(226,415,cs),
(284,415,o),
(326,370,o),
(326,315,cs),
(326,260,o),
(284,215,o),
(226,215,cs)
);
},
{
closed = 1;
nodes = (
(104,-8,o),
(116,11,o),
(147,32,c),
(177,23,o),
(216,19,o),
(262,19,cs),
(363,19,o),
(379,-1,o),
(379,-45,cs),
(379,-88,o),
(339,-118,o),
(248,-118,cs),
(158,-118,o),
(104,-92,o),
(104,-46,cs)
);
}
);
width = 500;
}
);
note = uni1E21;
unicode = 7713;
},
{
glyphname = h;
layers = (
{
layerId = m01;
shapes = (
{
closed = 1;
nodes = (
(73,0,l),
(143,0,l),
(143,263,ls),
(143,352,o),
(217,405,o),
(278,405,cs),
(325,405,o),
(362,371,o),
(362,275,cs),
(362,0,l),
(432,0,l),
(432,277,ls),
(432,415,o),
(375,468,o),
(293,468,cs),
(237,468,o),
(179,432,o),
(143,376,c),
(143,665,l),
(73,665,l)
);
}
);
width = 500;
}
);
note = h;
unicode = 104;
},
{
glyphname = hbar;
layers = (
{
layerId = m01;
shapes = (
{
closed = 1;
nodes = (
(73,0,l),
(143,0,l),
(143,263,ls),
(143,352,o),
(217,405,o),
(278,405,cs),
(325,405,o),
(362,371,o),
(362,275,cs),
(362,0,l),
(432,0,l),
(432,277,ls),
(432,415,o),
(375,468,o),
(293,468,cs),
(237,468,o),
(179,432,o),
(143,376,c),
(143,520,l),
(270,520,l),
(270,577,l),
(143,577,l),
(143,665,l),
(73,665,l),
(73,577,l),
(0,577,l),
(0,520,l),
(73,520,l)
);
}
);
width = 500;
}
);
note = hbar;
unicode = 295;
},
{
glyphname = uni1E2B;
layers = (
{
layerId = m01;
shapes = (
{
closed = 1;
nodes = (
(73,0,l),
(143,0,l),
(143,263,ls),
(143,352,o),
(217,405,o),
(278,405,cs),
(325,405,o),
(362,371,o),
(362,275,cs),
(362,0,l),
(432,0,l),
(432,277,ls),
(432,415,o),
(375,468,o),
(293,468,cs),
(237,468,o),
(179,432,o),
(143,376,c),
(143,665,l),
(73,665,l)
);
},
{
closed = 1;
nodes = (
(350,-59,l),
(328,-106,o),
(300,-127,o),
(260,-127,cs),
(220,-127,o),
(192,-106,o),
(170,-59,c),
(118,-83,l),
(148,-142,o),
(198,-175,o),
(260,-175,cs),
(322,-175,o),
(372,-142,o),
(402,-83,c)
);
}
);
width = 500;
}
);
note = uni1E2B;
unicode = 7723;
},
